SplineFontDB: 3.0
FontName: Garuda
FullName: Garuda
FamilyName: Garuda
Weight: Regular
Copyright: Generated by NECTEC for Public Domain\n\nModified under GNU General Public License by TLWG
Version: 003.004
ItalicAngle: 0
UnderlinePosition: -27
UnderlineWidth: 10
Ascent: 840
Descent: 160
LayerCount: 2
Layer: 0 0 "Back"  1
Layer: 1 0 "Fore"  0
FSType: 0
OS2Version: 4
OS2_WeightWidthSlopeOnly: 0
OS2_UseTypoMetrics: 0
CreationTime: 1153661488
ModificationTime: 1435135271
PfmFamily: 33
TTFWeight: 400
TTFWidth: 5
LineGap: 0
VLineGap: 0
Panose: 2 11 6 4 2 2 2 2 2 4
OS2TypoAscent: 0
OS2TypoAOffset: 1
OS2TypoDescent: 0
OS2TypoDOffset: 1
OS2TypoLinegap: 0
OS2WinAscent: 1284
OS2WinAOffset: 0
OS2WinDescent: 591
OS2WinDOffset: 0
HheadAscent: 1284
HheadAOffset: 0
HheadDescent: -591
HheadDOffset: 0
OS2Vendor: 'PfEd'
Lookup: 4 0 0 "'ccmp' Patani Malay Ligatures"  {"'ccmp' Patani Malay Ligatures"  } ['ccmp' ('DFLT' <'dflt' > 'thai' <'KUY ' 'MLY ' 'PAL ' 'SAN ' 'THA ' 'dflt' > ) ]
Lookup: 6 0 0 "'ccmp' Thai Conditional Descender Removal"  {"'ccmp' Thai Conditional Descender Removal"  } ['ccmp' ('DFLT' <'dflt' > 'thai' <'KUY ' 'MLY ' 'THA ' 'dflt' > ) ]
Lookup: 1 0 0 "'ccmp' Pali-Sanskrit Descender Removal"  {"'ccmp' Pali-Sanskrit Descender Removal"  } ['ccmp' ('thai' <'PAL ' 'SAN ' > ) ]
Lookup: 6 0 0 "'ccmp' Thai General Composition"  {"'ccmp' Thai Below Vowel Tone Reordering"  "'ccmp' Thai General Composition"  } ['ccmp' ('DFLT' <'dflt' > 'thai' <'KUY ' 'MLY ' 'PAL ' 'SAN ' 'THA ' 'dflt' > ) ]
Lookup: 1 0 0 "Thai Descender Removal Single Substitution"  {"Thai Descender Removal Single Substitution" ("descless" ) } []
Lookup: 2 0 0 "Thai Sara Am Decomposition"  {"Thai Sara Am Decomposition"  } []
Lookup: 2 0 0 "Thai Tone Nikhahit Attachment"  {"Thai Tone Nikhahit Attachment"  } []
Lookup: 1 0 0 "Thai Sara Am Lakkhang"  {"Thai Sara Am Lakkhang"  } []
Lookup: 1 0 0 "Thai Tone Low Variant"  {"Thai Tone Low Variant" ("low" ) } []

StartChar: .notdef
Encoding: 65536 -1 0
Width: 766
VWidth: 2048
Flags: W
HStem: 0 95<192 575> 1193 95<192 575>
VStem: 95 97<95 1193> 575 96<95 1193>
LayerCount: 2
Fore
SplineSet
95 0 m 1
 95 1288 l 1
 671 1288 l 1
 671 0 l 1
 95 0 l 1
192 95 m 1
 575 95 l 1
 575 1193 l 1
 192 1193 l 1
 192 95 l 1
EndSplineSet
Validated: 1
EndChar

StartChar: exclam
Encoding: 33 33 2
Width: 277
VWidth: 2048
Flags: W
HStem: 0 100<90 192> 696 20G<86 195>
VStem: 86 109<0 100 459.481 716>
LayerCount: 2
Fore
SplineSet
113 178 m 1
 86 558 l 1
 86 716 l 1
 195 716 l 1
 195 558 l 1
 170 178 l 1
 113 178 l 1
90 0 m 1
 90 100 l 1
 192 100 l 1
 192 0 l 1
 90 0 l 1
EndSplineSet
Validated: 1
EndChar

StartChar: quotedbl
Encoding: 34 34 3
Width: 354
VWidth: 2048
Flags: W
HStem: 463 253<71 124 231 285>
VStem: 46 100<560.92 716> 71 53<463 501.08> 208 100<557.609 716> 231 54<463 504.391>
LayerCount: 2
Fore
SplineSet
71 463 m 1xa0
 46 599 l 1
 46 716 l 1
 146 716 l 1
 146 599 l 1xc0
 124 463 l 1
 71 463 l 1xa0
231 463 m 1x88
 208 599 l 1
 208 716 l 1
 308 716 l 1
 308 599 l 1x90
 285 463 l 1
 231 463 l 1x88
EndSplineSet
Validated: 1
EndChar

StartChar: numbersign
Encoding: 35 35 4
Width: 556
VWidth: 2048
Flags: W
HStem: -12 21G<51 128.038 277 355.135> 196 72<11 94 181 319 408 544> 446 72<11 144 231 371 460 544> 708 20G<197 274 423.905 501>
DStem2: 51 -12 124 -12 0.198662 0.980068<14.5024 212.397 300.245 467.347 555.195 755.05> 277 -12 351 -12 0.199934 0.979809<14.7951 212.198 300.538 467.546 555.887 755.249>
LayerCount: 2
Fore
SplineSet
51 -12 m 1
 94 196 l 1
 11 196 l 1
 11 268 l 1
 107 268 l 1
 144 446 l 1
 11 446 l 1
 11 518 l 1
 159 518 l 1
 201 728 l 1
 274 728 l 1
 231 518 l 1
 385 518 l 1
 428 728 l 1
 501 728 l 1
 460 518 l 1
 544 518 l 1
 544 446 l 1
 445 446 l 1
 408 268 l 1
 544 268 l 1
 544 196 l 1
 394 196 l 1
 351 -12 l 1
 277 -12 l 1
 319 196 l 1
 166 196 l 1
 124 -12 l 1
 51 -12 l 1
181 268 m 1
 334 268 l 1
 371 446 l 1
 218 446 l 1
 181 268 l 1
EndSplineSet
Validated: 1
EndChar

StartChar: dollar
Encoding: 36 36 5
Width: 556
VWidth: 2048
Flags: W
HStem: -15 75<191.399 250 300 358.558> 667 73<191.951 250 300 349.714>
VStem: 35 89<139.254 200.337> 51 87<480.151 613.052> 250 50<-103 -14 60 326 423 667 737.956 782> 402 90<562.911 610.303> 418 92<120.01 265.741>
LayerCount: 2
Fore
SplineSet
510 204 m 0xca
 510 73 419 -8 300 -14 c 1
 300 -103 l 1
 250 -103 l 1
 250 -15 l 1
 115 2 44 74 35 199 c 1
 124 216 l 1xea
 136 121 178 69 250 60 c 1
 250 339 l 1
 116 368 51 435 51 541 c 0
 51 662 130 728 250 740 c 1
 250 782 l 1
 300 782 l 1
 300 740 l 1
 414 730 477 670 492 564 c 1
 402 550 l 1xdc
 391 616 357 655 300 667 c 1
 300 412 l 1
 440 383 510 314 510 204 c 0xca
250 667 m 1
 169 656 138 593 138 547 c 0xd8
 138 487 175 446 250 423 c 1
 250 667 l 1
300 60 m 1
 370 68 418 120 418 198 c 0xca
 418 259 380 302 300 326 c 1
 300 60 l 1
EndSplineSet
Validated: 1
EndChar

StartChar: percent
Encoding: 37 37 6
Width: 889
VWidth: 2048
Flags: W
HStem: -26 60<626.103 721.941> 291 62<625.893 723.968> 349 62<161.194 259.222> 668 60<162.917 259.529>
VStem: 58 77<439.329 638.264> 288 77<440.637 639.971> 521 77<62.1767 261.383> 751 77<64.564 263.406>
DStem2: 212 -26 285 -26 0.461279 0.887255<33.6733 849.812>
LayerCount: 2
Fore
SplineSet
365 540 m 0xbf
 365 436 310 349 210 349 c 0
 109 349 58 431 58 544 c 0
 58 659 118 728 208 728 c 0
 304 728 365 658 365 540 c 0xbf
212 668 m 0
 159 668 135 624 135 535 c 0
 135 452 159 411 212 411 c 0
 262 411 288 454 288 543 c 0
 288 625 262 668 212 668 c 0
212 -26 m 1
 604 728 l 1
 674 728 l 1
 285 -26 l 1
 212 -26 l 1
673 -26 m 0
 577 -26 521 49 521 169 c 0
 521 288 589 353 671 353 c 0xdf
 773 353 828 272 828 162 c 0
 828 53 772 -26 673 -26 c 0
674 291 m 0
 624 291 598 248 598 159 c 0
 598 77 624 34 674 34 c 0
 725 34 751 78 751 166 c 0
 751 250 727 291 674 291 c 0
EndSplineSet
Validated: 1
EndChar

StartChar: ampersand
Encoding: 38 38 7
Width: 666
VWidth: 2048
Flags: W
HStem: -12 76<201.444 351.564> 656 72<248.233 362.978>
VStem: 43 95<126.793 268.362> 133 91<519.179 632.518> 388 90<516.264 631.321> 504 92<261.801 318.522>
DStem2: 296 458 213 412 0.625017 -0.780611<-135.639 -15.9683 72.465 281.112>
LayerCount: 2
Fore
SplineSet
311 728 m 0xdc
 422 728 478 652 478 575 c 0
 478 507 432 449 342 402 c 1
 471 238 l 1
 486 267 497 299 504 337 c 1
 596 317 l 1
 581 254 559 204 533 162 c 1
 566 120 602 83 644 54 c 1
 586 -17 l 1
 550 6 513 40 475 84 c 1
 417 20 349 -12 270 -12 c 0
 111 -12 43 109 43 198 c 0xec
 43 287 100 357 213 412 c 1
 159 474 133 526 133 569 c 0
 133 661 210 728 311 728 c 0xdc
307 656 m 0
 276 656 224 640 224 576 c 0xdc
 224 536 257 504 296 458 c 1
 357 494 388 532 388 573 c 0
 388 625 351 656 307 656 c 0
138 202 m 0xec
 138 122 201 64 271 64 c 0
 333 64 382 95 420 155 c 1
 259 354 l 1
 178 305 138 256 138 202 c 0xec
EndSplineSet
Validated: 1
EndChar

StartChar: quotesingle
Encoding: 39 39 8
Width: 190
VWidth: 2048
Flags: W
HStem: 463 253<66 121>
VStem: 44 100<555.522 716> 66 55<463 503.478>
LayerCount: 2
Fore
SplineSet
66 463 m 1xa0
 44 596 l 1
 44 716 l 1
 144 716 l 1
 144 596 l 1xc0
 121 463 l 1
 66 463 l 1xa0
EndSplineSet
Validated: 1
EndChar

StartChar: parenleft
Encoding: 40 40 9
Width: 332
VWidth: 2048
Flags: W
HStem: -210 21G<176.5 297> 708 20G<176.5 297>
VStem: 61 91<90.579 423.794>
LayerCount: 2
Fore
SplineSet
235 -210 m 1
 118 -64 61 92 61 259 c 0
 61 418 118 575 235 728 c 1
 297 728 l 1
 199 569 152 412 152 259 c 0
 152 103 199 -54 297 -210 c 1
 235 -210 l 1
EndSplineSet
Validated: 1
EndChar

StartChar: parenright
Encoding: 41 41 10
Width: 332
VWidth: 2048
Flags: W
HStem: -210 21G<61 181.5> 708 20G<61 181.5>
VStem: 207 90<91.0231 424.828>
LayerCount: 2
Fore
SplineSet
207 259 m 0
 207 461 147 580 61 728 c 1
 124 728 l 1
 239 575 297 418 297 259 c 0
 297 94 239 -64 124 -210 c 1
 61 -210 l 1
 158 -54 207 103 207 259 c 0
EndSplineSet
Validated: 1
EndChar

StartChar: asterisk
Encoding: 42 42 11
Width: 387
VWidth: 2048
Flags: W
HStem: 423 305
VStem: 158 69<609.707 728>
LayerCount: 2
Fore
SplineSet
32 584 m 1
 54 655 l 1
 106 636 144 621 167 607 c 1
 161 665 158 707 158 728 c 1
 227 728 l 1
 227 696 222 656 216 607 c 1
 250 624 288 639 331 655 c 1
 354 584 l 1
 313 572 273 563 233 558 c 1
 253 540 281 509 317 464 c 1
 258 423 l 1
 239 449 216 484 192 529 c 1
 167 483 146 448 127 423 c 1
 69 464 l 1
 107 512 135 543 152 558 c 1
 109 566 69 575 32 584 c 1
EndSplineSet
Validated: 1
EndChar

StartChar: plus
Encoding: 43 43 12
Width: 583
VWidth: 2048
Flags: W
HStem: 313 81<55 251 334 529> 569 20G<251 334>
VStem: 251 83<116 313 394 589>
LayerCount: 2
Fore
SplineSet
251 116 m 1
 251 313 l 1
 55 313 l 1
 55 394 l 1
 251 394 l 1
 251 589 l 1
 334 589 l 1
 334 394 l 1
 529 394 l 1
 529 313 l 1
 334 313 l 1
 334 116 l 1
 251 116 l 1
EndSplineSet
Validated: 1
EndChar

StartChar: comma
Encoding: 44 44 13
Width: 277
VWidth: 2048
Flags: W
HStem: 0 100<89 138>
VStem: 89 101<0 100> 138 52<-77.0449 0>
LayerCount: 2
Fore
SplineSet
89 0 m 1xc0
 89 100 l 1
 190 100 l 1
 190 0 l 2xc0
 190 -71 162 -118 107 -141 c 1
 83 -104 l 1
 118 -89 136 -54 138 0 c 1xa0
 89 0 l 1xc0
EndSplineSet
Validated: 1
EndChar

StartChar: hyphen
Encoding: 45 45 14
AltUni2: 002010.ffffffff.0
Width: 332
VWidth: 2048
Flags: W
HStem: 215 88<32 302>
VStem: 32 270<215 303>
LayerCount: 2
Fore
SplineSet
32 215 m 1
 32 303 l 1
 302 303 l 1
 302 215 l 1
 32 215 l 1
EndSplineSet
Validated: 1
EndChar

StartChar: period
Encoding: 46 46 15
Width: 277
VWidth: 2048
Flags: W
HStem: 0 100<90 192>
VStem: 90 102<0 100>
LayerCount: 2
Fore
SplineSet
90 0 m 1
 90 100 l 1
 192 100 l 1
 192 0 l 1
 90 0 l 1
EndSplineSet
Validated: 1
EndChar

StartChar: slash
Encoding: 47 47 16
Width: 277
VWidth: 2048
Flags: W
HStem: -12 21G<0 76.5676> 708 20G<201.405 277>
VStem: 0 277
DStem2: 0 -12 71 -12 0.269389 0.963032<19.1266 768.407>
LayerCount: 2
Fore
SplineSet
0 -12 m 1
 207 728 l 1
 277 728 l 1
 71 -12 l 1
 0 -12 l 1
EndSplineSet
Validated: 1
EndChar

StartChar: zero
Encoding: 48 48 17
Width: 556
VWidth: 2048
Flags: W
HStem: -12 72<208.702 339.365> 658 72<208.306 338.969>
VStem: 41 89<179.379 537.786> 420 89<179.379 537.786>
LayerCount: 2
Fore
SplineSet
41 358 m 0
 41 603 120 730 276 730 c 0
 431 730 509 603 509 358 c 0
 509 115 431 -12 276 -12 c 0
 120 -12 41 115 41 358 c 0
130 358 m 0
 130 163 179 60 276 60 c 0
 371 60 420 163 420 358 c 0
 420 554 371 658 274 658 c 0
 179 658 130 554 130 358 c 0
EndSplineSet
Validated: 1
EndChar

StartChar: one
Encoding: 49 49 18
Width: 556
VWidth: 2048
Flags: W
HStem: 0 21G<285 374> 696 20G<298.5 374>
VStem: 285 89<0 558> 316 58<679.944 716>
LayerCount: 2
Back
SplineSet
372 0 m 1
 285 0 l 1
 285 561 l 5
 238 515 179 480 109 454 c 5
 109 540 l 5
 212 587 281 647 316 719 c 5
 372 719 l 5
 372 0 l 1
EndSplineSet
Fore
SplineSet
374 0 m 1xe0
 285 0 l 1
 285 558 l 1xe0
 238 512 179 477 109 451 c 1
 109 537 l 1
 212 584 281 644 316 716 c 1
 374 716 l 1xd0
 374 0 l 1xe0
EndSplineSet
Validated: 1
EndChar

StartChar: two
Encoding: 50 50 19
Width: 556
VWidth: 2048
Flags: W
HStem: 0 72<139 501> 658 72<193.082 353.172>
VStem: 44 91<522.308 598.553> 412 89<462.282 601.805>
LayerCount: 2
Back
SplineSet
501 520 m 0
 501 330 228 213 150 84 c 1
 501 84 l 1
 501 0 l 1
 28 0 l 1
 28 145 247 285 307 348 c 0
 359 402 412 465 412 523 c 0
 412 598 351 647 276 647 c 0
 189 647 135 593 135 503 c 1
 44 512 l 1
 57 650 135 719 277 719 c 0
 408 719 501 643 501 520 c 0
EndSplineSet
Fore
SplineSet
501 531 m 0
 501 341 217 201 139 72 c 1
 501 72 l 1
 501 0 l 1
 28 0 l 1
 28 145 247 290 307 353 c 0
 359 407 412 476 412 534 c 0
 412 609 351 658 276 658 c 0
 189 658 135 604 135 514 c 1
 44 523 l 1
 57 661 135 730 277 730 c 0
 408 730 501 654 501 531 c 0
EndSplineSet
Validated: 1
EndChar

StartChar: three
Encoding: 51 51 20
Width: 556
VWidth: 2048
Flags: W
HStem: -12 72<198.136 345.908> 344 76<225 276.247> 354 66<225 326.793> 526 21G<51 145> 658 72<195.377 338.232>
VStem: 41 89<140.839 193.865> 385 89<474.608 612.312> 417 89<130.121 291.284>
LayerCount: 2
Back
SplineSet
506 212 m 0xdd
 506 68 399 -12 270 -12 c 0
 130 -12 55 74 41 190 c 1
 130 201 l 1
 149 107 196 60 270 60 c 0
 359 60 417 126 417 210 c 0
 417 293 361 349 277 349 c 0xbd
 261 349 241 345 216 339 c 1
 225 415 l 1
 247 415 l 2
 323 415 385 461 385 535 c 0
 385 606 333 647 268 647 c 4
 195 647 152 604 138 518 c 1
 51 533 l 1
 74 658 146 719 267 719 c 4
 394 719 474 641 474 533 c 0xde
 474 466 440 418 374 388 c 1
 463 368 506 308 506 212 c 0xdd
EndSplineSet
Fore
SplineSet
506 215 m 0xdd
 506 71 399 -12 270 -12 c 0
 130 -12 55 77 41 193 c 1
 130 204 l 1
 149 110 196 60 270 60 c 0
 359 60 417 129 417 213 c 0
 417 296 361 354 277 354 c 0xbd
 261 354 241 350 216 344 c 1
 225 420 l 1
 247 420 l 2
 323 420 385 469 385 543 c 0
 385 614 333 658 268 658 c 0
 195 658 152 612 138 526 c 1
 51 541 l 1
 74 666 146 730 267 730 c 0
 394 730 474 649 474 541 c 0xde
 474 474 440 423 374 393 c 1
 463 373 506 311 506 215 c 0xdd
EndSplineSet
Validated: 1
EndChar

StartChar: four
Encoding: 52 52 21
Width: 556
VWidth: 2048
Flags: W
HStem: 0 21G<323 412> 181 72<100 323 412 509> 696 20G<325.832 412>
VStem: 323 89<0 181 253 575>
DStem2: 12 253 100 253 0.578066 0.81599<50.8698 442.527>
LayerCount: 2
Back
SplineSet
323 0 m 1
 323 172 l 5
 12 172 l 5
 12 253 l 1
 340 716 l 1
 412 716 l 1
 412 253 l 1
 509 253 l 1
 509 172 l 5
 412 172 l 5
 412 0 l 1
 323 0 l 1
323 253 m 1
 323 575 l 1
 100 253 l 1
 323 253 l 1
EndSplineSet
Fore
SplineSet
323 0 m 1
 323 181 l 1
 12 181 l 1
 12 253 l 1
 340 716 l 1
 412 716 l 1
 412 253 l 1
 509 253 l 1
 509 181 l 1
 412 181 l 1
 412 0 l 1
 323 0 l 1
323 253 m 1
 323 575 l 1
 100 253 l 1
 323 253 l 1
EndSplineSet
Validated: 1
EndChar

StartChar: five
Encoding: 53 53 22
Width: 556
VWidth: 2048
Flags: W
HStem: -12 72<193.67 345.171> 404 72<195.242 353.55> 644 72<198 483>
VStem: 41 92<128.319 189.457> 423 89<142.159 330.259>
DStem2: 57 343 159 433 0.184448 0.982842<4.31344 43.0221 107.269 321.843>
LayerCount: 2
Back
SplineSet
423 235 m 0
 423 303 392 397 270 397 c 0
 213 397 170 374 139 328 c 1
 57 339 l 1
 127 707 l 5
 483 707 l 5
 483 622 l 5
 196 622 l 5
 159 429 l 1
 202 460 247 475 293 475 c 0
 434 475 517 374 517 242 c 0
 517 100 423 -12 271 -12 c 0
 143 -12 55 62 41 189 c 1
 133 195 l 1
 147 106 193 60 271 60 c 0
 355 60 423 126 423 235 c 0
EndSplineSet
Fore
SplineSet
423 237 m 0
 423 305 392 404 270 404 c 0
 213 404 170 378 139 332 c 1
 57 343 l 1
 127 716 l 1
 483 716 l 1
 483 644 l 1
 198 644 l 1
 159 433 l 1
 202 464 247 476 293 476 c 0
 434 476 512 376 512 244 c 0
 512 102 423 -12 271 -12 c 0
 143 -12 55 62 41 189 c 1
 133 195 l 1
 147 106 193 60 271 60 c 0
 355 60 423 128 423 237 c 0
EndSplineSet
Validated: 1
EndChar

StartChar: six
Encoding: 54 54 23
Width: 556
VWidth: 2048
Flags: W
HStem: -12 72<213.556 352.845> 394 72<204.848 354.995> 658 72<218.25 356.584>
VStem: 37 89<374 527.589> 411 87<548.517 597.66> 420 89<135.271 327.288>
LayerCount: 2
Back
SplineSet
509 233 m 0xf4
 509 88 422 -12 287 -12 c 0
 121 -12 37 104 37 336 c 0
 37 592 123 719 294 719 c 0
 457 719 489 598 498 541 c 1
 411 535 l 1xf8
 394 609 354 647 288 647 c 0
 169 647 126 519 126 369 c 1
 167 434 225 464 299 464 c 4
 426 464 509 364 509 233 c 0xf4
282 386 m 0
 167 386 138 286 138 231 c 0
 138 134 197 60 285 60 c 0
 369 60 420 132 420 227 c 0xf4
 420 353 342 386 282 386 c 0
EndSplineSet
Fore
SplineSet
509 236 m 0xf4
 509 91 422 -12 287 -12 c 0
 121 -12 37 109 37 341 c 0
 37 597 123 730 294 730 c 0
 457 730 489 606 498 549 c 1
 411 543 l 1xf8
 394 617 354 658 288 658 c 0
 169 658 126 524 126 374 c 1
 167 439 225 466 299 466 c 0
 426 466 509 367 509 236 c 0xf4
282 394 m 0
 167 394 138 289 138 234 c 0
 138 137 197 60 285 60 c 0
 369 60 420 135 420 230 c 0xf4
 420 356 342 394 282 394 c 0
EndSplineSet
Validated: 1
EndChar

StartChar: seven
Encoding: 55 55 24
Width: 556
VWidth: 2048
Flags: W
HStem: 0 21G<147 246.5> 644 72<48 399>
VStem: 147 91<0 148.008>
LayerCount: 2
Back
SplineSet
48 622 m 1
 48 707 l 1
 510 707 l 1
 510 639 l 1
 435 558 372 458 322 343 c 0
 273 227 245 112 238 0 c 1
 147 0 l 1
 150 106 175 216 222 331 c 0
 268 443 326 541 399 622 c 1
 48 622 l 1
EndSplineSet
Fore
SplineSet
147 0 m 1
 154 240 277 509 399 644 c 1
 48 644 l 1
 48 716 l 1
 510 716 l 1
 510 661 l 1
 386 528 255 265 238 0 c 1
 147 0 l 1
EndSplineSet
Validated: 1
EndChar

StartChar: eight
Encoding: 56 56 25
Width: 556
VWidth: 2048
Flags: W
HStem: -12 72<198.757 356.472> 356 72<206.589 348.525> 658 72<208.781 343.925>
VStem: 41 89<129.899 286.502> 70 89<474.62 611.828> 393 89<472.14 610.296> 423 89<126.537 286.315>
LayerCount: 2
Back
SplineSet
276 -12 m 0xe2
 138 -12 41 76 41 207 c 0xf2
 41 303 86 365 176 388 c 1
 106 415 70 463 70 535 c 0
 70 627 136 719 276 719 c 4
 404 719 482 640 482 532 c 0xec
 482 463 448 415 379 388 c 1
 468 359 512 297 512 205 c 0
 512 69 407 -12 276 -12 c 0xe2
276 647 m 4
 225 647 159 614 159 538 c 0
 159 468 207 422 277 422 c 0
 346 422 393 466 393 533 c 0xec
 393 605 339 647 276 647 c 4
274 351 m 0
 187 351 130 282 130 207 c 0
 130 111 201 60 277 60 c 0
 364 60 423 120 423 204 c 0xf2
 423 292 358 351 274 351 c 0
EndSplineSet
Fore
SplineSet
276 -12 m 0xe2
 138 -12 41 79 41 210 c 0xf2
 41 306 86 370 176 393 c 1
 106 420 70 471 70 543 c 0
 70 635 136 730 276 730 c 0
 404 730 482 648 482 540 c 0xec
 482 471 448 420 379 393 c 1
 468 364 512 300 512 208 c 0
 512 72 407 -12 276 -12 c 0xe2
276 658 m 0
 225 658 159 622 159 546 c 0
 159 476 207 428 277 428 c 0
 346 428 393 474 393 541 c 0xec
 393 613 339 658 276 658 c 0
274 356 m 0
 187 356 130 285 130 210 c 0
 130 114 201 60 277 60 c 0
 364 60 423 123 423 207 c 0xf2
 423 295 358 356 274 356 c 0
EndSplineSet
Validated: 1
EndChar

StartChar: nine
Encoding: 57 57 26
Width: 556
VWidth: 2048
Flags: W
HStem: -12 72<188.399 329.82> 250 72<202.977 348.144> 658 72<204.679 346.027>
VStem: 41 89<397.328 574.94> 55 84<114.839 169.583> 423 89<190.411 342>
LayerCount: 2
Back
SplineSet
254 242 m 0xec
 129 242 41 341 41 478 c 0xf4
 41 614 123 719 267 719 c 0
 416 719 512 628 512 372 c 0
 512 116 428 -12 256 -12 c 0
 144 -12 69 53 55 166 c 1
 139 173 l 1
 153 98 192 60 258 60 c 0
 397 60 423 232 423 290 c 2
 423 337 l 1
 383 274 328 242 254 242 c 0xec
276 320 m 0
 365 320 415 392 415 481 c 0
 415 572 363 647 277 647 c 0
 192 647 130 572 130 475 c 0
 130 375 200 320 276 320 c 0
EndSplineSet
Fore
SplineSet
254 250 m 0xec
 129 250 41 349 41 486 c 0xf4
 41 622 123 730 267 730 c 0
 416 730 512 633 512 377 c 0
 512 121 428 -12 256 -12 c 0
 144 -12 69 56 55 169 c 1
 139 176 l 1
 153 101 192 60 258 60 c 0
 397 60 423 237 423 295 c 2
 423 342 l 1
 383 279 328 250 254 250 c 0xec
276 322 m 0
 365 322 415 400 415 489 c 0
 415 580 363 658 277 658 c 0
 192 658 130 580 130 483 c 0
 130 383 200 322 276 322 c 0
EndSplineSet
Validated: 1
EndChar

StartChar: colon
Encoding: 58 58 27
Width: 277
VWidth: 2048
Flags: W
HStem: 0 100<90 192> 418 100<90 192>
VStem: 90 102<0 100 418 518>
LayerCount: 2
Fore
SplineSet
90 418 m 1
 90 518 l 1
 192 518 l 1
 192 418 l 1
 90 418 l 1
90 0 m 1
 90 100 l 1
 192 100 l 1
 192 0 l 1
 90 0 l 1
EndSplineSet
Validated: 1
EndChar

StartChar: semicolon
Encoding: 59 59 28
Width: 277
VWidth: 2048
Flags: W
HStem: 0 100<89 138> 418 100<89 190>
VStem: 89 101<0 100 418 518> 138 52<-77.0449 0>
LayerCount: 2
Fore
SplineSet
89 418 m 1xe0
 89 518 l 1
 190 518 l 1
 190 418 l 1
 89 418 l 1xe0
89 0 m 1
 89 100 l 1
 190 100 l 1
 190 0 l 2xe0
 190 -71 162 -118 107 -141 c 1
 83 -104 l 1
 118 -89 136 -54 138 0 c 1xd0
 89 0 l 1
EndSplineSet
Validated: 1
EndChar

StartChar: less
Encoding: 60 60 29
Width: 583
VWidth: 2048
Flags: W
HStem: 576 20G<481.836 529>
DStem2: 55 395 153 354 0.920645 0.3904<74.2168 480.891> 153 354 55 313 0.919245 -0.393685<0 407.051>
LayerCount: 2
Fore
SplineSet
55 313 m 1
 55 395 l 1
 529 596 l 1
 529 509 l 1
 153 354 l 1
 529 198 l 1
 529 110 l 1
 55 313 l 1
EndSplineSet
Validated: 1
EndChar

StartChar: equal
Encoding: 61 61 30
Width: 583
VWidth: 2048
Flags: W
HStem: 215 72<55 529> 431 72<55 529>
LayerCount: 2
Fore
SplineSet
529 431 m 1
 55 431 l 1
 55 503 l 1
 529 503 l 1
 529 431 l 1
529 215 m 1
 55 215 l 1
 55 287 l 1
 529 287 l 1
 529 215 l 1
EndSplineSet
Validated: 1
EndChar

StartChar: greater
Encoding: 62 62 31
Width: 583
VWidth: 2048
Flags: W
HStem: 576 20G<55 102.164>
DStem2: 55 596 55 509 0.920645 -0.3904<33.9648 440.639> 55 198 55 110 0.919245 0.393685<0 407.051>
LayerCount: 2
Fore
SplineSet
529 313 m 1
 55 110 l 1
 55 198 l 1
 431 354 l 1
 55 509 l 1
 55 596 l 1
 529 395 l 1
 529 313 l 1
EndSplineSet
Validated: 1
EndChar

StartChar: question
Encoding: 63 63 32
Width: 556
VWidth: 2048
Flags: W
HStem: 0 100<225 325> 656 72<199.09 355.84>
VStem: 44 91<520.154 580.634> 225 100<0 100 176 295.443> 416 89<469.088 597.523>
LayerCount: 2
Fore
SplineSet
416 527 m 0
 416 605 353 656 277 656 c 0
 198 656 150 609 135 510 c 1
 44 521 l 1
 61 659 138 728 276 728 c 0
 402 728 505 660 505 533 c 0
 505 436 395 369 353 308 c 0
 332 277 320 236 319 176 c 1
 230 176 l 1
 230 217 l 2
 230 276 260 329 279 349 c 0
 312 385 416 458 416 527 c 0
225 0 m 1
 225 100 l 1
 325 100 l 1
 325 0 l 1
 225 0 l 1
EndSplineSet
Validated: 1
EndChar

StartChar: at
Encoding: 64 64 33
Width: 1014
VWidth: 2048
Flags: W
HStem: -210 72<387.812 706.871> -2 72<377.822 495.227 631.5 753.003> 458 72<433.71 563.253> 498 20G<654.385 746> 658 72<401.332 670.331>
VStem: 54 73<101.744 374.818> 241 90<122.598 323.256> 613 48<112 317> 883 73<240.63 460.749>
LayerCount: 2
Fore
SplineSet
979 9 m 1xdf80
 917 -128 741 -210 549 -210 c 0
 170 -210 54 21 54 228 c 0
 54 473 202 730 538 730 c 0
 779 730 956 578 956 348 c 0
 956 187 830 -2 662 -2 c 0
 601 -2 569 25 567 80 c 1
 521 26 471 -2 417 -2 c 0
 310 -2 241 94 241 218 c 0
 241 381 367 530 494 530 c 0xef80
 556 530 605 500 641 440 c 1
 659 518 l 1
 746 518 l 1
 674 189 l 2
 664 144 661 118 661 112 c 0
 661 90 671 70 694 70 c 0
 777 70 883 210 883 349 c 0
 883 537 737 658 535 658 c 0
 287 658 127 471 127 238 c 0
 127 36 246 -138 547 -138 c 0
 708 -138 823 -89 892 9 c 1
 979 9 l 1xdf80
613 317 m 0
 613 402 568 458 500 458 c 0
 393 458 331 315 331 212 c 0
 331 132 373 70 435 70 c 0
 542 70 613 200 613 317 c 0
EndSplineSet
Validated: 1
EndChar

StartChar: A
Encoding: 65 65 34
Width: 666
VWidth: 2048
Flags: W
HStem: 0 21G<-2 107.664 558.336 668> 214 84<214 452> 696 20G<278.927 387.073>
DStem2: -2 0 100 0 0.374292 0.927311<38.1778 267.314 357.186 357.186 577.406 709.242> 379 716 374 504 0.374292 -0.927311<54.4302 414.939>
LayerCount: 2
Back
SplineSet
-2 0 m 1
 274 716 l 1
 376 716 l 1
 670 0 l 1
 561 0 l 1
 478 218 l 1
 178 218 l 1
 100 0 l 1
 -2 0 l 1
205 294 m 1
 448 294 l 1
 374 492 l 2
 349 558 333 607 322 641 c 1
 314 596 300 550 284 504 c 2
 205 294 l 1
EndSplineSet
Fore
SplineSet
287 716 m 1
 379 716 l 1
 668 0 l 1
 566 0 l 1
 484 214 l 1
 182 214 l 1
 100 0 l 1
 -2 0 l 1
 287 716 l 1
214 298 m 1
 452 298 l 1
 374 504 l 2
 357 550 341 596 333 641 c 1
 325 596 309 550 292 504 c 2
 214 298 l 1
EndSplineSet
Validated: 1
EndChar

StartChar: B
Encoding: 66 66 35
Width: 666
VWidth: 2048
Flags: W
HStem: 0 84<169 457.175> 331 84<169 437.095> 632 84<169 442.841>
VStem: 74 95<84 331 415 632> 485 95<455.488 593.143> 517 95<134.904 281.506>
LayerCount: 2
Fore
SplineSet
342 716 m 2xf4
 445 716 580 679 580 533 c 0xf8
 580 464 546 414 478 382 c 1
 569 354 612 297 612 207 c 0
 612 69 526 0 346 0 c 2
 74 0 l 1
 74 716 l 1
 342 716 l 2xf4
323 415 m 2
 449 415 485 457 485 521 c 0
 485 619 418 632 311 632 c 2
 169 632 l 1
 169 415 l 1
 323 415 l 2
517 207 m 0xf4
 517 281 480 331 334 331 c 2
 169 331 l 1
 169 84 l 1
 346 84 l 2
 475 84 517 133 517 207 c 0xf4
EndSplineSet
Validated: 1
EndChar

StartChar: C
Encoding: 67 67 36
Width: 721
VWidth: 2048
Flags: W
HStem: -12 84<275.109 480.618> 646 84<279.712 483.296>
VStem: 52 95<222.514 499.89>
LayerCount: 2
Fore
SplineSet
147 364 m 0
 147 192 219 72 379 72 c 0
 492 72 563 130 589 251 c 1
 684 227 l 1
 642 67 543 -12 386 -12 c 0
 170 -12 52 132 52 364 c 0
 52 591 176 730 388 730 c 0
 536 730 630 660 671 521 c 1
 578 499 l 1
 546 599 481 646 386 646 c 0
 226 646 147 537 147 364 c 0
EndSplineSet
Validated: 1
EndChar

StartChar: D
Encoding: 68 68 37
Width: 721
VWidth: 2048
Flags: W
HStem: 0 84<172 449.076> 632 84<172 446.559>
VStem: 77 95<84 632> 573 95<212.695 506.219>
LayerCount: 2
Fore
SplineSet
77 0 m 1
 77 716 l 1
 323 716 l 2
 570 716 668 594 668 362 c 0
 668 121 558 0 336 0 c 2
 77 0 l 1
172 84 m 1
 325 84 l 2
 515 84 573 184 573 363 c 0
 573 544 508 632 322 632 c 2
 172 632 l 1
 172 84 l 1
EndSplineSet
Validated: 1
EndChar

StartChar: E
Encoding: 69 69 38
Width: 666
VWidth: 2048
Flags: W
HStem: 0 84<175 613> 328 84<175 570> 632 84<175 598>
VStem: 80 95<84 328 412 632>
LayerCount: 2
Fore
SplineSet
80 0 m 1
 80 716 l 1
 598 716 l 1
 598 632 l 1
 175 632 l 1
 175 412 l 1
 570 412 l 1
 570 328 l 1
 175 328 l 1
 175 84 l 1
 613 84 l 1
 613 0 l 1
 80 0 l 1
EndSplineSet
Validated: 1
EndChar

StartChar: F
Encoding: 70 70 39
Width: 610
VWidth: 2048
Flags: W
HStem: 0 21G<83 178> 327 84<178 512> 632 84<178 566>
VStem: 83 95<0 327 411 632>
LayerCount: 2
Fore
SplineSet
83 0 m 1
 83 716 l 1
 566 716 l 1
 566 632 l 1
 178 632 l 1
 178 411 l 1
 512 411 l 1
 512 327 l 1
 178 327 l 1
 178 0 l 1
 83 0 l 1
EndSplineSet
Validated: 1
EndChar

StartChar: G
Encoding: 71 71 40
Width: 777
VWidth: 2048
Flags: W
HStem: -12 84<299.119 534.037> 281 84<412 621> 646 84<297.057 516.279>
VStem: 56 95<229.331 495.868> 619 86<514.128 545.739> 621 95<129.709 281>
LayerCount: 2
Fore
SplineSet
151 361 m 0xf8
 151 181 243 72 414 72 c 0
 497 72 566 98 621 147 c 1
 621 281 l 1
 412 281 l 1
 412 365 l 1
 716 365 l 1
 716 100 l 1xf4
 622 25 523 -12 418 -12 c 0
 128 -12 56 199 56 355 c 0
 56 593 190 730 412 730 c 0
 573 730 671 659 705 516 c 1
 619 493 l 1
 590 597 521 646 412 646 c 0
 290 646 151 591 151 361 c 0xf8
EndSplineSet
Validated: 1
EndChar

StartChar: H
Encoding: 72 72 41
Width: 721
VWidth: 2048
Flags: W
HStem: 0 21G<80 175 547 642> 338 84<175 547> 696 20G<80 175 547 642>
VStem: 80 95<0 338 422 716> 547 95<0 338 422 716>
LayerCount: 2
Fore
SplineSet
80 0 m 1
 80 716 l 1
 175 716 l 1
 175 422 l 1
 547 422 l 1
 547 716 l 1
 642 716 l 1
 642 0 l 1
 547 0 l 1
 547 338 l 1
 175 338 l 1
 175 0 l 1
 80 0 l 1
EndSplineSet
Validated: 1
EndChar

StartChar: I
Encoding: 73 73 42
Width: 277
VWidth: 2048
Flags: W
HStem: 0 21G<94 189> 696 20G<94 189>
VStem: 94 95<0 716>
LayerCount: 2
Fore
SplineSet
94 0 m 1
 94 716 l 1
 189 716 l 1
 189 0 l 1
 94 0 l 1
EndSplineSet
Validated: 1
EndChar

StartChar: J
Encoding: 74 74 43
Width: 499
VWidth: 2048
Flags: W
HStem: -12 84<155.505 289.807> 696 20G<325 420>
VStem: 28 84<122.556 204> 325 95<106.369 716>
LayerCount: 2
Fore
SplineSet
219 72 m 0
 318 72 325 139 325 224 c 2
 325 716 l 1
 420 716 l 1
 420 228 l 2
 420 67 354 -12 219 -12 c 0
 84 -12 28 61 28 204 c 1
 112 215 l 1
 116 120 152 72 219 72 c 0
EndSplineSet
Validated: 1
EndChar

StartChar: K
Encoding: 75 75 44
Width: 666
VWidth: 2048
Flags: W
HStem: 0 21G<74 169 526.856 665> 696 20G<74 169 504.056 651>
VStem: 74 95<0 248 360 716>
DStem2: 169 360 169 248 0.717449 0.696611<0 84.6174 176.552 502.688>
LayerCount: 2
Fore
SplineSet
74 0 m 1
 74 716 l 1
 169 716 l 1
 169 360 l 1
 524 716 l 1
 651 716 l 1
 351 426 l 1
 665 0 l 1
 541 0 l 1
 285 362 l 1
 169 248 l 1
 169 0 l 1
 74 0 l 1
EndSplineSet
Validated: 1
EndChar

StartChar: L
Encoding: 76 76 45
Width: 556
VWidth: 2048
Flags: W
HStem: 0 84<169 521> 696 20G<74 169>
VStem: 74 95<84 716>
LayerCount: 2
Fore
SplineSet
74 0 m 1
 74 716 l 1
 169 716 l 1
 169 84 l 1
 521 84 l 1
 521 0 l 1
 74 0 l 1
EndSplineSet
Validated: 1
EndChar

StartChar: M
Encoding: 77 77 46
Width: 832
VWidth: 2048
Flags: W
HStem: 0 21G<75 170 366.289 465.711 662 757> 696 20G<75 228.521 603.479 757>
VStem: 75 95<0 605> 662 95<0 605>
DStem2: 222 716 170 605 0.318108 -0.948055<88.6925 625.805> 416 121 459 0 0.318108 0.948055<0 537.113>
LayerCount: 2
Back
SplineSet
74 0 m 1
 74 716 l 1
 218 716 l 5
 420 103 l 1
 630 716 l 1
 757 716 l 1
 757 0 l 1
 667 0 l 1
 667 599 l 1
 458 0 l 1
 372 0 l 1
 166 610 l 5
 166 0 l 5
 74 0 l 1
EndSplineSet
Fore
SplineSet
75 0 m 1
 75 716 l 1
 222 716 l 1
 416 121 l 1
 610 716 l 1
 757 716 l 1
 757 0 l 1
 662 0 l 1
 662 605 l 1
 459 0 l 1
 373 0 l 1
 170 605 l 1
 170 0 l 1
 75 0 l 1
EndSplineSet
Validated: 1
EndChar

StartChar: N
Encoding: 78 78 47
Width: 721
VWidth: 2048
Flags: W
HStem: 0 21G<77 172 526.927 641> 696 20G<77 191.119 546 641>
VStem: 77 95<0 563> 546 95<155 716>
DStem2: 178 716 172 563 0.547129 -0.837048<124.786 670.928>
LayerCount: 2
Fore
SplineSet
77 0 m 1
 77 716 l 1
 178 716 l 1
 546 155 l 1
 546 716 l 1
 641 716 l 1
 641 0 l 1
 540 0 l 1
 172 563 l 1
 172 0 l 1
 77 0 l 1
EndSplineSet
Validated: 1
EndChar

StartChar: O
Encoding: 79 79 48
Width: 777
VWidth: 2048
Flags: W
HStem: -12 84<287.755 492.245> 646 84<282.481 497.519>
VStem: 49 95<229.268 492.921> 636 95<229.268 492.921>
LayerCount: 2
Back
SplineSet
390 -12 m 0
 181 -12 49 146 49 349 c 0
 49 570 166 730 390 730 c 0
 565 730 731 609 731 357 c 0
 731 62 521 -12 390 -12 c 0
390 646 m 0
 193 646 144 490 144 349 c 0
 144 191 235 72 390 72 c 0
 547 72 636 193 636 357 c 0
 636 587 495 646 390 646 c 0
EndSplineSet
Fore
SplineSet
390 730 m 0
 614 730 731 570 731 349 c 0
 731 146 599 -12 390 -12 c 0
 181 -12 49 146 49 349 c 0
 49 570 166 730 390 730 c 0
390 72 m 0
 545 72 636 191 636 349 c 0
 636 490 587 646 390 646 c 0
 193 646 144 490 144 349 c 0
 144 191 235 72 390 72 c 0
EndSplineSet
Validated: 1
EndChar

StartChar: P
Encoding: 80 80 49
Width: 666
VWidth: 2048
Flags: W
HStem: 0 21G<77 172> 292 84<172 466.134> 632 84<172 476.302>
VStem: 77 95<0 292 376 632> 526 95<429.022 584.916>
LayerCount: 2
Fore
SplineSet
77 0 m 1
 77 716 l 1
 348 716 l 2
 522 716 621 661 621 509 c 0
 621 363 535 292 356 292 c 2
 172 292 l 1
 172 0 l 1
 77 0 l 1
526 506 m 0
 526 607 465 632 356 632 c 2
 172 632 l 1
 172 376 l 1
 357 376 l 2
 469 376 526 418 526 506 c 0
EndSplineSet
Validated: 1
EndChar

StartChar: Q
Encoding: 81 81 50
Width: 777
VWidth: 2048
Flags: W
HStem: -12 84<282.566 479.131> 646 84<280.369 489.669>
VStem: 43 95<230.243 493.722> 633 95<227.622 488.07>
LayerCount: 2
Fore
SplineSet
43 359 m 0
 43 583 174 730 386 730 c 0
 600 730 728 589 728 359 c 0
 728 241 691 146 619 77 c 1
 664 46 705 25 742 11 c 1
 714 -55 l 1
 662 -37 612 -8 559 32 c 1
 507 3 448 -12 383 -12 c 0
 180 -12 43 134 43 359 c 0
138 359 m 0
 138 186 228 72 386 72 c 0
 420 72 452 75 481 89 c 1
 452 107 422 121 388 129 c 1
 412 198 l 1
 466 182 510 159 546 129 c 1
 602 181 633 256 633 359 c 0
 633 529 543 646 386 646 c 0
 232 646 138 540 138 359 c 0
EndSplineSet
Validated: 1
EndChar

StartChar: R
Encoding: 82 82 51
Width: 721
VWidth: 2048
Flags: W
HStem: 0 21G<78 173 577.517 710> 316 84<173 371.308> 632 84<173 502.311>
VStem: 78 95<0 316 400 632> 556 95<450.637 586.471>
DStem2: 586 195 497 149 0.536595 -0.84384<-137.176 166.695>
LayerCount: 2
Fore
SplineSet
78 0 m 1
 78 716 l 1
 395 716 l 2
 569 716 651 670 651 518 c 0
 651 406 584 343 449 325 c 1
 498 305 543 261 586 195 c 2
 710 0 l 1
 590 0 l 1
 497 149 l 2
 441 238 395 316 284 316 c 2
 173 316 l 1
 173 0 l 1
 78 0 l 1
173 400 m 1
 377 400 l 2
 495 400 556 437 556 518 c 0
 556 595 503 632 400 632 c 2
 173 632 l 1
 173 400 l 1
EndSplineSet
Validated: 1
EndChar

StartChar: S
Encoding: 83 83 52
Width: 666
VWidth: 2048
Flags: W
HStem: -12 84<232.839 451.084> 644 84<214.463 430.938>
VStem: 44 91<166.515 230.615> 72 95<480.382 599.689> 503 90<513 575.161> 520 95<130.53 255.28>
LayerCount: 2
Fore
SplineSet
615 202 m 0xd4
 615 68 501 -12 351 -12 c 0
 169 -12 54 68 44 230 c 1
 135 238 l 1
 149 127 219 72 346 72 c 0
 416 72 520 97 520 195 c 0xe4
 520 277 456 294 305 331 c 0
 151 369 72 423 72 532 c 0
 72 663 185 728 323 728 c 0
 480 728 587 657 593 513 c 1
 503 507 l 1xd8
 494 599 435 644 328 644 c 0
 219 644 167 609 167 538 c 0
 167 469 223 450 334 423 c 0
 433 399 615 372 615 202 c 0xd4
EndSplineSet
Validated: 1
EndChar

StartChar: T
Encoding: 84 84 53
Width: 610
VWidth: 2048
Flags: W
HStem: 0 21G<259 354> 632 84<23 259 354 592>
VStem: 259 95<0 632>
LayerCount: 2
Fore
SplineSet
259 0 m 1
 259 632 l 1
 23 632 l 1
 23 716 l 1
 592 716 l 1
 592 632 l 1
 354 632 l 1
 354 0 l 1
 259 0 l 1
EndSplineSet
Validated: 1
EndChar

StartChar: U
Encoding: 85 85 54
Width: 721
VWidth: 2048
Flags: W
HStem: -12 84<256.853 461.509> 696 20G<78 173 547 642>
VStem: 78 95<164.432 716> 547 95<161.391 716>
LayerCount: 2
Fore
SplineSet
354 72 m 0
 528 72 547 176 547 303 c 2
 547 716 l 1
 642 716 l 1
 642 302 l 2
 642 85 558 -12 362 -12 c 0
 156 -12 78 85 78 302 c 2
 78 716 l 1
 173 716 l 1
 173 303 l 2
 173 154 215 72 354 72 c 0
EndSplineSet
Validated: 1
EndChar

StartChar: V
Encoding: 86 86 55
Width: 666
VWidth: 2048
Flags: W
HStem: 0 21G<274.263 387.793> 696 20G<5 114.226 555.516 659>
DStem2: 331 96 380 0 0.363074 0.93176<0 661.925>
LayerCount: 2
Fore
SplineSet
282 0 m 1
 5 716 l 1
 107 716 l 1
 331 96 l 1
 563 716 l 1
 659 716 l 1
 380 0 l 1
 282 0 l 1
EndSplineSet
Validated: 1
EndChar

StartChar: W
Encoding: 87 87 56
Width: 944
VWidth: 2048
Flags: W
HStem: 0 21G<196.693 304.492 639.508 741.503> 696 20G<12 113.829 411.281 537.411 832.932 933>
DStem2: 250 132 299 0 0.264801 0.964303<0 539.009> 532 716 472 630 0.264801 -0.964303<67.042 604.992> 690 132 736 0 0.265282 0.964171<0 602.338>
LayerCount: 2
Fore
SplineSet
202 0 m 1
 12 716 l 1
 109 716 l 1
 250 132 l 1
 417 716 l 1
 532 716 l 1
 690 132 l 1
 838 716 l 1
 933 716 l 1
 736 0 l 1
 645 0 l 1
 472 630 l 1
 299 0 l 1
 202 0 l 1
EndSplineSet
Validated: 1
EndChar

StartChar: X
Encoding: 88 88 57
Width: 666
VWidth: 2048
Flags: W
HStem: 0 21G<5 132.43 529.839 661> 696 20G<37 164.007 507 641>
DStem2: 5 0 118 0 0.597128 0.802146<67.4755 434.897 558.41 746.816 762.327 892.606> 150 716 37 716 0.580916 -0.813964<0 325.96 446.544 811.679>
LayerCount: 2
Fore
SplineSet
5 0 m 1
 282 374 l 1
 37 716 l 1
 150 716 l 1
 337 449 l 1
 337 449 476 632 538 716 c 1
 641 716 l 1
 389 379 l 1
 661 0 l 1
 544 0 l 1
 333 298 l 1
 118 0 l 1
 5 0 l 1
EndSplineSet
Validated: 1
EndChar

StartChar: Y
Encoding: 89 89 58
Width: 666
VWidth: 2048
Flags: W
HStem: 0 21G<279 374> 696 20G<3 131.15 535.789 659>
VStem: 279 95<0 303>
DStem2: 118 716 3 716 0.555629 -0.83143<0 391.338> 333 389 374 303 0.567966 0.823052<0 391.819>
LayerCount: 2
Fore
SplineSet
279 0 m 1
 279 303 l 1
 3 716 l 1
 118 716 l 1
 333 389 l 1
 549 716 l 1
 659 716 l 1
 374 303 l 1
 374 0 l 1
 279 0 l 1
EndSplineSet
Validated: 1
EndChar

StartChar: Z
Encoding: 90 90 59
Width: 610
VWidth: 2048
Flags: W
HStem: 0 84<129 586> 632 84<61 455>
DStem2: 20 89 129 84 0.631232 0.775594<64.9263 695.734>
LayerCount: 2
Fore
SplineSet
20 0 m 1
 20 89 l 1
 455 632 l 1
 61 632 l 1
 61 716 l 1
 575 716 l 1
 575 632 l 1
 129 84 l 1
 586 84 l 1
 586 0 l 1
 20 0 l 1
EndSplineSet
Validated: 1
EndChar

StartChar: bracketleft
Encoding: 91 91 60
Width: 277
VWidth: 2048
Flags: W
HStem: -199 72<156 262> 644 72<156 262>
VStem: 67 195<-199 -127 644 716> 67 89<-127 644>
LayerCount: 2
Fore
SplineSet
67 -199 m 1xe0
 67 716 l 1
 262 716 l 1
 262 644 l 1xe0
 156 644 l 1
 156 -127 l 1xd0
 262 -127 l 1
 262 -199 l 1
 67 -199 l 1xe0
EndSplineSet
Validated: 1
EndChar

StartChar: backslash
Encoding: 92 92 61
Width: 277
VWidth: 2048
Flags: W
HStem: -12 21G<201.405 277> 708 20G<0 76.5676>
VStem: 0 277
DStem2: 71 728 0 728 0.269389 -0.963032<0 749.28>
LayerCount: 2
Fore
SplineSet
207 -12 m 1
 0 728 l 1
 71 728 l 1
 277 -12 l 1
 207 -12 l 1
EndSplineSet
Validated: 1
EndChar

StartChar: bracketright
Encoding: 93 93 62
Width: 277
VWidth: 2048
Flags: W
HStem: -199 72<18 126> 644 72<18 126>
VStem: 18 195<-199 -127 644 716> 126 87<-127 644>
LayerCount: 2
Fore
SplineSet
213 -199 m 1xe0
 18 -199 l 1
 18 -127 l 1xe0
 126 -127 l 1
 126 644 l 1xd0
 18 644 l 1
 18 716 l 1
 213 716 l 1
 213 -199 l 1xe0
EndSplineSet
Validated: 1
EndChar

StartChar: asciicircum
Encoding: 94 94 63
Width: 469
VWidth: 2048
Flags: W
HStem: 708 20G<190.151 278.849>
DStem2: 26 337 116 337 0.404619 0.914485<36.4157 350.681>
LayerCount: 2
Fore
SplineSet
116 337 m 1
 26 337 l 1
 199 728 l 1
 270 728 l 1
 443 337 l 1
 354 337 l 1
 235 628 l 1
 116 337 l 1
EndSplineSet
Validated: 1
EndChar

StartChar: underscore
Encoding: 95 95 64
Width: 556
VWidth: 2048
Flags: W
HStem: -199 64<-15 569>
LayerCount: 2
Fore
SplineSet
-15 -199 m 1
 -15 -135 l 1
 569 -135 l 1
 569 -199 l 1
 -15 -199 l 1
EndSplineSet
Validated: 1
EndChar

StartChar: grave
Encoding: 96 96 65
Width: 332
VWidth: 2048
Flags: W
HStem: 582 138<156 161>
VStem: 43 184
LayerCount: 2
Fore
SplineSet
227 582 m 1
 156 582 l 1
 43 720 l 1
 161 720 l 1
 227 582 l 1
EndSplineSet
Validated: 1
EndChar

StartChar: a
Encoding: 97 97 66
Width: 556
VWidth: 2048
Flags: W
HStem: -12 72<150.63 316.572> 0 21G<418 513> 259 72<318.649 397> 458 72<184.225 360.174>
VStem: 35 89<86.2409 186.282> 52 84<370 408.266> 397 89<130.398 259 325.062 422.12>
LayerCount: 2
Fore
SplineSet
273 458 m 0xba
 184 458 156 427 136 359 c 1
 52 371 l 1
 74 477 152 530 285 530 c 0
 424 530 486 494 486 334 c 2
 486 106 l 2
 486 69 495 34 513 0 c 1
 422 0 l 1x76
 414 18 408 40 405 64 c 1
 345 14 281 -12 213 -12 c 0
 113 -12 35 41 35 136 c 0
 35 192 62 233 110 264 c 0
 169 302 299 297 397 331 c 1
 397 353 l 2
 397 423 356 458 273 458 c 0xba
235 60 m 0xba
 365 60 397 142 397 228 c 2
 397 259 l 1
 299 218 124 238 124 139 c 0
 124 84 166 60 235 60 c 0xba
EndSplineSet
Validated: 1
EndChar

StartChar: b
Encoding: 98 98 67
Width: 556
VWidth: 2048
Flags: W
HStem: -12 72<215.936 353.849> 0 21G<64 153> 458 72<218.866 360.213> 696 20G<64 153>
VStem: 64 89<0 64 136.092 380.871 461 716> 426 89<148.907 377.267>
LayerCount: 2
Fore
SplineSet
515 267 m 0x7c
 515 108 434 -12 291 -12 c 0xbc
 230 -12 187 14 153 64 c 1
 153 0 l 1
 64 0 l 1
 64 716 l 1
 153 716 l 1
 153 461 l 1
 190 507 238 530 296 530 c 0
 431 530 515 427 515 267 c 0x7c
288 458 m 0
 196 458 153 373 153 264 c 0
 153 92 229 60 284 60 c 0
 398 60 426 186 426 259 c 0
 426 362 391 458 288 458 c 0
EndSplineSet
Validated: 1
EndChar

StartChar: c
Encoding: 99 99 68
Width: 499
VWidth: 2048
Flags: W
HStem: -12 72<195.548 349.192> 458 72<197.919 350.052>
VStem: 38 89<139.903 379.542> 397 86<364.942 408.371> 405 85<124.055 179.906>
LayerCount: 2
Fore
SplineSet
38 258 m 0xe8
 38 476 171 530 276 530 c 0
 392 530 461 477 483 366 c 1
 397 353 l 1xf0
 382 423 342 458 279 458 c 0
 179 458 127 392 127 259 c 0
 127 127 178 60 274 60 c 0
 349 60 392 104 405 190 c 1
 490 179 l 1
 472 66 397 -12 276 -12 c 0
 122 -12 38 97 38 258 c 0xe8
EndSplineSet
Validated: 1
EndChar

StartChar: d
Encoding: 100 100 69
Width: 556
VWidth: 2048
Flags: W
HStem: -12 72<195.636 335.306> 0 21G<397 486> 458 72<187.776 331.908> 696 20G<397 486>
VStem: 34 89<144.438 384.044> 397 89<0 64 135.072 379.735 460 716>
LayerCount: 2
Fore
SplineSet
258 -12 m 0xbc
 117 -12 34 106 34 259 c 0
 34 412 104 530 254 530 c 0
 314 530 362 507 397 460 c 1
 397 716 l 1
 486 716 l 1
 486 0 l 1
 397 0 l 1x7c
 397 64 l 1
 363 14 322 -12 258 -12 c 0xbc
397 251 m 0
 397 339 376 458 262 458 c 0
 170 458 123 392 123 259 c 0
 123 101 208 60 265 60 c 0xbc
 377 60 397 177 397 251 c 0
EndSplineSet
Validated: 1
EndChar

StartChar: e
Encoding: 101 101 70
Width: 556
VWidth: 2048
Flags: W
HStem: -12 72<204.486 358.379> 238 72<132 422> 458 72<203.501 358.994>
VStem: 37 90<147.844 238 310 374.208>
LayerCount: 2
Fore
SplineSet
127 238 m 1
 133 134 186 60 285 60 c 0
 351 60 395 97 422 167 c 1
 512 156 l 1
 481 44 406 -12 284 -12 c 0
 128 -12 37 84 37 256 c 0
 37 420 123 530 279 530 c 0
 419 530 502 439 513 296 c 1
 513 238 l 1
 127 238 l 1
132 310 m 1
 422 310 l 1
 414 408 366 458 281 458 c 0
 192 458 138 393 132 310 c 1
EndSplineSet
Validated: 1
EndChar

StartChar: f
Encoding: 102 102 71
Width: 277
VWidth: 2048
Flags: W
HStem: 0 21G<87 176> 451 67<9 87 176 276> 656 72<191.202 300.862>
VStem: 87 89<0 451 518 639.469>
LayerCount: 2
Fore
SplineSet
248 656 m 0
 190 656 176 626 176 567 c 2
 176 518 l 1
 276 518 l 1
 276 451 l 1
 176 451 l 1
 176 0 l 1
 87 0 l 1
 87 451 l 1
 9 451 l 1
 9 518 l 1
 87 518 l 1
 87 575 l 2
 87 663 116 728 230 728 c 0
 256 728 284 725 313 720 c 1
 299 650 l 1
 282 655 264 656 248 656 c 0
EndSplineSet
Validated: 1
EndChar

StartChar: g
Encoding: 103 103 72
Width: 556
VWidth: 2048
Flags: W
HStem: -210 72<170.656 345.268> 0 72<188.037 335.92> 458 72<192.713 334.34> 498 20G<400 489>
VStem: 32 89<149.948 376.871> 51 84<-101.487 -55> 400 89<-78.5604 67 146.094 381.08 457 518>
LayerCount: 2
Fore
SplineSet
489 71 m 2xda
 489 -106 442 -210 256 -210 c 0
 130 -210 51 -159 51 -43 c 1
 135 -55 l 1xd6
 143 -110 182 -138 254 -138 c 0
 388 -138 400 -59 400 67 c 1
 362 23 314 0 256 0 c 0
 118 0 32 110 32 262 c 0
 32 418 113 530 256 530 c 0xea
 319 530 360 506 400 457 c 1
 400 518 l 1
 489 518 l 1
 489 71 l 2xda
264 458 m 0xea
 169 458 121 373 121 268 c 0
 121 138 170 72 265 72 c 0
 362 72 400 159 400 265 c 0
 400 373 358 458 264 458 c 0xea
EndSplineSet
Validated: 1
EndChar

StartChar: h
Encoding: 104 104 73
Width: 556
VWidth: 2048
Flags: W
HStem: 0 21G<66 155 400 489> 458 72<216.97 357.699> 696 20G<66 155>
VStem: 66 89<0 399.863 460 716> 400 89<0 415.76>
LayerCount: 2
Fore
SplineSet
291 458 m 0
 182 458 155 385 155 284 c 2
 155 0 l 1
 66 0 l 1
 66 716 l 1
 155 716 l 1
 155 460 l 1
 195 507 247 530 310 530 c 0
 444 530 489 463 489 328 c 2
 489 0 l 1
 400 0 l 1
 400 328 l 2
 400 412 363 458 291 458 c 0
EndSplineSet
Validated: 1
EndChar

StartChar: i
Encoding: 105 105 74
Width: 222
VWidth: 2048
Flags: W
HStem: 0 21G<66 155> 498 20G<66 155> 615 101<66 155>
VStem: 66 89<0 518 615 716>
LayerCount: 2
Fore
SplineSet
66 615 m 1
 66 716 l 1
 155 716 l 1
 155 615 l 1
 66 615 l 1
66 0 m 1
 66 518 l 1
 155 518 l 1
 155 0 l 1
 66 0 l 1
EndSplineSet
Validated: 1
EndChar

StartChar: j
Encoding: 106 106 75
Width: 222
VWidth: 2048
Flags: W
HStem: -210 72<-31.712 48.5351> 498 20G<64 153> 615 101<64 153>
VStem: 64 89<-124.132 518 615 716>
LayerCount: 2
Fore
SplineSet
64 615 m 1
 64 716 l 1
 153 716 l 1
 153 615 l 1
 64 615 l 1
153 -29 m 2
 153 -177 101 -210 23 -210 c 0
 0 -210 -23 -207 -46 -201 c 1
 -29 -132 l 1
 -12 -135 2 -138 12 -138 c 0
 62 -138 64 -72 64 -26 c 2
 64 518 l 1
 153 518 l 1
 153 -29 l 2
EndSplineSet
Validated: 1
EndChar

StartChar: k
Encoding: 107 107 76
Width: 499
VWidth: 2048
Flags: W
HStem: 0 21G<66 155 375.019 497> 498 20G<342.286 477> 696 20G<66 155>
VStem: 66 89<0 205 308 716>
DStem2: 155 308 216 265 0.717057 0.697015<0 13.7688 100.027 294.804> 277 326 216 265 0.559386 -0.828908<16.4408 332.316>
LayerCount: 2
Fore
SplineSet
66 0 m 1
 66 716 l 1
 155 716 l 1
 155 308 l 1
 362 518 l 1
 477 518 l 1
 277 326 l 1
 497 0 l 1
 388 0 l 1
 216 265 l 1
 155 205 l 1
 155 0 l 1
 66 0 l 1
EndSplineSet
Validated: 1
EndChar

StartChar: l
Encoding: 108 108 77
Width: 222
VWidth: 2048
Flags: W
HStem: 0 21G<64 153> 696 20G<64 153>
VStem: 64 89<0 716>
LayerCount: 2
Fore
SplineSet
64 0 m 1
 64 716 l 1
 153 716 l 1
 153 0 l 1
 64 0 l 1
EndSplineSet
Validated: 1
EndChar

StartChar: m
Encoding: 109 109 78
Width: 832
VWidth: 2048
Flags: W
HStem: 0 21G<66 155 374 463 680 769> 458 72<210.466 341.802 521.883 646.692> 498 20G<66 155>
VStem: 66 89<0 398.616 446 518> 374 89<0 401.715> 680 89<0 422.133>
LayerCount: 2
Fore
SplineSet
282 458 m 0xdc
 175 458 155 371 155 270 c 2
 155 0 l 1
 66 0 l 1
 66 518 l 1
 155 518 l 1xbc
 155 446 l 1
 181 503 233 530 302 530 c 0
 379 530 426 500 448 440 c 1
 489 500 543 530 609 530 c 0
 716 530 769 472 769 356 c 2
 769 0 l 1
 680 0 l 1
 680 326 l 2
 680 412 651 458 589 458 c 0
 504 458 463 403 463 302 c 2
 463 0 l 1
 374 0 l 1
 374 337 l 2
 374 415 343 458 282 458 c 0xdc
EndSplineSet
Validated: 1
EndChar

StartChar: n
Encoding: 110 110 79
Width: 556
VWidth: 2048
Flags: W
HStem: 0 21G<66 155 398 487> 458 72<214.558 356.706> 498 20G<66 154>
VStem: 66 89<0 392.082 446 518> 398 89<0 410.876>
LayerCount: 2
Fore
SplineSet
66 0 m 1xd8
 66 518 l 1
 154 518 l 1xb8
 154 446 l 1
 181 503 238 530 311 530 c 0
 428 530 487 468 487 342 c 2
 487 0 l 1
 398 0 l 1
 398 316 l 2
 398 408 363 458 291 458 c 0
 201 458 155 397 155 284 c 2
 155 0 l 1
 66 0 l 1xd8
EndSplineSet
Validated: 1
EndChar

StartChar: o
Encoding: 111 111 80
Width: 556
VWidth: 2048
Flags: W
HStem: -12 72<195.744 356.256> 458 72<199.954 352.046>
VStem: 32 89<145.972 368.9> 431 89<145.972 368.9>
LayerCount: 2
Fore
SplineSet
276 -12 m 0
 81 -12 32 148 32 259 c 0
 32 419 120 530 276 530 c 0
 432 530 520 419 520 259 c 0
 520 148 471 -12 276 -12 c 0
276 458 m 0
 174 458 121 375 121 259 c 0
 121 170 154 60 276 60 c 0
 398 60 431 170 431 259 c 0
 431 375 378 458 276 458 c 0
EndSplineSet
Validated: 1
EndChar

StartChar: p
Encoding: 112 112 81
Width: 556
VWidth: 2048
Flags: W
HStem: -199 21G<66 155> -12 72<214.614 354.828> 458 72<221.361 358.152> 498 20G<66 155>
VStem: 66 89<-199 54 131.086 377.478 451 518> 426 89<143.84 377.464>
LayerCount: 2
Fore
SplineSet
515 264 m 0xec
 515 110 433 -12 290 -12 c 0
 235 -12 189 11 155 54 c 1
 155 -199 l 1
 66 -199 l 1
 66 518 l 1
 155 518 l 1xdc
 155 451 l 1
 184 504 235 530 296 530 c 0
 439 530 515 419 515 264 c 0xec
288 458 m 0xec
 203 458 155 378 155 256 c 0
 155 156 181 60 285 60 c 0
 381 60 426 147 426 264 c 0
 426 375 381 458 288 458 c 0xec
EndSplineSet
Validated: 1
EndChar

StartChar: q
Encoding: 113 113 82
Width: 556
VWidth: 2048
Flags: W
HStem: -199 21G<396 485> -12 72<198.636 336.85> 458 72<191.685 329.912> 498 20G<396 485>
VStem: 37 89<143.124 377.306> 396 89<-199 55 131.274 378.626 449 518>
LayerCount: 2
Fore
SplineSet
37 264 m 0xdc
 37 418 111 530 254 530 c 0xec
 319 530 368 504 396 449 c 1
 396 518 l 1
 485 518 l 1
 485 -199 l 1
 396 -199 l 1
 396 55 l 1
 364 11 319 -12 261 -12 c 0
 120 -12 37 111 37 264 c 0xdc
262 458 m 0
 167 458 126 368 126 261 c 0
 126 98 211 60 268 60 c 0
 378 60 396 176 396 253 c 0
 396 364 359 458 262 458 c 0
EndSplineSet
Validated: 1
EndChar

StartChar: r
Encoding: 114 114 83
Width: 332
VWidth: 2048
Flags: W
HStem: 0 21G<64 153> 458 72<200.697 325.403> 498 20G<64 153>
VStem: 64 89<0 398.178 440 518>
LayerCount: 2
Back
SplineSet
64 0 m 1xd0
 64 518 l 1
 153 518 l 1xb0
 153 440 l 1
 178 500 215 530 256 530 c 0
 287 530 316 521 346 503 c 1
 317 420 l 1
 296 434 274 440 253 440 c 0
 198 440 153 402 153 271 c 2
 153 0 l 1
 64 0 l 1xd0
EndSplineSet
Fore
SplineSet
64 0 m 1xd0
 64 518 l 1
 153 518 l 1xb0
 153 440 l 1
 178 500 215 530 256 530 c 0
 287 530 316 521 346 503 c 1
 317 438 l 1
 296 452 274 458 253 458 c 0
 198 458 153 402 153 271 c 2
 153 0 l 1
 64 0 l 1xd0
EndSplineSet
Validated: 1
EndChar

StartChar: s
Encoding: 115 115 84
Width: 499
VWidth: 2048
Flags: W
HStem: -12 72<167.239 343.371> 458 72<155.379 319.561>
VStem: 46 89<348.982 436.972> 356 87<384.115 422.899> 372 89<88.1077 185.159>
LayerCount: 2
Fore
SplineSet
244 222 m 0xe8
 134 249 46 276 46 382 c 0
 46 441 83 530 236 530 c 0
 393 530 430 460 443 385 c 1
 356 374 l 1xf0
 348 429 310 458 242 458 c 0
 167 458 135 435 135 391 c 0
 135 348 169 336 244 316 c 0
 357 286 461 270 461 153 c 0
 461 21 328 -12 253 -12 c 0
 124 -12 51 43 31 155 c 1
 118 169 l 1
 127 97 173 60 253 60 c 0
 331 60 372 87 372 143 c 0
 372 197 317 204 244 222 c 0xe8
EndSplineSet
Validated: 1
EndChar

StartChar: t
Encoding: 116 116 85
Width: 277
VWidth: 2048
Flags: W
HStem: -6 72<182.046 258.788> 451 67<18 82 171 258>
VStem: 82 89<73.5805 451 518 647>
LayerCount: 2
Fore
SplineSet
171 147 m 2
 171 92 181 66 219 66 c 0
 230 66 242 68 258 69 c 1
 271 0 l 1
 245 -5 224 -6 204 -6 c 0
 91 -6 82 50 82 152 c 2
 82 451 l 1
 18 451 l 1
 18 518 l 1
 82 518 l 1
 82 647 l 1
 171 700 l 1
 171 518 l 1
 258 518 l 1
 258 451 l 1
 171 451 l 1
 171 147 l 2
EndSplineSet
Validated: 1
EndChar

StartChar: u
Encoding: 117 117 86
Width: 556
VWidth: 2048
Flags: W
HStem: -12 72<190.57 332.04> 0 21G<395 484> 498 20G<64 153 395 484>
VStem: 64 89<100.5 518> 395 89<0 77 119.282 518>
LayerCount: 2
Fore
SplineSet
259 60 m 0xb8
 369 60 395 133 395 241 c 2
 395 518 l 1
 484 518 l 1
 484 0 l 1
 395 0 l 1x78
 395 77 l 1
 366 17 311 -12 241 -12 c 0
 111 -12 64 54 64 198 c 2
 64 518 l 1
 153 518 l 1
 153 231 l 2
 153 111 174 60 259 60 c 0xb8
EndSplineSet
Validated: 1
EndChar

StartChar: v
Encoding: 118 118 87
Width: 499
VWidth: 2048
Flags: W
HStem: 0 21G<202.355 298.645> 498 20G<12 113.2 391.55 489>
DStem2: 106 518 12 518 0.357045 -0.934087<0 425.049> 250 118 291 0 0.357045 0.934087<0 426.835>
LayerCount: 2
Fore
SplineSet
210 0 m 1
 12 518 l 1
 106 518 l 1
 250 118 l 1
 399 518 l 1
 489 518 l 1
 291 0 l 1
 210 0 l 1
EndSplineSet
Validated: 1
EndChar

StartChar: w
Encoding: 119 119 88
Width: 721
VWidth: 2048
Flags: W
HStem: 0 21G<154.9 259.263 455.887 558.255> 498 20G<3 99.4988 311.647 413.126 623.97 714>
DStem2: 94 518 3 518 0.291749 -0.956495<0 426.087> 207 107 254 0 0.25854 0.966<0 321.37> 408 518 359 399 0.247674 -0.968843<103.156 410.862> 510 120 552 0 0.298485 0.954414<0 415.675>
LayerCount: 2
Fore
SplineSet
161 0 m 1
 3 518 l 1
 94 518 l 1
 207 107 l 1
 317 518 l 1
 408 518 l 1
 510 120 l 1
 630 518 l 1
 714 518 l 1
 552 0 l 1
 461 0 l 1
 359 399 l 1
 254 0 l 1
 161 0 l 1
EndSplineSet
Validated: 1
EndChar

StartChar: x
Encoding: 120 120 89
Width: 499
VWidth: 2048
Flags: W
HStem: 0 21G<8 127.093 370.907 494> 498 20G<21 145.953 359.814 478>
DStem2: 8 0 113 0 0.577055 0.816706<60.5907 296.694 423.381 634.255> 132 518 21 518 0.574946 -0.818192<0 209.722 333.181 569.285>
LayerCount: 2
Fore
SplineSet
8 0 m 1
 197 268 l 1
 21 518 l 1
 132 518 l 1
 252 346 l 1
 374 518 l 1
 478 518 l 1
 304 271 l 1
 494 0 l 1
 385 0 l 1
 249 193 l 1
 113 0 l 1
 8 0 l 1
EndSplineSet
Validated: 1
EndChar

StartChar: y
Encoding: 121 121 90
Width: 499
VWidth: 2048
Flags: W
HStem: -210 72<62.9187 159.312> 498 20G<17 117.291 395.715 492>
DStem2: 110 518 17 518 0.353892 -0.935286<0 442.714> 182 -83 294 -9 0.345126 0.938556<-54.6526 88.5991 197.354 640.345>
LayerCount: 2
Fore
SplineSet
63 -199 m 1
 52 -130 l 1
 72 -135 87 -138 103 -138 c 0
 143 -138 171 -112 182 -83 c 2
 182 -83 211 -7 213 0 c 1
 17 518 l 1
 110 518 l 1
 219 219 l 2
 235 175 247 135 256 98 c 1
 267 138 278 176 293 216 c 2
 403 518 l 1
 492 518 l 1
 294 -9 l 2
 257 -107 222 -210 120 -210 c 0
 103 -210 83 -207 63 -199 c 1
EndSplineSet
Validated: 1
EndChar

StartChar: z
Encoding: 122 122 91
Width: 499
VWidth: 2048
Flags: W
HStem: 0 72<125.875 478> 446 72<38 347>
DStem2: 20 71 124 68 0.653168 0.757213<65.6579 499.812>
LayerCount: 2
Fore
SplineSet
20 0 m 1
 20 71 l 1
 347 449 l 1
 311 447 279 446 251 446 c 2
 38 446 l 1
 38 518 l 1
 463 518 l 1
 463 461 l 1
 124 68 l 1
 164 71 204 72 239 72 c 2
 478 72 l 1
 478 0 l 1
 20 0 l 1
EndSplineSet
Validated: 1
EndChar

StartChar: braceleft
Encoding: 123 123 92
Width: 334
VWidth: 2048
Flags: W
HStem: -210 77<225.42 311> 219 80<28 86.5096> 651 77<225.42 311>
VStem: 135 77<-106.364 153.717 364.283 624.364>
CounterMasks: 1 e0
LayerCount: 2
Fore
SplineSet
28 219 m 1
 28 299 l 1
 94 300 127 354 130 460 c 2
 135 621 l 2
 136 654 155 682 179 702 c 0
 202 720 236 728 284 728 c 2
 311 728 l 1
 311 651 l 1
 296 651 l 2
 256 651 233 644 222 625 c 0
 215 612 212 562 212 480 c 0
 212 359 178 287 109 259 c 1
 178 231 212 159 212 38 c 0
 212 -44 215 -94 222 -107 c 0
 233 -126 256 -133 296 -133 c 2
 311 -133 l 1
 311 -210 l 1
 284 -210 l 2
 236 -210 202 -202 179 -184 c 0
 155 -164 136 -136 135 -103 c 2
 130 58 l 2
 127 164 94 218 28 219 c 1
EndSplineSet
Validated: 1
EndChar

StartChar: bar
Encoding: 124 124 93
Width: 259
VWidth: 2048
Flags: W
HStem: -210 21G<92 169> 708 20G<92 169>
VStem: 92 77<-210 728>
LayerCount: 2
Fore
SplineSet
92 -210 m 1
 92 728 l 1
 169 728 l 1
 169 -210 l 1
 92 -210 l 1
EndSplineSet
Validated: 1
EndChar

StartChar: braceright
Encoding: 125 125 94
Width: 334
VWidth: 2048
Flags: W
HStem: -210 77<24 109.58> 219 80<248.49 307> 651 77<24 109.58>
VStem: 123 77<-106.364 153.717 364.283 624.364>
CounterMasks: 1 e0
LayerCount: 2
Fore
SplineSet
307 219 m 1
 241 218 208 164 205 58 c 2
 200 -103 l 2
 199 -136 180 -164 156 -184 c 0
 133 -202 99 -210 51 -210 c 2
 24 -210 l 1
 24 -133 l 1
 39 -133 l 2
 79 -133 102 -126 113 -107 c 0
 120 -94 123 -44 123 38 c 0
 123 159 157 231 226 259 c 1
 157 287 123 359 123 480 c 0
 123 562 120 612 113 625 c 0
 102 644 79 651 39 651 c 2
 24 651 l 1
 24 728 l 1
 51 728 l 2
 99 728 133 720 156 702 c 0
 180 682 199 654 200 621 c 2
 205 460 l 2
 208 354 241 300 307 299 c 1
 307 219 l 1
EndSplineSet
Validated: 1
EndChar

StartChar: asciitilde
Encoding: 126 126 95
Width: 583
VWidth: 2048
Flags: W
HStem: 281 84<335.157 487.83> 347 84<100.675 254.578>
LayerCount: 2
Fore
SplineSet
408 281 m 0x80
 325 281 240 347 170 347 c 0x40
 130 347 89 324 43 281 c 1x80
 43 372 l 1
 77 411 123 431 178 431 c 0x40
 264 431 355 365 415 365 c 0
 460 365 501 388 543 432 c 1
 543 336 l 1
 503 299 458 281 408 281 c 0x80
EndSplineSet
Validated: 1
EndChar

StartChar: ellipsis
Encoding: 8230 8230 100
Width: 570
VWidth: 2048
Flags: W
HStem: 0 118<67.9776 162.165 254.978 349.165 443.277 537.232>
VStem: 55 117<12.1333 108.098> 242 117<12.1333 108.098> 431 116<11.3169 108.845>
LayerCount: 2
Fore
SplineSet
489 0 m 0
 455 0 435 20 431 58 c 1
 431 98 449 118 489 118 c 0
 527 118 547 98 547 58 c 0
 547 20 527 0 489 0 c 0
300 0 m 0
 267 0 247 20 242 58 c 1
 242 98 262 118 300 118 c 0
 339 118 359 98 359 58 c 0
 359 20 339 0 300 0 c 0
113 0 m 0
 80 0 60 20 55 58 c 1
 55 98 75 118 113 118 c 0
 152 118 172 98 172 58 c 0
 172 20 152 0 113 0 c 0
EndSplineSet
Validated: 1
EndChar

StartChar: uni0E48.low_left
Encoding: 63237 63237 101
Width: 0
Flags: W
HStem: 665 222<-288 -219>
VStem: -288 69<665 887>
LayerCount: 2
Back
SplineSet
-247 665 m 5
 -316 665 l 5
 -316 887 l 5
 -247 887 l 5
 -247 665 l 5
EndSplineSet
Fore
Refer: 106 63242 N 1 0 0 1 -99 0 2
Validated: 1
EndChar

StartChar: uni0E49.low_left
Encoding: 63238 63238 102
Width: 0
Flags: W
HStem: 798 42<-529.313 -483.243> 932 43<-530.078 -451.375>
VStem: -585 48<847.199 924.713> -445 48<845.963 925.686>
LayerCount: 2
Back
SplineSet
-447 901 m 0
 -386 901 -364 852 -364 810 c 0
 -364 760 -395 717 -399 717 c 1
 -354 727 -326 740 -290 768 c 0
 -239 803 -215 832 -184 891 c 1
 -184 796 l 1
 -212 757 -241 727 -310 696 c 0
 -358 674 -401 667 -441 667 c 0
 -459 667 -477 669 -494 671 c 1
 -466 687 -440 732 -440 740 c 1
 -445 739 -450 739 -455 739 c 0
 -497 739 -534 767 -534 815 c 0
 -534 845 -517 901 -447 901 c 0
-451 777 m 0
 -423 777 -409 798 -409 819 c 0
 -409 840 -423 861 -451 861 c 0
 -479 861 -493 840 -493 819 c 0
 -493 798 -479 777 -451 777 c 0
EndSplineSet
Fore
Refer: 107 63243 N 1 0 0 1 -199 0 2
Validated: 1
EndChar

StartChar: uni0E4C.low_left
Encoding: 63241 63241 105
Width: 0
Flags: W
HStem: 667 43<-324.951 -248.27> 802 41<-326.119 -249.78>
VStem: -403 70<718.207 830.227> -242 46<715.564 794.712>
LayerCount: 2
Back
SplineSet
-139 972 m 1
 -139 972 l 0
 -143 960 -141 917 -192 889 c 0
 -253 855 -330 877 -382 851 c 0
 -409 837 -411 812 -412 809 c 1
 -399 820 -389 826 -362 826 c 0
 -320 826 -285 794 -285 750 c 0
 -285 699 -322 670 -366 668 c 0
 -441 665 -486 743 -468 812 c 0
 -446 891 -385 912 -284 912 c 0
 -204 912 -213 969 -208 972 c 1
 -139 972 l 1
-368 707 m 0
 -313 707 -314 789 -369 789 c 0
 -423 789 -422 707 -368 707 c 0
EndSplineSet
Fore
Refer: 110 63246 N 1 0 0 1 -99 0 2
Validated: 1
EndChar

StartChar: uni0E48.low
Encoding: 63242 63242 106
Width: 0
Flags: W
HStem: 665 222<-189 -120>
VStem: -189 69<665 887>
AnchorPoint: "AboveMark" -154 988 basemark 0
AnchorPoint: "AboveBase" -113 659 mark 0
LayerCount: 2
Fore
SplineSet
-120 665 m 1
 -189 665 l 1
 -189 887 l 1
 -120 887 l 1
 -120 665 l 1
EndSplineSet
Validated: 1
EndChar

StartChar: uni0E49.low
Encoding: 63243 63243 107
Width: 0
Flags: W
HStem: 798 42<-330.313 -284.243> 932 43<-331.078 -252.375>
VStem: -386 48<847.199 924.713> -246 48<845.963 925.686>
AnchorPoint: "AboveMark" -191 988 basemark 0
AnchorPoint: "AboveBase" -13 659 mark 0
LayerCount: 2
Fore
SplineSet
3 820 m 1
 1 810 -80 686 -262 686 c 0
 -301 686 -337 692 -365 705 c 1
 -320 730 -284 788 -284 799 c 1
 -289 798 -294 798 -299 798 c 0
 -340 798 -386 829 -386 885 c 0
 -386 926 -360 975 -287 975 c 0
 -216 975 -198 912 -198 877 c 0
 -198 821 -234 767 -251 742 c 1
 -90 756 -20 872 3 926 c 1
 3 820 l 1
-291 840 m 0
 -261 840 -246 863 -246 886 c 0
 -246 909 -261 932 -291 932 c 0
 -322 932 -338 909 -338 886 c 0
 -338 863 -322 840 -291 840 c 0
EndSplineSet
Validated: 1
EndChar

StartChar: uni0E4A.low
Encoding: 63244 63244 108
Width: 0
Flags: W
HStem: 661 32<-333.816 -281.2> 753 32<-333.414 -280.54> 835 46<-335.197 -254.796 -231.395 -153.643>
VStem: -396 48<771 821.843> -277 33<696.653 749.647> -142 52<710.121 826.082> -25 50<777.006 837.02>
AnchorPoint: "AboveMark" -243 988 basemark 0
AnchorPoint: "AboveBase" -13 659 mark 0
LayerCount: 2
Fore
SplineSet
-172 881 m 0
 -122 881 -90 834 -90 789 c 0
 -90 743 -112 710 -115 705 c 1
 -31 750 -25 842 -25 874 c 1
 25 831 l 1
 12 756 -53 665 -173 665 c 2
 -189 665 l 1
 -175 674 -142 714 -142 768 c 0
 -142 795 -152 835 -190 835 c 0
 -217 835 -238 816 -242 809 c 1
 -245 816 -272 832 -296 832 c 0
 -321 832 -348 815 -348 771 c 1
 -334 780 -323 785 -300 785 c 0
 -266 785 -244 756 -244 726 c 0
 -244 685 -274 661 -310 661 c 0
 -363 661 -396 711 -396 768 c 0
 -396 825 -367 881 -306 881 c 0
 -280 881 -257 867 -244 845 c 1
 -228 868 -202 881 -172 881 c 0
-307 753 m 0
 -327 753 -337 737 -337 722 c 0
 -337 707 -328 693 -308 693 c 0
 -288 693 -277 708 -277 724 c 0
 -277 738 -287 753 -307 753 c 0
EndSplineSet
Validated: 1
EndChar

StartChar: uni0E4B.low
Encoding: 63245 63245 109
Width: 0
Flags: W
HStem: 752 66<-267 -185 -116 -34>
VStem: -185 69<668 752 818 902>
AnchorPoint: "AboveMark" -150 988 basemark 0
AnchorPoint: "AboveBase" -13 659 mark 0
LayerCount: 2
Fore
SplineSet
-34 818 m 1
 -34 752 l 1
 -116 752 l 1
 -116 668 l 1
 -185 668 l 1
 -185 752 l 1
 -267 752 l 1
 -267 818 l 1
 -185 818 l 1
 -185 902 l 1
 -116 902 l 1
 -116 818 l 1
 -34 818 l 1
EndSplineSet
Validated: 1
EndChar

StartChar: uni0E4C.low
Encoding: 63246 63246 110
Width: 0
Flags: W
HStem: 667 43<-225.951 -149.27> 802 41<-227.119 -150.78>
VStem: -304 70<718.207 830.227> -143 46<715.564 794.712>
AnchorPoint: "AboveMark" -187 988 basemark 0
AnchorPoint: "AboveBase" -113 659 mark 0
LayerCount: 2
Fore
SplineSet
-97 757 m 0
 -97 699 -145 667 -189 667 c 0
 -258 667 -304 727 -304 791 c 0
 -304 803 -303 816 -299 828 c 0
 -274 915 -207 938 -95 940 c 0
 -6 941 -15 1002 -11 1006 c 1
 64 1006 l 1
 61 992 63 946 8 914 c 0
 -58 875 -143 901 -204 871 c 0
 -234 856 -236 829 -238 825 c 1
 -221 837 -213 843 -181 843 c 0
 -136 843 -97 809 -97 757 c 0
-234 757 m 0
 -234 741 -224 710 -185 710 c 0
 -157 710 -143 732 -143 754 c 0
 -143 778 -159 802 -189 802 c 0
 -219 802 -234 780 -234 757 c 0
EndSplineSet
Validated: 1
EndChar

StartChar: uni0E0D.descless
Encoding: 63247 63247 111
Width: 800
Flags: W
HStem: -3 50<148.802 226.767> 0 61<353 395 464 622.777> 138 50<152.08 227.628> 532 61<146.779 359.148>
VStem: 83 69<182 375.439> 83 58<55.2602 131.419> 234 50<53.9166 131.796> 395 69<61 499.486> 627 69<63.8039 590>
LayerCount: 2
Fore
SplineSet
590 61 m 2x7780
 610 61 627 72 627 102 c 2
 627 590 l 1
 696 590 l 1
 696 82 l 2
 696 12 640 0 615 0 c 2
 353 0 l 1
 353 61 l 1
 395 61 l 1
 395 445 l 2
 395 497 361 532 250 532 c 0
 171 532 129 501 129 501 c 1
 157 501 254 423 254 423 c 1
 241 423 152 400 152 308 c 2
 152 182 l 1x7b80
 152 182 167 188 189 188 c 0
 222 188 284 169 284 96 c 0
 284 35 241 -3 184 -3 c 0
 110 -3 83 48 83 100 c 2xb780
 83 322 l 2xbb80
 83 390 141 426 141 426 c 1
 105 460 33 483 6 487 c 1
 26 513 122 593 274 593 c 0
 404 593 464 524 464 448 c 2
 464 61 l 1
 590 61 l 2x7780
188 47 m 0xb780
 219 47 234 70 234 93 c 0
 234 115 219 138 188 138 c 0
 157 138 141 115 141 93 c 0
 141 70 157 47 188 47 c 0xb780
EndSplineSet
Validated: 1
EndChar

StartChar: quoteleft
Encoding: 8216 8216 112
Width: 268
Flags: W
HStem: 446 145<98.474 164.637> 679 40<134.072 169>
VStem: 31 66<589 630.344>
LayerCount: 2
Fore
SplineSet
108 446 m 0
 75 446 31 465 31 539 c 0
 31 607 68 698 169 719 c 1
 169 679 l 1
 134 671 97 627 97 589 c 1
 103 591 109 591 115 591 c 0
 149 591 184 567 184 521 c 0
 184 481 161 446 108 446 c 0
EndSplineSet
Validated: 1
EndChar

StartChar: quoteright
Encoding: 8217 8217 113
Width: 278
Flags: W
HStem: 455 40<75 110.588> 583 145<79.2735 145.858>
VStem: 147 68<546.337 586>
LayerCount: 2
Fore
SplineSet
137 728 m 0
 167 728 215 713 215 638 c 0
 215 570 178 477 75 455 c 1
 75 495 l 1
 109 502 147 545 147 586 c 1
 141 584 134 583 128 583 c 0
 94 583 60 608 60 654 c 0
 60 714 108 728 137 728 c 0
EndSplineSet
Validated: 1
EndChar

StartChar: quotedblleft
Encoding: 8220 8220 114
Width: 484
Flags: W
HStem: 444 144<114.37 180.776 343.936 412> 676 40<150.402 185 383.827 415>
VStem: 48 65<589 627.72> 276 67<586 622.972>
LayerCount: 2
Fore
SplineSet
353 444 m 0
 322 444 276 460 276 534 c 0
 276 598 313 695 415 716 c 1
 415 676 l 1
 381 668 343 622 343 586 c 1
 350 588 356 588 362 588 c 0
 387 588 432 574 432 519 c 0
 432 475 405 444 353 444 c 0
125 446 m 0
 94 446 48 463 48 538 c 0
 48 602 85 698 185 719 c 1
 185 679 l 1
 151 671 113 625 113 589 c 1
 119 591 126 591 132 591 c 0
 166 591 202 567 202 520 c 0
 202 490 187 446 125 446 c 0
EndSplineSet
Validated: 1
EndChar

StartChar: quotedblright
Encoding: 8221 8221 115
Width: 531
Flags: W
HStem: 452 40<86 117.121 316 350.33> 580 145<90.7126 157.673 318.047 387.337>
VStem: 158 68<548.993 586> 388 65<540.408 582>
LayerCount: 2
Fore
SplineSet
377 725 m 0
 407 725 453 708 453 631 c 0
 453 563 416 473 316 452 c 1
 316 492 l 1
 349 499 388 544 388 582 c 1
 382 580 375 580 369 580 c 0
 335 580 299 604 299 651 c 0
 299 711 346 725 377 725 c 0
147 728 m 0
 178 728 226 713 226 639 c 0
 226 574 189 477 86 455 c 1
 86 495 l 1
 122 504 158 550 158 586 c 1
 151 584 145 583 139 583 c 0
 116 583 69 598 69 654 c 0
 69 714 116 728 147 728 c 0
EndSplineSet
Validated: 1
EndChar

StartChar: bullet
Encoding: 8226 8226 116
Width: 528
Flags: W
HStem: 98 336<186.709 355.291>
VStem: 104 334<179.336 352.664>
LayerCount: 2
Fore
SplineSet
271 98 m 0
 160 98 104 182 104 266 c 0
 104 350 160 434 271 434 c 0
 382 434 438 350 438 266 c 0
 438 182 382 98 271 98 c 0
EndSplineSet
Validated: 1
EndChar

StartChar: endash
Encoding: 8211 8211 117
Width: 548
Flags: W
HStem: 258 68<41 523>
LayerCount: 2
Fore
SplineSet
523 258 m 1
 41 258 l 1
 41 326 l 1
 523 326 l 1
 523 258 l 1
EndSplineSet
Validated: 1
EndChar

StartChar: emdash
Encoding: 8212 8212 118
Width: 709
Flags: W
HStem: 258 68<41 682>
LayerCount: 2
Fore
SplineSet
682 258 m 1
 41 258 l 1
 41 326 l 1
 682 326 l 1
 682 258 l 1
EndSplineSet
Validated: 1
EndChar

StartChar: uni0E4C.left
Encoding: 63255 63255 126
Width: 0
Flags: W
HStem: 891 39<-281.311 -211.719> 1012 36<-281.9 -213.38>
VStem: -351 63<935.308 1038.37> -206 41<934.724 1005.75> -87 66<1152.26 1196>
LayerCount: 2
Back
SplineSet
-101 1194 m 1
 -101 1194 l 0
 -103 1185 -103 1143 -147 1119 c 0
 -201 1090 -271 1108 -319 1085 c 0
 -340 1074 -345 1052 -346 1048 c 1
 -333 1058 -326 1064 -300 1064 c 0
 -262 1064 -231 1035 -231 993 c 0
 -231 949 -264 921 -303 920 c 0
 -371 920 -411 990 -395 1052 c 0
 -377 1119 -322 1142 -230 1142 c 0
 -158 1142 -166 1193 -162 1194 c 2
 -101 1194 l 1
-305 955 m 0
 -256 955 -258 1030 -307 1030 c 0
 -356 1030 -354 955 -305 955 c 0
EndSplineSet
Fore
Refer: 200 3660 N 1 0 0 1 -56 0 2
Validated: 1
EndChar

StartChar: uni0E01
Encoding: 3585 3585 128
Width: 626
Flags: W
HStem: 0 21G<100 169 451 520> 532 61<183.801 400.142>
VStem: 100 69<0 375.439> 451 69<0 485.569>
LayerCount: 2
Fore
SplineSet
158 426 m 1
 121 461 47 484 23 487 c 1
 43 512 155 593 291 593 c 0
 429 593 520 530 520 422 c 2
 520 0 l 1
 451 0 l 1
 451 418 l 2
 451 500 387 532 298 532 c 0
 215 532 158 498 158 498 c 1
 176 493 254 441 271 423 c 1
 258 423 169 400 169 308 c 2
 169 0 l 1
 100 0 l 1
 100 322 l 2
 100 390 158 426 158 426 c 1
EndSplineSet
Validated: 1
EndChar

StartChar: uni0E02
Encoding: 3586 3586 129
Width: 648
Flags: W
HStem: 0 61<182 256 325 451.981> 352 50<91.4496 171.746> 532 61<180.681 274.436>
VStem: 34 50<409.386 488.673> 179 50<409.018 489.424> 256 69<61 364.016> 301 69<376.233 505.906> 461 69<70.8936 590>
LayerCount: 2
Fore
SplineSet
193 593 m 0xfb
 332 593 370 504 370 448 c 0xfb
 370 387 325 344 325 293 c 2
 325 61 l 1
 409 61 l 2
 435 61 461 72 461 115 c 2
 461 590 l 1
 530 590 l 1
 530 113 l 2
 530 19 478 0 425 0 c 2
 182 0 l 1
 182 61 l 1
 256 61 l 1
 256 280 l 2xfd
 256 376 301 380 301 447 c 0
 301 515 247 532 206 532 c 0
 196 532 187 531 179 529 c 1
 211 517 229 489 229 446 c 0
 229 403 199 352 129 352 c 0
 71 352 34 398 34 453 c 0
 34 507 73 593 193 593 c 0xfb
132 496 m 0
 101 496 84 472 84 448 c 0
 84 425 101 402 132 402 c 0
 163 402 179 426 179 450 c 0
 179 473 163 496 132 496 c 0
EndSplineSet
Validated: 1
EndChar

StartChar: uni0E03
Encoding: 3587 3587 130
Width: 677
Flags: W
HStem: 0 61<239 310 379 489.42> 260 50<112.354 192.059> 407 50<111.946 191.62> 570 20G<104.5 189.783 280.783 348 497 566>
VStem: 40 65<316.576 495.525> 199 50<316.398 400.133> 310 69<61 436.222> 350 69<443.09 512.606> 497 69<69.4792 590>
LayerCount: 2
Fore
SplineSet
446 61 m 2xfe80
 487 61 497 88 497 114 c 2
 497 590 l 1
 566 590 l 1
 566 113 l 2
 566 15 501 0 460 0 c 2
 239 0 l 1
 239 61 l 1
 310 61 l 1
 310 424 l 2xfe80
 310 428 350 457 350 477 c 0
 350 500 311 529 308 529 c 1
 235 492 l 1
 167 529 l 1
 116 505 106 453 106 443 c 1
 120 450 134 457 148 457 c 0
 225 457 249 396 249 357 c 0
 249 302 206 260 152 260 c 0
 106 260 40 293 40 399 c 0
 40 436 54 546 155 593 c 1
 235 547 l 1
 316 593 l 1
 380 556 419 495 419 493 c 2
 419 460 l 2xfd80
 419 458 397 429 379 417 c 1
 379 61 l 1
 446 61 l 2xfe80
152 310 m 0
 184 310 199 334 199 359 c 0
 199 383 184 407 152 407 c 0
 120 407 105 383 105 359 c 0
 105 334 120 310 152 310 c 0
EndSplineSet
Validated: 1
EndChar

StartChar: uni0E04
Encoding: 3588 3588 131
Width: 613
Flags: W
HStem: 0 21G<123 192 432 501> 227 50<192.342 268.169> 371 50<189.262 268.093> 532 61<172.383 365.198>
VStem: 26 69<276.166 455.887> 123 69<0 166.754> 126 56<283.067 363.57> 275 50<283.591 363.987> 432 69<0 470.827>
LayerCount: 2
Fore
SplineSet
26 377 m 0xfd80
 26 464 83 593 282 593 c 0
 419 593 501 510 501 397 c 2
 501 0 l 1
 432 0 l 1
 432 394 l 2
 432 477 375 532 267 532 c 0
 120 532 95 424 95 371 c 0
 95 305 123 256 126 253 c 1
 126 317 l 2xfb80
 126 353 150 421 224 421 c 0
 280 421 325 384 325 322 c 0
 325 266 280 227 230 227 c 0
 208 227 192 235 192 235 c 1
 192 0 l 1
 123 0 l 1
 123 98 l 2
 123 115 120 130 112 146 c 1
 90 197 26 284 26 377 c 0xfd80
228 277 m 0
 259 277 275 300 275 324 c 0
 275 348 259 371 228 371 c 0
 197 371 182 348 182 324 c 0
 182 300 197 277 228 277 c 0
EndSplineSet
Validated: 1
EndChar

StartChar: uni0E05
Encoding: 3589 3589 132
Width: 591
Flags: W
HStem: 0 21G<99.5 173 406 475> 226 50<209.865 294.652> 377 50<211.183 294.541> 573 20G<118 220.769 308.154 367.5>
VStem: 10 69<256.212 455.398> 101 72<0 78.7827> 303 50<284.644 369.158> 406 69<0 495.986>
LayerCount: 2
Fore
SplineSet
337 593 m 1
 398 580 475 528 475 414 c 2
 475 0 l 1
 406 0 l 1
 406 409 l 2
 406 479 381 516 343 535 c 1
 264 472 l 1
 181 535 l 1
 130 509 79 454 79 366 c 0
 79 299 120 204 123 199 c 1
 123 200 121 212 121 230 c 0
 121 319 146 427 247 427 c 0
 303 427 353 393 353 324 c 0
 353 274 323 226 244 226 c 0
 207 226 184 248 184 248 c 1
 181 231 171 172 171 80 c 0
 171 54 172 30 173 0 c 1
 101 0 l 1
 98 20 100 46 81 107 c 0
 59 181 10 253 10 359 c 0
 10 449 41 536 195 593 c 1
 262 541 l 1
 337 593 l 1
253 276 m 0
 287 276 303 301 303 326 c 0
 303 352 287 377 253 377 c 0
 219 377 201 352 201 326 c 0
 201 301 219 276 253 276 c 0
EndSplineSet
Validated: 1
EndChar

StartChar: uni0E06
Encoding: 3590 3590 133
Width: 770
Flags: W
HStem: -3 61<231.273 286.758 515.743 582.984> 190 61<235.433 288> 260 50<91.941 172.064> 406 50<91.9742 171.78> 570 20G<112.5 169.783 260.783 330.5 589 658>
VStem: 20 65<316.783 493.176> 162 61<62.7899 178.096> 180 50<316.884 398.467> 288 69<59.9856 144 251 436.435> 331 69<444.25 513.41> 589 69<60.3301 590>
DStem2: 357 234 357 144 0.715126 -0.698995<62.9096 267.961>
LayerCount: 2
Back
SplineSet
400 460 m 2xfd60
 400 457 378 436 357 415 c 1
 357 240 l 5
 490 110 l 6
 512 89 533 58 561 58 c 0
 586 58 589 98 589 122 c 2
 589 590 l 1
 658 590 l 1
 658 134 l 2
 658 87 658 39 619 15 c 0
 601 3 583 -3 564 -3 c 0
 537 -3 509 3 484 27 c 6
 357 150 l 5
 357 83 l 2
 357 37 319 -3 271 -3 c 0
 201 -3 162 54 162 117 c 0
 162 166 187 251 288 251 c 1
 288 425 l 2xfea0
 288 428 331 456 331 477 c 0xfc60
 331 503 290 529 288 529 c 2xfca0
 215 492 l 1
 147 529 l 1
 102 508 86 458 86 443 c 1
 100 449 115 456 130 456 c 0
 208 456 230 392 230 358 c 0
 230 302 185 260 131 260 c 0
 85 260 20 294 20 399 c 0
 20 512 90 570 135 593 c 1
 215 547 l 1
 296 593 l 1
 365 553 400 492 400 492 c 1
 400 460 l 2xfd60
132 310 m 0
 164 310 180 334 180 358 c 0xfd20
 180 382 164 406 132 406 c 0
 100 406 85 382 85 358 c 0
 85 334 100 310 132 310 c 0
258 58 m 0
 287 58 288 76 288 95 c 2
 288 190 l 1
 251 190 223 177 223 118 c 0xfea0
 223 86 235 58 258 58 c 0
EndSplineSet
Fore
SplineSet
400 460 m 2xfd60
 400 457 378 436 357 415 c 1
 357 234 l 1
 490 104 l 2
 512 83 533 58 561 58 c 0
 586 58 589 98 589 122 c 2
 589 590 l 1
 658 590 l 1
 658 134 l 2
 658 65 646 -3 564 -3 c 0
 537 -3 509 -3 484 21 c 2
 357 144 l 1
 357 83 l 2
 357 37 319 -3 271 -3 c 0
 201 -3 162 54 162 117 c 0
 162 166 187 251 288 251 c 1
 288 425 l 2xfea0
 288 428 331 456 331 477 c 0xfc60
 331 503 290 529 288 529 c 2xfca0
 215 492 l 1
 147 529 l 1
 102 508 86 458 86 443 c 1
 100 449 115 456 130 456 c 0
 208 456 230 392 230 358 c 0
 230 302 185 260 131 260 c 0
 85 260 20 294 20 399 c 0
 20 512 90 570 135 593 c 1
 215 547 l 1
 296 593 l 1
 365 553 400 492 400 492 c 1
 400 460 l 2xfd60
132 310 m 0
 164 310 180 334 180 358 c 0xfd20
 180 382 164 406 132 406 c 0
 100 406 85 382 85 358 c 0
 85 334 100 310 132 310 c 0
258 58 m 0
 287 58 288 76 288 95 c 2
 288 190 l 1
 251 190 223 177 223 118 c 0xfea0
 223 86 235 58 258 58 c 0
EndSplineSet
Validated: 1
EndChar

StartChar: uni0E07
Encoding: 3591 3591 134
Width: 496
Flags: W
HStem: -6 61<249.661 312.507> 228 63<37 109.993> 401 50<242.062 316.807> 543 50<241.939 321.709>
VStem: 185 50<458.329 535.488> 317 69<57.375 408> 328 58<457.036 535.18>
LayerCount: 2
Fore
SplineSet
185 495 m 0xfc
 185 558 231 593 285 593 c 0
 359 593 386 543 386 490 c 2xfa
 386 120 l 2
 386 75 382 34 345 12 c 0
 325 0 305 -6 285 -6 c 0
 257 -6 229 7 207 32 c 0
 170 74 162 164 110 207 c 0
 86 227 66 227 37 228 c 1
 37 291 l 1
 62 291 105 291 143 264 c 0
 223 207 224 55 283 55 c 0
 314 55 317 87 317 107 c 2
 317 408 l 1
 317 408 301 401 279 401 c 0
 232 401 185 434 185 495 c 0xfc
282 451 m 0
 313 451 328 474 328 497 c 0
 328 520 313 543 282 543 c 0
 251 543 235 520 235 497 c 0
 235 474 251 451 282 451 c 0
EndSplineSet
Validated: 1
EndChar

StartChar: uni0E08
Encoding: 3592 3592 135
Width: 551
Flags: W
HStem: -3 61<300.614 371.471> 212 50<151.361 224.807> 356 50<151.324 229.169> 532 61<140.928 323.844>
VStem: 94 50<268.4 349.6> 225 69<64.9433 219> 236 58<268.268 347.833> 376 69<62.0687 483.729>
LayerCount: 2
Fore
SplineSet
237 532 m 0xfd
 183 532 105 517 71 432 c 1
 12 460 l 1
 54 550 129 593 236 593 c 0xfb
 363 593 445 529 445 426 c 2
 445 95 l 2
 445 37 397 -3 331 -3 c 0
 270 -3 225 35 225 89 c 2
 225 219 l 1xfd
 225 219 210 212 189 212 c 0
 136 212 94 250 94 308 c 0
 94 370 138 406 192 406 c 0
 267 406 294 356 294 302 c 2xfb
 294 107 l 2
 294 84 305 58 337 58 c 0
 371 58 376 86 376 109 c 2
 376 418 l 2
 376 491 320 532 237 532 c 0xfd
190 262 m 0
 221 262 236 286 236 309 c 0
 236 332 221 356 190 356 c 0
 159 356 144 332 144 309 c 0
 144 286 159 262 190 262 c 0
EndSplineSet
Validated: 1
EndChar

StartChar: uni0E09
Encoding: 3593 3593 136
Width: 596
Flags: W
HStem: -3 61<222.739 277.107 473.74 527.654> 179 61<472 519.793> 199 50<76.2692 151.977> 341 50<76.8075 156.392> 532 61<158.585 347.754>
VStem: 20 50<255.979 334.227> 152 69<59.2035 205> 163 58<255.616 334.384> 403 69<59.2035 152 240 480.684> 534 60<62.1276 169.442>
AnchorPoint: "AboveBase" 479 654 basechar 0
LayerCount: 2
Fore
SplineSet
594 112 m 0xdec0
 594 26 548 -3 497 -3 c 0
 440 -3 408 34 408 80 c 2
 408 152 l 1
 408 152 392 149 351 84 c 0
 317 30 283 -3 238 -3 c 0
 199 -3 152 16 152 90 c 2
 152 205 l 1xdec0
 152 205 136 199 115 199 c 0
 63 199 20 235 20 295 c 0
 20 356 66 391 120 391 c 0
 193 391 221 340 221 288 c 2xbdc0
 221 103 l 2
 221 83 222 58 242 58 c 0
 273 58 300 112 330 158 c 0
 365 213 400 227 403 228 c 1
 403 418 l 2
 403 489 340 532 259 532 c 0
 179 532 121 505 86 437 c 1
 34 466 l 1
 62 519 122 593 254 593 c 0
 382 593 472 531 472 428 c 2
 472 240 l 1
 516 240 594 215 594 112 c 0xdec0
534 110 m 0
 534 133 523 182 482 182 c 0
 476 182 473 179 472 179 c 1
 472 95 l 2
 472 66 480 58 500 58 c 0
 522 58 534 82 534 110 c 0
117 249 m 0xbdc0
 147 249 163 272 163 295 c 0
 163 318 147 341 117 341 c 0
 85 341 70 318 70 295 c 0
 70 272 85 249 117 249 c 0xbdc0
EndSplineSet
Validated: 1
EndChar

StartChar: uni0E0A
Encoding: 3594 3594 137
Width: 602
Flags: W
HStem: 0 61<147 221 290 415.912> 352 50<57.7426 136.2> 532 61<145.096 239.305>
VStem: 0 50<409.102 489.005> 143 50<408.641 489.494> 221 69<61 364.016> 266 69<377.575 456.23> 425 69<69.1514 421.875>
LayerCount: 2
Back
SplineSet
144 533 m 1
 170.09 521.819 196 501.145 196 451 c 0
 196 415 176 353 94 353 c 0
 29 353 -5 402 -5 457 c 0
 -5 511 35 593 157 593 c 0
 297 593 335 508 335 452 c 0
 335 386 290 352 290 297 c 2
 290 66 l 1
 374 66 l 2
 404 66 426 82 426 120 c 2
 426 353 l 2
 426 383 423 406 400 429 c 0
 372 455 334 463 334 463 c 1
 317.333 514.332 l 1
 323.333 514.332 392 536 441 564 c 0
 492 592 529 636 529 638 c 1
 555 569 l 1
 552 567 530 543 486 524 c 0
 451 509 402 490 397 490 c 1
 406 490 493 457 493 371 c 2
 493 118 l 2
 493 27.99 449 5.24537e-06 389 0 c 2
 147 0 l 1
 147 66 l 1
 221 66 l 1
 221 284 l 2
 221 380 266 384 266 451 c 0
 266 519 211 536 171 536 c 0
 161 536 152 535 144 533 c 1
97 500 m 0
 66 500 50 476 50 453 c 0
 50 429 66 406 97 406 c 0
 128 406 143 430 143 453 c 0
 143 477 128 500 97 500 c 0
EndSplineSet
Fore
SplineSet
97 496 m 0xf9
 66 496 50 472 50 449 c 0
 50 425 66 402 97 402 c 0
 128 402 143 426 143 449 c 0
 143 473 128 496 97 496 c 0xf9
144 529 m 1
 170 518 193 497 193 447 c 0
 193 411 176 352 94 352 c 0
 29 352 0 398 0 453 c 0
 0 507 35 593 157 593 c 0
 249 593 297 552 319 511 c 1
 332 513 395 538 441 564 c 0
 492 592 529 636 529 638 c 2
 555 569 l 1
 552 567 530 543 486 524 c 0
 451 509 402 486 397 486 c 1
 406 486 494 453 494 367 c 2
 494 113 l 2
 494 23 449 0 389 0 c 2
 147 0 l 1
 147 61 l 1
 221 61 l 1
 221 280 l 2xfd
 221 376 266 380 266 447 c 0xfb
 266 515 211 532 171 532 c 0
 161 532 152 531 144 529 c 1
335 459 m 1xfb
 335 448 l 2xfb
 335 382 290 348 290 293 c 2
 290 61 l 1xfd
 374 61 l 2
 404 61 425 77 425 115 c 2
 425 349 l 2
 425 379 424 403 400 425 c 0
 374 449 339 458 335 459 c 1xfb
EndSplineSet
Validated: 1
EndChar

StartChar: uni0E0B
Encoding: 3595 3595 138
Width: 648
Flags: W
HStem: 0 61<202 276 345 473.055> 276 50<74.7039 153.882> 420 50<89.338 154.202> 581 20G<124.5 166.5 247 301>
VStem: 10 58<332.391 411.299> 161 50<333.2 413.941> 276 69<61 412> 481 69<68.7656 424.229>
LayerCount: 2
Back
SplineSet
431 66 m 2
 471 66 481 91.975 481 120 c 2
 481 353 l 2
 481 383 478 406 455 429 c 0
 429 455 391 463 391 463 c 1
 377 510 l 1
 380 510 448 536 497 564 c 0
 549 592 584 636 584 638 c 1
 610 569 l 1
 607 567 586 543 541 524 c 0
 506 509 457 490 452 490 c 1
 458.212 490 550 460.124 550 371 c 2
 550 118 l 2
 550 55 527 7.16867e-06 445 0 c 2
 202 0 l 1
 202 66 l 1
 276 66 l 1
 276 428 l 1
 322 475 l 1
 322 475 316 495 305 507 c 0
 287 529 274 532 274 532 c 1
 208 498 l 1
 143 532 l 1
 106.934 524.272 89 473.894 89 468 c 1
 89 468 100.481 470.816 116.493 470.816 c 0
 193.779 470.816 213.101 409.516 213.101 372.675 c 0
 213.101 329.928 188.253 273.849 116.139 273.849 c 0
 73.7948 273.849 10.2782 290.736 10.2782 402.738 c 0
 10.2782 543.439 123.196 595 126 595 c 1
 207 561 l 1
 287 593 l 1
 290 593 328 578 348 553 c 0
 359 538 374 523 379 507 c 2
 391 463 l 1
 345 412 l 1
 345 66 l 1
 431 66 l 2
115 420 m 0
 83.122 420 67.1182 395.933 67.1182 372.154 c 0
 67.1182 348.939 82.372 326 113 326 c 0
 144.378 326 160.132 350.077 160.132 373.86 c 0
 160.132 397.07 145.128 420 115 420 c 0
EndSplineSet
Fore
SplineSet
116 420 m 0
 84 420 68 396 68 372 c 0
 68 349 83 326 114 326 c 0
 145 326 161 350 161 374 c 0
 161 397 146 420 116 420 c 0
431 61 m 2
 471 61 481 87 481 115 c 2
 481 353 l 2
 481 383 478 406 455 429 c 0
 429 455 391 463 391 463 c 1
 345 412 l 1
 345 61 l 1
 431 61 l 2
378 510 m 1
 386 513 449 538 497 564 c 0
 549 592 584 636 584 638 c 2
 610 569 l 1
 607 567 586 543 541 524 c 0
 506 509 457 490 452 490 c 1
 458 490 550 460 550 371 c 2
 550 113 l 2
 550 50 527 0 445 0 c 2
 202 0 l 1
 202 61 l 1
 276 61 l 1
 276 428 l 1
 322 475 l 1
 314 500 292 526 274 532 c 1
 208 500 l 1
 143 532 l 1
 107 524 89 473 89 467 c 1
 89 467 100 470 116 470 c 0
 194 470 211 410 211 373 c 0
 211 330 188 276 116 276 c 0
 74 276 10 291 10 403 c 0
 10 543 123 601 126 601 c 1
 207 561 l 1
 287 601 l 1
 315 591 352 562 378 510 c 1
EndSplineSet
Validated: 1
EndChar

StartChar: uni0E0C
Encoding: 3596 3596 139
Width: 792
Flags: W
HStem: -3 61<342.104 384.087 566.677 631.85> -3 50<135.744 215.378> 139 50<140.423 215.082> 178 61<345.756 385> 532 61<147.605 346.757>
VStem: 71 69<183 373.997> 71 58<53.0688 132.964> 222 50<53.0729 132.168> 283 54<59.8427 171.687> 385 69<58.0154 149 235.165 497.689> 605 69<58.2282 590>
LayerCount: 2
Fore
SplineSet
272 95 m 0x2de0
 272 32 226 -3 173 -3 c 0
 99 -3 71 48 71 100 c 2x6be0
 71 322 l 2x6de0
 71 390 129 426 129 426 c 1
 91 462 16 484 -6 487 c 1
 14 513 104 593 245 593 c 0
 382 593 454 535 454 449 c 2
 454 228 l 1
 454 228 487 224 521 167 c 0
 543 130 568 58 590 58 c 0
 604 58 605 87 605 101 c 2
 605 590 l 1
 674 590 l 1
 674 93 l 2
 674 51 660 -3 604 -3 c 0
 572 -3 547 14 524 52 c 0
 490 107 454 149 454 149 c 1
 454 69 l 2
 454 36 424 -3 379 -3 c 0
 318 -3 283 53 283 115 c 0
 283 217 345 233 385 239 c 1x9be0
 385 446 l 2
 385 503 335 532 243 532 c 0
 159 532 130 498 130 498 c 1
 148 498 243 423 243 423 c 1
 232 423 140 400 140 308 c 2
 140 183 l 1
 150 187 162 189 174 189 c 0
 219 189 272 163 272 95 c 0x2de0
337 112 m 0
 337 85 344 58 367 58 c 0
 376 58 385 69 385 78 c 2
 385 178 l 1x99e0
 364 178 337 176 337 112 c 0
175 47 m 0x6be0
 207 47 222 70 222 93 c 0
 222 116 207 139 175 139 c 0
 144 139 129 116 129 93 c 0
 129 70 144 47 175 47 c 0x6be0
EndSplineSet
Validated: 1
EndChar

StartChar: uni0E0D
Encoding: 3597 3597 140
Width: 800
Flags: W
HStem: -278 61<465.494 558.205> -104 47<378.32 452.097> -3 50<148.802 226.767> 0 61<353 395 464 622.777> 138 50<152.08 227.628> 532 61<146.779 359.148>
VStem: 83 69<182 375.439> 83 58<55.2602 131.419> 234 50<53.9166 131.796> 323 50<-185.591 -108.933> 395 69<61 499.486> 457 50<-184.486 -109.193> 612 69<-160.053 -55> 627 69<63.8039 590>
LayerCount: 2
Back
SplineSet
717 110 m 1
 717 110 l 0
 717 86 719 64 707 43 c 0
 693 15 665 0 635 0 c 2
 388 0 l 5
 388 66 l 1
 431 66 l 1
 431 445 l 2
 431 503 383 532 296 532 c 0
 210 532 176 498 176 498 c 2
 179 498 208 483 233 466 c 0
 258 451 290 423 290 423 c 1
 285 423 244 415 218 386 c 0
 198 366 187 339 187 308 c 2
 187 184 l 1
 187 184 225 199 264 182 c 0
 302 167 325 129 317 77 c 0
 310 29 270 -2 219 -2 c 0
 146 -2 118 49 118 101 c 2
 118 322 l 2
 118 340 124 365 139 389 c 0
 152 412 176 426 176 426 c 1
 176 426 150 451 116 463 c 0
 86 475 69 483 41 487 c 1
 61 513 152 587 293 593 c 0
 434 599 500 527 500 448 c 2
 500 66 l 1
 612 66 l 2
 622 66 632 69 641 80 c 0
 650 90 648 101 648 113 c 2
 648 590 l 1
 717 590 l 1
 717 110 l 1
711 -61 m 1
 711 -61 l 0
 713 -78 710 -149 679 -198 c 0
 655 -239 604 -279 535 -284 c 0
 449 -288 365 -254 357 -170 c 0
 351 -123 374 -64 446 -63 c 0
 513 -63 549 -118 536 -175 c 0
 529 -212 500 -218 498 -218 c 0
 500 -218 524 -230 559 -218 c 0
 595 -207 616 -185 632 -152 c 0
 644 -121 645 -61 645 -61 c 1
 711 -61 l 1
219 49 m 0
 219 49 l 0
 282 49 282 141 219 141 c 0
 158 141 158 49 219 49 c 0
449 -110 m 0
 394 -110 392 -196 448 -196 c 0
 504 -196 506 -110 449 -110 c 0
EndSplineSet
Fore
SplineSet
590 61 m 2xdde0
 610 61 627 72 627 102 c 2
 627 590 l 1
 696 590 l 1
 696 82 l 2
 696 12 640 0 615 0 c 2
 353 0 l 1
 353 61 l 1
 395 61 l 1
 395 445 l 2
 395 497 361 532 250 532 c 0
 171 532 129 501 129 501 c 1
 157 501 254 423 254 423 c 1
 241 423 152 400 152 308 c 2
 152 182 l 1xdee4
 152 182 167 188 189 188 c 0
 222 188 284 169 284 96 c 0
 284 35 241 -3 184 -3 c 0
 110 -3 83 48 83 100 c 2xedc0
 83 322 l 2xeec0
 83 390 141 426 141 426 c 1
 105 460 33 483 6 487 c 1
 26 513 122 593 274 593 c 0
 404 593 464 524 464 448 c 2
 464 61 l 1
 590 61 l 2xdde0
188 47 m 0xedc0
 219 47 234 70 234 93 c 0
 234 115 219 138 188 138 c 0
 157 138 141 115 141 93 c 0
 141 70 157 47 188 47 c 0xedc0
507 -146 m 0xccd8
 507 -201 471 -212 465 -212 c 1
 466 -212 477 -217 495 -217 c 0
 570 -217 612 -156 612 -66 c 2
 612 -55 l 1
 681 -55 l 1
 681 -66 l 2
 681 -188 603 -278 489 -278 c 0
 405 -278 323 -241 323 -150 c 0
 323 -106 348 -58 413 -57 c 0
 471 -57 507 -98 507 -146 c 0xccd8
415 -104 m 0
 387 -104 373 -126 373 -148 c 0
 373 -169 386 -190 414 -190 c 0
 442 -190 457 -168 457 -146 c 0
 457 -125 443 -104 415 -104 c 0
EndSplineSet
Validated: 1
Substitution2: "'ccmp' Pali-Sanskrit Descender Removal" uni0E0D.descless
Substitution2: "Thai Descender Removal Single Substitution" uni0E0D.descless
EndChar

StartChar: uni0E0E
Encoding: 3598 3598 141
Width: 668
Flags: W
HStem: -303 61<129.446 220.713> -163 61<131.573 250.977> -28 20G<320 389> -3 50<90.7536 170.597> 139 50<91.2471 165.682> 532 61<245.748 444.178>
VStem: 34 50<54.4936 131.955> 57 69<-237.935 -170.646> 166 69<183 375.099> 178 57<55.2602 132.384> 320 69<-99.6904 -8> 487 69<-153 490.062>
AnchorPoint: "BelowBase" 554 -311 basechar 0
LayerCount: 2
Fore
SplineSet
222 426 m 1xfeb0
 187 463 108 484 89 487 c 1
 107 513 212 593 348 593 c 0
 486 593 556 524 556 418 c 2
 556 -162 l 1
 405 -317 l 1
 376 -280 336 -236 307 -218 c 1
 287 -242 236 -303 160 -303 c 0
 122 -303 57 -284 57 -213 c 0
 57 -150 110 -102 188 -102 c 0
 242 -102 283 -130 285 -132 c 1
 306 -98 320 -36 320 -8 c 1
 389 -8 l 1
 389 -76 336 -164 336 -164 c 1
 408 -225 l 1
 487 -153 l 1
 487 415 l 2
 487 497 442 532 355 532 c 0
 263 532 225 499 222 498 c 1
 243 498 336 423 336 423 c 1
 330 423 235 405 235 308 c 2xfdb0
 235 100 l 2xfc70
 235 48 207 -3 133 -3 c 0
 80 -3 34 33 34 94 c 0
 34 153 76 189 129 189 c 0
 150 189 166 183 166 183 c 1
 166 322 l 2
 166 394 221 425 222 426 c 1xfeb0
131 47 m 0
 162 47 178 70 178 93 c 0
 178 116 162 139 131 139 c 0
 100 139 84 116 84 93 c 0xfe70
 84 70 100 47 131 47 c 0
166 -242 m 0xfdb0
 214 -242 251 -192 251 -179 c 0
 251 -178 215 -163 180 -163 c 0
 138 -163 126 -187 126 -205 c 0
 126 -227 142 -242 166 -242 c 0xfdb0
EndSplineSet
Validated: 1
EndChar

StartChar: uni0E0F
Encoding: 3599 3599 142
Width: 663
Flags: W
HStem: -312 61<119.044 179.096> -159 61<123.685 202.678> -29 20G<264 325> -3 50<91.5034 171.524> 139 50<92.458 166.807> 532 61<246.841 449.309>
VStem: 35 50<53.9957 131.509> 61 56<-249.793 -163.258> 167 69<183 375.439> 178 58<53.0688 132.964> 264 61<-110.618 -9> 486 69<-204.015 498.643>
AnchorPoint: "BelowBase" 550 -311 basechar 0
LayerCount: 2
Fore
SplineSet
224 426 m 1xfeb0
 185 465 108 484 90 487 c 1
 109 513 213 593 349 593 c 0
 486 593 555 536 555 443 c 2
 555 -159 l 1
 540 -210 501 -274 437 -310 c 1
 369 -216 l 1
 299 -311 l 1
 247 -238 l 1
 225 -281 187 -312 148 -312 c 0
 78 -312 61 -250 61 -211 c 0
 61 -157 96 -98 150 -98 c 0
 193 -98 230 -133 233 -138 c 1
 238 -126 264 -48 264 -9 c 1
 325 -9 l 1
 325 -29 304 -137 276 -178 c 1
 296 -213 l 1
 369 -106 l 1
 445 -222 l 1
 467 -209 484 -176 486 -159 c 1
 486 440 l 2
 486 500 446 532 353 532 c 0
 267 532 224 498 224 498 c 1
 245 498 337 423 337 423 c 1
 325 423 236 400 236 308 c 2xfdb0
 236 100 l 2xfc70
 236 48 208 -3 135 -3 c 0
 79 -3 35 34 35 96 c 0
 35 154 78 189 130 189 c 0
 152 189 167 183 167 183 c 1
 167 322 l 2
 167 391 224 426 224 426 c 1xfeb0
132 47 m 0
 163 47 178 70 178 93 c 0
 178 116 163 139 132 139 c 0
 101 139 85 116 85 93 c 0xfe70
 85 70 101 47 132 47 c 0
117 -212 m 0xfd30
 117 -240 129 -251 147 -251 c 0
 178 -251 207 -184 207 -184 c 1
 207 -184 178 -159 155 -159 c 0
 132 -159 117 -180 117 -212 c 0xfd30
EndSplineSet
Validated: 1
EndChar

StartChar: uni0E10
Encoding: 3600 3600 143
Width: 530
Flags: W
HStem: -290 52<52.904 103.316> -180 43<320.569 372.579> -174 52<52.2759 108.901> -76 42<320.879 376.911> -3 61<283.791 354.471> 157 50<135.326 207.786> 299 50<135.706 215.531> 504 61<305.578 473.113> 519 60<427.314 468> 532 61<163.18 364.724>
VStem: 0 51<-237.578 -174.482> 77 52<213.073 292.227> 160 58<-141.587 -38> 208 69<64.9433 164> 222 55<213.036 291.528> 273 46<-135.337 -77.6603> 359 69<62.0687 375.095> 373 54<-198 -176 -136.934 -77.875>
LayerCount: 2
Fore
SplineSet
245 593 m 0x9e7480
 304 593 363 565 414 565 c 0x9f3480
 442 565 466 579 468 579 c 1
 486 519 l 1x9eb480
 484 519 454 504 426 504 c 0x9f3480
 357 504 317 532 247 532 c 0
 177 532 150 501 150 501 c 1
 150 501 284 493 371 433 c 0
 405 409 428 372 428 324 c 2
 428 95 l 2
 428 37 380 -3 314 -3 c 0
 254 -3 208 35 208 89 c 2
 208 164 l 1x9e7480
 208 164 193 157 171 157 c 0
 121 157 77 194 77 253 c 0
 77 314 123 349 176 349 c 0
 250 349 277 299 277 247 c 2x9e72
 277 107 l 2
 277 84 288 58 320 58 c 0
 354 58 359 86 359 109 c 2
 359 317 l 2
 359 375 308 411 236 430 c 0
 150 453 80 459 40 459 c 1
 72 520 121 593 245 593 c 0x9e7480
176 207 m 0
 207 207 222 230 222 253 c 0x9e32
 222 276 207 299 176 299 c 0
 144 299 129 276 129 253 c 0
 129 230 144 207 176 207 c 0
347 -34 m 0
 375 -34 427 -45 427 -127 c 2
 427 -225 l 1
 321 -296 l 1
 253 -250 l 1
 174 -296 l 1
 164 -274 158 -264 145 -247 c 1
 137 -259 109 -290 82 -290 c 0
 31 -290 0 -249 0 -206 c 0
 0 -149 47 -122 78 -122 c 0xbe3940
 102 -122 127 -132 138 -143 c 1
 150 -113 157 -74 160 -38 c 1
 218 -38 l 1
 216 -84 200 -152 178 -190 c 1
 195 -221 l 1
 255 -189 l 1
 321 -230 l 1
 373 -198 l 1
 373 -176 l 1
 364 -179 356 -180 347 -180 c 0
 304 -180 273 -147 273 -106 c 0xde3940
 273 -63 306 -34 347 -34 c 0
349 -76 m 0
 334 -76 319 -86 319 -106 c 0
 319 -123 331 -137 349 -137 c 0xde31
 364 -137 379 -127 379 -108 c 0
 379 -82 361 -76 349 -76 c 0
109 -195 m 1
 109 -192 88 -174 71 -174 c 0xbe30
 59 -174 51 -188 51 -205 c 0
 51 -221 59 -238 75 -238 c 0
 105 -238 108 -197 109 -195 c 1
EndSplineSet
Validated: 1
Substitution2: "'ccmp' Pali-Sanskrit Descender Removal" uni0E10.descless
Substitution2: "Thai Descender Removal Single Substitution" uni0E10.descless
EndChar

StartChar: uni0E11
Encoding: 3601 3601 144
Width: 815
Flags: W
HStem: 0 21G<296 369 633 702> 264 46<98.0631 178.758> 406 46<97.8044 178.522> 532 61<576.438 629.739>
VStem: 26 65<317.584 493.479> 186 44<317.232 398.407> 296 69<0 126.879 235 436.435> 337 69<443.319 513.41> 633 69<0 529.128>
LayerCount: 2
Back
SplineSet
608 590 m 0xfe80
 648 590 702 542 702 487 c 2
 702 0 l 1
 633 0 l 1
 633 474 l 2
 633 496 621 514 602 514 c 0
 587 514 572 497 567 489 c 1
 555 481 386 174 374 84 c 0
 370 52 369 32 369 0 c 1
 296 0 l 1
 296 425 l 2xfe80
 296 428 337 456 337 477 c 0
 337 503 296 529 294 529 c 2
 221 492 l 1
 153 529 l 1
 136 521 123 512 113 495 c 1
 101 477 92 457 92 443 c 1
 107 449 122 452 136 452 c 0
 213 452 230 394 230 358 c 0
 230 302 191 265 138 265 c 0
 85 265 26 301 26 400 c 0
 26 433 34 468 49 498 c 0
 71 544 97 570 141 593 c 1
 221 547 l 1
 302 593 l 1
 371 553 406 492 406 492 c 1
 406 460 l 2xfd80
 406 458 381 429 365 415 c 1
 365 235 l 1
 379 282 417 359 454 426 c 0
 488 489 546 590 608 590 c 0xfe80
138 310 m 0
 170 310 186 334 186 358 c 0
 186 382 170 406 138 406 c 0
 106 406 91 382 91 358 c 0
 91 334 106 310 138 310 c 0
EndSplineSet
Fore
SplineSet
608 593 m 0xfe80
 648 593 702 560 702 505 c 2
 702 0 l 1
 633 0 l 1
 633 492 l 2
 633 514 621 532 602 532 c 0
 587 532 572 504 565 492 c 0
 557 480 386 174 374 84 c 0
 370 52 369 32 369 0 c 1
 296 0 l 1
 296 425 l 2xfe80
 296 428 337 456 337 477 c 0
 337 503 296 529 294 529 c 2
 221 492 l 1
 153 529 l 1
 136 521 92 486 92 443 c 1
 107 449 122 452 136 452 c 0
 213 452 230 394 230 358 c 0
 230 302 191 264 138 264 c 0
 85 264 26 301 26 400 c 0
 26 512 97 570 141 593 c 1
 221 547 l 1
 302 593 l 1
 371 553 406 492 406 492 c 1
 406 460 l 2xfd80
 406 458 381 429 365 415 c 1
 365 235 l 1
 379 282 417 359 454 426 c 0
 488 489 546 593 608 593 c 0xfe80
138 310 m 0
 170 310 186 334 186 358 c 0
 186 382 170 406 138 406 c 0
 106 406 91 382 91 358 c 0
 91 334 106 310 138 310 c 0
EndSplineSet
Validated: 1
EndChar

StartChar: uni0E12
Encoding: 3602 3602 145
Width: 820
Flags: W
HStem: -3 61<382.95 426.709 592.931 631.806> 236 45<191.907 230> 379 45<189.316 271.393> 575 15G<153 227 333 376.5 633 702>
VStem: 20 69<255.131 454.866> 134 48<290.346 371.855> 135 73<0 94.9706> 280 49<287.449 370.396> 319 55<62.7221 180.163> 428 69<58.4026 151 247.186 494.453> 633 69<58.7218 590>
DStem2: 201 595 192 530 0.814365 -0.580352<20.3424 98.3416> 279 535 279 468 0.804574 0.593852<0 75.4147>
LayerCount: 2
Fore
SplineSet
360 595 m 1xfb60
 393 582 497 528 497 428 c 2
 497 230 l 2
 497 228 520 216 540 182 c 0
 579 113 593 58 620 58 c 0
 631 58 633 66 633 92 c 2
 633 590 l 1
 702 590 l 1
 702 92 l 2
 702 38 690 -3 628 -3 c 0
 581 -3 554 48 532 89 c 0
 505 140 505 132 495 151 c 1
 495 72 l 2
 495 46 479 -3 417 -3 c 0
 358 -3 319 55 319 123 c 0
 319 225 396 249 428 251 c 1
 428 428 l 2
 428 493 384 524 363 530 c 1
 279 468 l 1
 192 530 l 1
 100 486 89 408 89 362 c 0
 89 309 106 259 132 205 c 0
 156 155 170 113 172 110 c 1
 175 125 216 209 230 236 c 1
 221 236 l 2
 175 236 134 270 134 327 c 0xfce0
 134 377 170 424 230 424 c 0
 292 424 329 377 329 329 c 0
 329 257 249 180 219 72 c 0
 210 38 210 32 208 0 c 1
 135 0 l 1
 135 3 130 46 112 100 c 0
 78 199 20 253 20 355 c 0
 20 503 105 556 201 595 c 1
 279 535 l 1
 360 595 l 1xfb60
280 328 m 0xfd60
 280 357 259 379 230 379 c 0
 201 379 182 360 182 331 c 0
 182 302 204 281 233 281 c 0
 262 281 280 299 280 328 c 0xfd60
428 199 m 1
 386 187 374 153 374 123 c 0xf8e0
 374 91 386 58 408 58 c 0
 425 58 428 68 428 79 c 2
 428 199 l 1
EndSplineSet
Validated: 1
EndChar

StartChar: uni0E13
Encoding: 3603 3603 146
Width: 818
Flags: W
HStem: -3 61<696.597 755.819> -3 50<150.291 229.609> 139 50<155.193 230.47> 195 61<694 748.023> 532 61<166.058 369.304>
VStem: 86 69<183 375.439> 86 58<53.0688 132.964> 237 50<54.2066 132.037> 405 69<115 498.333> 625 69<60.3218 182 256 590> 763 58<63.2779 180.597>
AnchorPoint: "AboveBase" 701 659 basechar 0
LayerCount: 2
Fore
SplineSet
694 256 m 1x7be0
 750 256 821 229 821 120 c 0
 821 39 775 -3 717 -3 c 0
 650 -2 628 44 628 86 c 2
 628 182 l 1
 516 111 479 0 472 0 c 2
 405 0 l 1
 405 443 l 2
 405 497 366 532 271 532 c 0
 185 532 144 498 144 498 c 1xbbe0
 163 498 258 423 258 423 c 1
 245 423 155 400 155 308 c 2
 155 183 l 1xbde0
 155 183 170 189 192 189 c 0
 225 189 287 169 287 96 c 0
 287 35 244 -3 187 -3 c 0
 113 -3 86 48 86 100 c 2x7be0
 86 322 l 2x7de0
 86 389 144 426 144 426 c 1
 108 460 36 483 9 487 c 1
 29 513 132 593 268 593 c 0
 409 593 474 532 474 446 c 2
 474 115 l 1
 475 118 507 169 547 202 c 0
 584 233 622 250 625 250 c 1
 625 590 l 1
 694 590 l 1
 694 256 l 1x7be0
763 116 m 0
 763 192 720 195 694 195 c 1
 694 95 l 2
 694 72 709 58 725 58 c 0
 743 58 763 73 763 116 c 0
190 47 m 0x7be0
 221 47 237 70 237 93 c 0
 237 116 221 139 190 139 c 0
 159 139 144 116 144 93 c 0
 144 70 159 47 190 47 c 0x7be0
EndSplineSet
Validated: 1
EndChar

StartChar: uni0E14
Encoding: 3604 3604 147
Width: 614
Flags: W
HStem: 0 21G<152 214 433 502> 230 50<216.619 253> 381 50<215.529 299.087> 532 61<186.123 364.882>
VStem: 37 69<258.547 450.842> 157 50<0 68.6763 288.405 373.082> 308 50<288.244 372.334> 433 69<0 472.971>
LayerCount: 2
Fore
SplineSet
37 367 m 0
 37 506 157 593 271 593 c 0
 418 593 502 510 502 411 c 2
 502 0 l 1
 433 0 l 1
 433 405 l 2
 433 480 369 532 274 532 c 0
 179 531 106 471 106 356 c 0
 106 304 121 265 148 216 c 0
 178 160 190 123 193 123 c 0
 196 123 224 185 253 230 c 1
 212 232 157 269 157 330 c 0
 157 384 196 431 257 431 c 0
 312 431 358 389 358 332 c 0
 358 295 339 257 320 225 c 2
 238 87 l 2
 222 61 216 34 212 0 c 1
 152 0 l 1
 152 18 154 29 154 42 c 0
 154 121 37 220 37 367 c 0
258 280 m 0
 292 280 308 305 308 331 c 0
 308 356 292 381 258 381 c 0
 224 381 207 356 207 331 c 0
 207 305 224 280 258 280 c 0
EndSplineSet
Validated: 1
EndChar

StartChar: uni0E15
Encoding: 3605 3605 148
Width: 645
Flags: W
HStem: 0 21G<174 250 464 533> 230 50<235.632 283.669> 381 50<235.879 321.534> 575 20G<179.5 278.769 366.154 420.5>
VStem: 54 69<270.694 455.364> 176 74<0 71.8026> 177 50<288.875 371.761> 330 50<287.96 372.047> 464 69<0 497.934>
LayerCount: 2
Back
SplineSet
280 428 m 0xfb80
 336 428 378 391 378 334 c 0
 378 261 314 176 277 84 c 1
 265 57 250 40 250 0 c 1
 176 0 l 1xfd80
 172 40 173 54 156 107 c 1
 133 185 54 260 54 371 c 0
 54 461 106 556 253 595 c 1
 320 543 l 1
 395 595 l 1
 431 587 463 570 492 536 c 5
 520 506 533 468 533 415 c 2
 533 0 l 1
 464 0 l 1
 464 409 l 2
 464 446 464 464 448 489 c 4
 432 513 423 523 402 532 c 1
 322 474 l 1
 239 532 l 1
 139 495 123 424 123 357 c 0
 123 304 137 263 166 216 c 0
 199 162 215 107 218 107 c 0
 219 107 265 203 284 230 c 1
 196 234 178 301 178 332 c 0
 178 388 220 428 280 428 c 0xfb80
279 280 m 0
 313 280 330 305 330 330 c 0
 330 356 313 381 279 381 c 0
 244 381 227 356 227 330 c 0xfb80
 227 305 244 280 279 280 c 0
EndSplineSet
Fore
SplineSet
280 431 m 0xfb80
 336 431 380 391 380 334 c 0
 380 261 314 176 277 84 c 0
 266 57 250 40 250 0 c 1
 176 0 l 1xfd80
 172 40 172 54 156 107 c 0
 133 185 54 260 54 371 c 0
 54 461 106 556 253 595 c 1
 320 543 l 1
 395 595 l 1
 446 584 533 539 533 415 c 2
 533 0 l 1
 464 0 l 1
 464 409 l 2
 464 485 438 517 402 532 c 1
 322 474 l 1
 239 532 l 1
 139 495 123 424 123 357 c 0
 123 304 137 263 166 216 c 0
 199 162 215 107 218 107 c 0
 219 107 265 203 284 230 c 1
 196 234 177 301 177 332 c 0
 177 388 220 431 280 431 c 0xfb80
279 280 m 0
 313 280 330 305 330 330 c 0
 330 356 313 381 279 381 c 0
 244 381 227 356 227 330 c 0xfb80
 227 305 244 280 279 280 c 0
EndSplineSet
Validated: 1
EndChar

StartChar: uni0E16
Encoding: 3606 3606 149
Width: 628
Flags: W
HStem: -3 50<165.608 245.628> 139 50<170.023 245.731> 532 61<185.178 401.618>
VStem: 101 69<183 374.924> 101 58<53.6164 132.384> 252 50<53.7057 132.9> 452 69<0 485.569>
LayerCount: 2
Fore
SplineSet
159 426 m 1xee
 119 465 43 484 25 487 c 1
 44 512 156 593 293 593 c 0
 431 593 521 530 521 422 c 2
 521 0 l 1
 452 0 l 1
 452 418 l 2
 452 500 388 532 300 532 c 0
 217 532 159 498 159 498 c 1xee
 168 498 273 429 273 423 c 1
 261 423 170 400 170 308 c 2
 170 183 l 1xf6
 170 183 185 189 207 189 c 0
 259 189 302 154 302 96 c 0
 302 34 258 -3 202 -3 c 0
 129 -3 101 48 101 100 c 2xee
 101 322 l 2xf6
 101 387 159 426 159 426 c 1xee
205 47 m 0
 237 47 252 70 252 93 c 0
 252 116 237 139 205 139 c 0
 175 139 159 116 159 93 c 0
 159 70 175 47 205 47 c 0
EndSplineSet
Validated: 1
EndChar

StartChar: uni0E17
Encoding: 3607 3607 150
Width: 691
Flags: W
HStem: 0 21G<176 245 512 581> 401 50<100.399 175.977> 532 61<437.401 506.404> 543 50<101.259 179.224>
VStem: 44 50<457.673 536.782> 176 69<0 183.958 300 407> 187 58<457.616 536.384> 512 69<0 529.77>
LayerCount: 2
Back
SplineSet
245 300 m 1xdd
 339 495 395 593 475 593 c 0
 580 593 581 498 581 453 c 6
 581 0 l 1
 512 0 l 1
 512 462 l 6
 512 500 511 535 478 535 c 4
 463 535 445 527 432 508 c 4
 405 467 320 349 276 219 c 0
 247 136 245 89 245 0 c 1
 176 0 l 1
 176 407 l 1xed
 176 407 161 401 139 401 c 0
 106 401 44 421 44 494 c 0
 44 553 87 593 144 593 c 0
 218 593 245 542 245 490 c 2xdb
 245 300 l 1xdd
144 450 m 0
 174 450 190 473 190 496 c 0
 190 519 174 542 144 542 c 0xdb
 112 542 97 519 97 496 c 0
 97 473 112 450 144 450 c 0
EndSplineSet
Fore
SplineSet
245 300 m 1xdd
 339 495 395 593 475 593 c 0
 580 593 581 495 581 450 c 2
 581 0 l 1
 512 0 l 1
 512 459 l 2
 512 497 511 532 478 532 c 0
 463 532 445 524 432 505 c 0
 245 221 245 120 245 0 c 1
 176 0 l 1
 176 407 l 1xed
 176 407 161 401 139 401 c 0
 106 401 44 421 44 494 c 0
 44 553 87 593 144 593 c 0
 218 593 245 542 245 490 c 2xdb
 245 300 l 1xdd
141 451 m 0
 171 451 187 474 187 497 c 0
 187 520 171 543 141 543 c 0xdb
 109 543 94 520 94 497 c 0
 94 474 109 451 141 451 c 0
EndSplineSet
Validated: 1
EndChar

StartChar: uni0E18
Encoding: 3608 3608 151
Width: 548
Flags: W
HStem: 0 61<86 153 222 364.681> 501 61<288.851 491.106> 532 61<116.11 337.929>
VStem: 153 69<61 416> 368 69<63.4822 353.279>
LayerCount: 2
Fore
SplineSet
101 494 m 1xb8
 206 488 299 462 346 432 c 0
 399 398 418 377 437 335 c 1
 437 84 l 2
 437 39 398 0 349 0 c 2
 86 0 l 1
 86 61 l 1
 153 61 l 1
 153 433 l 1
 118 439 81 443 40 443 c 0
 30 443 26 449 26 458 c 0
 26 476 40 511 52 527 c 0
 89 574 132 593 211 593 c 0xb8
 294 593 329 563 418 562 c 0
 452 562 484 573 503 594 c 1
 533 537 l 1
 507 520 479 501 426 501 c 0xd8
 366 501 273 532 216 532 c 0
 150 532 126 527 101 494 c 1xb8
368 97 m 2
 368 317 l 1
 354 349 343 364 305 386 c 0
 279 400 250 412 222 416 c 1
 222 61 l 1
 332 61 l 2
 354 61 368 77 368 97 c 2
EndSplineSet
Validated: 1
EndChar

StartChar: uni0E19
Encoding: 3609 3609 152
Width: 668
Flags: W
HStem: -3 61<523.551 573.668> 210 61<392.177 451 520 569.219> 399 50<72.9526 146.807> 543 50<72.005 150.083>
VStem: 15 50<456.583 535.667> 147 69<0 43.7637 119 405> 158 58<455.268 535.62> 451 69<59.207 210 271 590> 582 64<62.4812 197.923>
AnchorPoint: "AboveBase" 527 659 basechar 0
LayerCount: 2
Fore
SplineSet
646 131 m 0xfd80
 646 33 587 -3 539 -3 c 0
 460 -3 451 73 451 115 c 2
 451 210 l 1
 402 210 262 121 216 0 c 1
 147 0 l 1
 147 405 l 1xfd80
 147 405 132 399 110 399 c 0
 59 399 15 437 15 494 c 0
 15 555 60 593 115 593 c 0
 189 593 216 544 216 490 c 2xfb80
 216 119 l 1
 216 119 254 173 322 218 c 0
 377 254 446 271 451 271 c 1
 451 590 l 1
 520 590 l 1
 520 270 l 1
 590 270 646 221 646 131 c 0xfd80
582 126 m 0
 582 200 554 210 520 210 c 1
 520 116 l 2
 520 75 523 58 545 58 c 0
 575 58 582 98 582 126 c 0
112 449 m 0
 143 449 158 473 158 496 c 0xfb80
 158 519 143 543 112 543 c 0
 81 543 65 519 65 496 c 0
 65 473 81 449 112 449 c 0
EndSplineSet
Validated: 1
EndChar

StartChar: uni0E1A
Encoding: 3610 3610 153
Width: 636
Flags: W
HStem: 0 61<74 147 216 458.117> 401 50<78.8232 146.876> 543 50<79.6461 154.677>
VStem: 23 50<456.391 537.012> 147 69<61 407> 161 55<457.036 536.931> 463 69<66.3227 590>
LayerCount: 2
Fore
SplineSet
418 61 m 2xfa
 433 61 463 69 463 99 c 2
 463 590 l 1
 532 590 l 1
 532 84 l 2
 532 26 487 0 441 0 c 2
 74 0 l 1
 74 61 l 1
 147 61 l 1
 147 407 l 1xfa
 147 407 133 401 113 401 c 0
 65 401 23 435 23 493 c 0
 23 571 79 593 117 593 c 0
 187 593 216 542 216 490 c 2xf6
 216 61 l 1
 418 61 l 2xfa
116 451 m 0
 146 451 161 474 161 497 c 0xf6
 161 520 146 543 116 543 c 0
 87 543 73 520 73 497 c 0
 73 474 87 451 116 451 c 0
EndSplineSet
Validated: 1
EndChar

StartChar: uni0E1B
Encoding: 3611 3611 154
Width: 636
Flags: W
HStem: 0 61<74 147 216 458.117> 401 50<78.8232 146.876> 543 50<79.6461 154.677>
VStem: 23 50<456.391 537.012> 147 69<61 407> 161 55<457.036 536.931> 463 69<66.3227 886>
AnchorPoint: "AboveBase" 424 659 basechar 0
LayerCount: 2
Fore
SplineSet
418 61 m 2xfa
 433 61 463 69 463 99 c 2
 463 886 l 1
 532 886 l 1
 532 84 l 2
 532 26 487 0 441 0 c 2
 74 0 l 1
 74 61 l 1
 147 61 l 1
 147 407 l 1xfa
 147 407 133 401 113 401 c 0
 65 401 23 435 23 493 c 0
 23 571 79 593 117 593 c 0
 187 593 216 542 216 490 c 2xf6
 216 61 l 1
 418 61 l 2xfa
116 451 m 0
 146 451 161 474 161 497 c 0xf6
 161 520 146 543 116 543 c 0
 87 543 73 520 73 497 c 0
 73 474 87 451 116 451 c 0
EndSplineSet
Validated: 1
EndChar

StartChar: uni0E1C
Encoding: 3612 3612 155
Width: 639
Flags: W
HStem: 0 21G<445.5 523> 401 50<150.007 217.63> 543 50<143.972 217.838>
VStem: 81 69<2 52.6799 130 407> 81 57<456.479 535.998> 224 50<457.009 537.413> 454 69<0 52.3438 130 590>
LayerCount: 2
Fore
SplineSet
274 493 m 0xee
 274 438 237 401 186 401 c 0
 165 401 150 407 150 407 c 1
 150 130 l 1
 156 145 223 249 302 303 c 1
 380 250 454 135 454 130 c 2
 454 590 l 1
 523 590 l 1
 523 0 l 1
 454 0 l 1
 437 56 366 179 302 227 c 1
 264 198 188 115 150 2 c 1
 81 2 l 1xf6
 81 490 l 2
 81 536 113 591 181 593 c 0
 215 593 274 573 274 493 c 0xee
181 451 m 0
 210 451 224 474 224 497 c 0
 224 520 210 543 181 543 c 0
 152 543 138 520 138 497 c 0xee
 138 474 152 451 181 451 c 0
EndSplineSet
Validated: 1
EndChar

StartChar: uni0E1D
Encoding: 3613 3613 156
Width: 639
Flags: W
HStem: 0 21G<457.5 535> 401 50<162.007 229.63> 543 50<156.165 229.528>
VStem: 93 69<2 52.6799 130 407> 93 57<456.479 536.432> 236 50<457.009 537.012> 466 69<0 52.3438 130 886>
AnchorPoint: "AboveBase" 427 659 basechar 0
LayerCount: 2
Fore
SplineSet
286 493 m 0xee
 286 438 249 401 198 401 c 0
 177 401 162 407 162 407 c 1
 162 130 l 1
 168 144 238 251 314 303 c 1
 393 249 466 135 466 130 c 2
 466 886 l 1
 535 886 l 1
 535 0 l 1
 466 0 l 1
 449 56 378 179 314 227 c 1
 276 198 200 115 162 2 c 1
 93 2 l 1xf6
 93 490 l 2
 93 536 126 593 193 593 c 0
 230 593 286 571 286 493 c 0xee
193 451 m 0
 222 451 236 474 236 497 c 0
 236 520 222 543 193 543 c 0
 164 543 150 520 150 497 c 0xee
 150 474 164 451 193 451 c 0
EndSplineSet
Validated: 1
EndChar

StartChar: uni0E1E
Encoding: 3614 3614 157
Width: 698
Flags: W
HStem: 0 21G<143 214 517.5 586> 401 50<74.7695 142.875> 543 50<74.8043 150.23>
VStem: 18 50<457.126 537.012> 143 69<0 81.9822 196 407> 157 55<457.036 536.931> 327 69<468.967 590> 517 69<0 85.3506 196 590>
LayerCount: 2
Fore
SplineSet
18 493 m 0xfb
 18 571 74 593 112 593 c 0
 182 593 212 542 212 490 c 2xf7
 212 196 l 1
 261 292 327 482 327 590 c 1
 396 590 l 1
 396 446 497 257 517 196 c 1
 517 590 l 1
 586 590 l 1
 586 0 l 1
 518 0 l 1
 517 6 505 92 428 254 c 0
 376 365 362 463 362 463 c 2
 362 460 355 366 298 247 c 0
 223 90 214 2 214 0 c 1
 143 0 l 1
 143 407 l 1
 143 407 128 401 108 401 c 0
 77 401 18 421 18 493 c 0xfb
112 451 m 0
 142 451 157 474 157 497 c 0
 157 520 142 543 112 543 c 0
 83 543 68 520 68 497 c 0
 68 474 83 451 112 451 c 0
EndSplineSet
Validated: 1
EndChar

StartChar: uni0E1F
Encoding: 3615 3615 158
Width: 698
Flags: W
HStem: 0 21G<143 214 517.5 586> 401 50<74.7695 142.875> 543 50<74.8043 150.23>
VStem: 18 50<457.126 537.012> 143 69<0 81.9822 196 407> 157 55<457.036 536.931> 327 69<468.967 590> 517 69<0 85.3506 196 886>
AnchorPoint: "AboveBase" 487 659 basechar 0
LayerCount: 2
Fore
SplineSet
18 493 m 0xfb
 18 571 74 593 112 593 c 0
 182 593 212 542 212 490 c 2xf7
 212 196 l 1
 261 292 327 482 327 590 c 1
 396 590 l 1
 396 446 497 257 517 196 c 1
 517 886 l 1
 586 886 l 1
 586 0 l 1
 518 0 l 1
 517 6 505 92 428 254 c 0
 376 365 362 463 362 463 c 2
 362 460 355 366 298 247 c 0
 223 90 214 2 214 0 c 1
 143 0 l 1
 143 407 l 1
 143 407 128 401 108 401 c 0
 77 401 18 421 18 493 c 0xfb
112 451 m 0
 142 451 157 474 157 497 c 0
 157 520 142 543 112 543 c 0
 83 543 68 520 68 497 c 0
 68 474 83 451 112 451 c 0
EndSplineSet
Validated: 1
EndChar

StartChar: uni0E20
Encoding: 3616 3616 159
Width: 712
Flags: W
HStem: -3 50<102.372 182.392> 139 50<102.484 177.977> 532 61<259.346 477.516>
VStem: 46 50<53.7057 132.9> 178 69<183 374.878> 189 58<53.6164 132.384> 529 69<0 482.092>
LayerCount: 2
Fore
SplineSet
235 426 m 1xfa
 200 461 127 483 101 487 c 1
 120 512 231 593 369 593 c 0
 506 593 598 530 598 422 c 2
 598 0 l 1
 529 0 l 1
 529 418 l 2
 529 500 463 532 376 532 c 0
 294 532 251 508 235 498 c 1
 256 498 348 423 348 423 c 1
 335 423 247 400 247 308 c 2xfa
 247 100 l 2xf6
 247 48 219 -3 146 -3 c 0
 90 -3 46 34 46 96 c 0
 46 154 90 189 141 189 c 0
 162 189 178 183 178 183 c 1
 178 322 l 2
 178 392 235 426 235 426 c 1xfa
143 47 m 0
 173 47 189 70 189 93 c 0xf6
 189 116 173 139 143 139 c 0
 111 139 96 116 96 93 c 0
 96 70 111 47 143 47 c 0
EndSplineSet
Validated: 1
EndChar

StartChar: uni0E21
Encoding: 3617 3617 160
Width: 665
Flags: W
HStem: -3 61<133.433 190.908 411.234 470.855> 190 61<139.832 193> 401 50<118.458 192.807> 543 50<118.391 197.709>
VStem: 61 50<458.491 535.793> 65 61<61.9554 178.85> 193 69<59.9856 156 251 407> 204 58<457.036 536.931> 476 69<59.8731 590>
DStem2: 262 246 262 156 0.671815 -0.740719<66.6647 264.016>
LayerCount: 2
Fore
SplineSet
61 494 m 0xfa80
 61 555 104 593 161 593 c 0
 235 593 262 542 262 490 c 2
 262 246 l 1xf980
 379 117 l 2
 399 95 422 58 449 58 c 0
 474 58 476 91 476 115 c 2
 476 590 l 1
 545 590 l 1
 545 127 l 2
 545 80 542 -3 449 -3 c 0
 422 -3 394 9 372 34 c 2
 262 156 l 1
 262 83 l 2
 262 37 222 -3 175 -3 c 0
 105 -3 65 55 65 118 c 0xf680
 65 167 91 251 193 251 c 1
 193 407 l 1
 193 407 178 401 156 401 c 0
 104 401 61 436 61 494 c 0xfa80
158 451 m 0
 189 451 204 474 204 497 c 0
 204 520 189 543 158 543 c 0
 127 543 111 520 111 497 c 0
 111 474 127 451 158 451 c 0
162 58 m 0
 192 58 193 80 193 98 c 2
 193 190 l 1
 156 190 126 179 126 119 c 0xf680
 126 87 138 58 162 58 c 0
EndSplineSet
Validated: 1
EndChar

StartChar: uni0E22
Encoding: 3618 3618 161
Width: 622
Flags: W
HStem: 0 61<155 426.473> 258 39<196.018 273> 401 50<155.193 229.938> 543 50<150.848 230.279>
VStem: 86 69<61 223.068 327.369 408> 86 58<457.036 536.432> 237 50<458.329 536.426> 435 69<70.1829 590>
LayerCount: 2
Fore
SplineSet
273 258 m 1xfb
 155 258 155 189 155 107 c 2
 155 61 l 1xfb
 388 61 l 2
 402 61 435 72 435 111 c 2
 435 590 l 1
 504 590 l 1
 504 108 l 2
 504 33 457 0 392 0 c 2
 86 0 l 1xf7
 86 141 l 2
 86 244 130 263 176 281 c 1
 157 284 86 300 86 376 c 2xfb
 86 490 l 2xf7
 86 536 116 593 187 593 c 0
 242 593 287 557 287 495 c 0
 287 434 240 401 193 401 c 0
 171 401 155 408 155 408 c 1
 155 372 l 2
 155 302 266 299 273 297 c 1
 273 258 l 1xfb
190 451 m 0
 221 451 237 474 237 497 c 0
 237 520 221 543 190 543 c 0
 159 543 144 520 144 497 c 0xf7
 144 474 159 451 190 451 c 0
EndSplineSet
Validated: 1
EndChar

StartChar: uni0E23
Encoding: 3619 3619 162
Width: 501
Flags: W
HStem: -3 50<260.477 340.683> 139 50<260.726 335.745> 502 61<290.852 462.88> 532 61<151.8 338.991>
VStem: 204 50<53.5738 131.954> 336 69<183 370.248> 347 58<53.0688 132.964>
LayerCount: 2
Fore
SplineSet
336 316 m 2xdc
 336 432 103 444 32 463 c 1
 59 517 110 593 229 593 c 0xdc
 295 593 339 563 391 563 c 0
 425 563 449 583 451 583 c 1
 484 526 l 1
 463 517 438 502 397 502 c 0xec
 342 502 292 532 233 532 c 0
 186 532 146 513 138 497 c 1
 138 497 250 484 331 435 c 0
 398 394 405 362 405 305 c 2xdc
 405 100 l 2xda
 405 48 378 -3 304 -3 c 0
 248 -3 204 33 204 95 c 0
 204 170 267 189 299 189 c 0
 321 189 336 183 336 183 c 1
 336 316 l 2xdc
300 47 m 0
 332 47 347 70 347 93 c 0xca
 347 116 332 139 300 139 c 0
 270 139 254 116 254 93 c 0
 254 70 270 47 300 47 c 0
EndSplineSet
Validated: 1
EndChar

StartChar: uni0E24
Encoding: 3620 3620 163
Width: 610
Flags: W
HStem: -3 50<154.608 234.628> 139 50<159.023 234.731> 532 61<174.178 390.618>
VStem: 90 69<183 374.924> 90 58<53.6164 132.384> 241 50<53.7057 132.9> 441 69<-215 485.569>
LayerCount: 2
Fore
SplineSet
148 426 m 1xee
 108 465 32 484 14 487 c 1
 33 512 145 593 282 593 c 0
 420 593 510 530 510 422 c 2
 510 -215 l 1
 441 -215 l 1
 441 418 l 2
 441 500 377 532 289 532 c 0
 206 532 148 498 148 498 c 1xee
 168 498 262 423 262 423 c 1
 250 423 159 400 159 308 c 2
 159 183 l 1xf6
 159 183 174 189 196 189 c 0
 248 189 291 154 291 96 c 0
 291 34 247 -3 191 -3 c 0
 118 -3 90 48 90 100 c 2xee
 90 322 l 2xf6
 90 387 148 426 148 426 c 1xee
194 47 m 0
 226 47 241 70 241 93 c 0
 241 116 226 139 194 139 c 0
 164 139 148 116 148 93 c 0
 148 70 164 47 194 47 c 0
EndSplineSet
Validated: 1
EndChar

StartChar: uni0E25
Encoding: 3621 3621 164
Width: 593
Flags: W
HStem: -3 50<152.039 230.602> 139 50<156.256 230.779> 358 61<167.009 247.148> 532 61<173.304 364.425>
VStem: 87 69<183 349.165> 87 58<53.0688 132.964> 238 50<53.3629 131.955> 412 69<0 124.281 215 487.892>
LayerCount: 2
Fore
SplineSet
52 474 m 1xfb
 90 537 147 593 271 593 c 0
 391 593 481 534 481 414 c 2
 481 0 l 1
 412 0 l 1
 412 63 l 2
 412 99 282 358 202 358 c 0
 172 358 156 328 156 302 c 2
 156 183 l 1xfb
 156 183 172 189 193 189 c 0
 246 189 288 153 288 94 c 0
 288 33 243 -3 190 -3 c 0
 115 -3 87 48 87 100 c 2xf7
 87 305 l 2
 87 345 109 419 199 419 c 0
 318 419 412 215 412 215 c 1
 412 411 l 2
 412 483 379 532 268 532 c 0
 165 532 115 473 103 439 c 1
 52 474 l 1xfb
192 47 m 0
 222 47 238 70 238 93 c 0
 238 116 222 139 192 139 c 0
 160 139 145 116 145 93 c 0xf7
 145 70 160 47 192 47 c 0
EndSplineSet
Validated: 1
EndChar

StartChar: uni0E26
Encoding: 3622 3622 165
Width: 666
Flags: W
HStem: -3 50<62.3716 142.392> 139 50<62.484 137.977> 532 61<219.346 437.516>
VStem: 6 50<53.7057 132.9> 138 69<183 374.878> 149 58<53.6164 132.384> 489 69<-215 482.092>
LayerCount: 2
Fore
SplineSet
195 426 m 1xfa
 160 461 87 483 61 487 c 1
 80 512 191 593 329 593 c 0
 466 593 558 530 558 422 c 2
 558 -215 l 1
 489 -215 l 1
 489 418 l 2
 489 500 423 532 336 532 c 0
 254 532 211 508 195 498 c 1
 216 498 308 423 308 423 c 1
 295 423 207 400 207 308 c 2xfa
 207 100 l 2xf6
 207 48 179 -3 106 -3 c 0
 50 -3 6 34 6 96 c 0
 6 154 50 189 101 189 c 0
 122 189 138 183 138 183 c 1
 138 322 l 2
 138 392 195 426 195 426 c 1xfa
103 47 m 0
 133 47 149 70 149 93 c 0xf6
 149 116 133 139 103 139 c 0
 71 139 56 116 56 93 c 0
 56 70 71 47 103 47 c 0
EndSplineSet
Validated: 1
EndChar

StartChar: uni0E27
Encoding: 3623 3623 166
Width: 545
Flags: W
HStem: -3 50<292.372 372.392> 139 50<292.269 367.977> 533 60<137.117 320.117>
VStem: 236 50<53.7057 132.9> 368 69<183 487.103> 379 58<53.6164 132.384>
LayerCount: 2
Fore
SplineSet
15 454 m 1xf8
 38 513 101 593 229 593 c 0
 358 593 437 519 437 425 c 2xf8
 437 100 l 2xf4
 437 48 409 -3 336 -3 c 0
 280 -3 236 34 236 96 c 0
 236 154 279 189 331 189 c 0
 353 189 368 183 368 183 c 1
 368 412 l 2
 368 505 308 533 221 533 c 0
 134 533 83 476 69 429 c 1
 15 454 l 1xf8
333 47 m 0
 363 47 379 70 379 93 c 0xf4
 379 116 363 139 333 139 c 0
 301 139 286 116 286 93 c 0
 286 70 301 47 333 47 c 0
EndSplineSet
Validated: 1
EndChar

StartChar: uni0E28
Encoding: 3624 3624 167
Width: 610
Flags: W
HStem: 0 21G<121 190 431 500> 227 50<190.056 263.179> 371 50<185.61 263.021> 532 61<170.975 370.404>
VStem: 25 69<274.458 456.387> 121 69<0 166.422> 124 54<283.067 364.012> 270 50<284.308 358.916> 431 69<0 438.606> 483 63<569.597 600.333>
LayerCount: 2
Fore
SplineSet
25 375 m 0xfd80
 25 465 78 593 274 593 c 0
 382 593 428 546 438 535 c 1
 448 542 475 588 483 619 c 1
 546 598 l 1xfd40
 525 526 477 487 475 486 c 1
 490 470 500 430 500 397 c 2
 500 0 l 1
 431 0 l 1
 431 366 l 2
 431 377 430 424 417 440 c 1
 386 405 319 354 313 354 c 1
 317 343 320 331 320 320 c 0
 320 261 274 227 226 227 c 0
 204 227 190 235 190 235 c 1
 190 0 l 1
 121 0 l 1
 121 98 l 2
 121 115 118 130 110 146 c 0
 88 196 25 283 25 375 c 0xfd80
94 369 m 0
 94 303 121 256 124 253 c 1
 124 317 l 2xfb
 124 354 143 421 228 421 c 0
 269 421 284 400 285 399 c 1
 306 411 351 442 394 490 c 1
 379 501 368 532 267 532 c 0
 122 532 94 428 94 369 c 0
224 277 m 0
 254 277 270 300 270 324 c 0
 270 348 254 371 224 371 c 0
 193 371 178 348 178 324 c 0
 178 300 193 277 224 277 c 0
EndSplineSet
Validated: 1
EndChar

StartChar: uni0E29
Encoding: 3625 3625 168
Width: 666
Flags: W
HStem: 0 61<81 155 224 478.888> 217 56<416.856 482.941> 222 59<450.023 483> 374 43<321.542 389.969> 401 50<83.6122 154.87> 543 50<83.6227 159.633>
VStem: 27 50<457.477 536.402> 155 69<61 407> 166 58<457.036 536.931> 271 45<293.2 369.697> 396 45<292.12 368.714> 483 69<67.6032 222 299 590> 615 52<342.26 366.308>
AnchorPoint: "AboveBase" 559 659 basechar 0
LayerCount: 2
Fore
SplineSet
271 327 m 0xc778
 271 375 301 417 362 417 c 0
 411 417 440 378 441 336 c 0
 441 296 423 281 414 273 c 1xd778
 417 273 432 271 449 271 c 0
 471 271 482 281 483 281 c 1
 483 590 l 1
 552 590 l 1
 552 299 l 1
 578 311 612 363 615 394 c 1
 667 362 l 1
 660 333 623 267 552 236 c 1
 552 84 l 2
 552 9 488 0 460 0 c 2
 81 0 l 1
 81 61 l 1
 155 61 l 1
 155 407 l 1xa778
 155 407 141 401 121 401 c 0
 91 401 27 420 27 495 c 0
 27 572 89 593 124 593 c 0
 195 593 224 542 224 490 c 2xaef8
 224 61 l 1
 440 61 l 2
 456 61 483 68 483 97 c 2
 483 222 l 1xaf78
 482 222 465 217 435 217 c 0
 374 217 271 239 271 327 c 0xc778
357 288 m 0
 381 288 396 307 396 330 c 0
 396 352 382 374 355 374 c 0
 329 374 316 352 316 332 c 0
 316 310 330 288 357 288 c 0
121 451 m 0x8ef8
 151 451 166 474 166 497 c 0
 166 520 151 543 121 543 c 0
 92 543 77 520 77 497 c 0
 77 474 92 451 121 451 c 0x8ef8
EndSplineSet
Validated: 1
EndChar

StartChar: uni0E2A
Encoding: 3626 3626 169
Width: 579
Flags: W
HStem: -3 50<136.171 216.246> 139 50<140.08 216.401> 359 61<147.59 230.22> 533 60<154.075 344.743> 581 20G<493.5 521.721>
VStem: 71 69<183 352.408> 71 58<55.2602 132.384> 223 50<54.4936 131.955> 395 69<0 124.438 215 412>
LayerCount: 2
Fore
SplineSet
435 512 m 1xf580
 471 542 489 578 498 601 c 1
 549 558 l 1
 508 479 469 461 463 451 c 1
 463 451 464 438 464 432 c 2
 464 0 l 1
 395 0 l 1
 395 63 l 2
 395 99 265 359 185 359 c 0
 155 359 140 334 140 308 c 2
 140 183 l 1xed80
 140 183 156 189 177 189 c 0
 230 189 273 153 273 94 c 0
 273 33 227 -3 174 -3 c 0
 99 -3 71 48 71 100 c 2xeb80
 71 305 l 2
 71 347 94 420 186 420 c 0
 237 420 266 397 270 394 c 1
 350 428 380 467 385 467 c 1
 379 483 355 533 246 533 c 0
 145 533 101 472 86 440 c 1
 35 475 l 1
 67 527 121 593 249 593 c 0
 376 593 431 523 435 512 c 1xf580
395 412 m 1
 373 396 337 370 300 356 c 1
 330 322 372 264 395 215 c 1
 395 412 l 1
176 47 m 0
 207 47 223 70 223 93 c 0
 223 116 207 139 176 139 c 0
 145 139 129 116 129 93 c 0xe380
 129 70 145 47 176 47 c 0
EndSplineSet
Validated: 1
EndChar

StartChar: uni0E2B
Encoding: 3627 3627 170
Width: 651
Flags: W
HStem: 0 21G<149 228.5 469 538> 401 50<74.667 148.807> 543 50<75.2666 153.256 393.305 479.965>
VStem: 18 50<457.755 536.927> 149 69<0 75.7104 179 407> 160 58<457.036 536.931> 333 55<457.046 537.478> 469 69<0 364.978> 486 55<458.753 536.952>
LayerCount: 2
Fore
SplineSet
486 502 m 0xf280
 486 520 473 543 438 543 c 0
 398 543 388 520 388 499 c 0
 388 460 438 438 438 438 c 1
 456 448 486 475 486 502 c 0xf280
541 497 m 0
 541 443 488 413 481 407 c 1
 530 358 538 336 538 270 c 2
 538 0 l 1
 469 0 l 1
 469 274 l 2
 469 338 467 353 438 377 c 1
 438 377 381 327 316 225 c 0
 266 146 239 89 218 0 c 1
 149 0 l 1
 149 407 l 1xfb
 149 407 133 401 112 401 c 0
 59 401 18 437 18 496 c 0
 18 557 63 593 116 593 c 0
 190 593 218 542 218 490 c 2xf6
 218 179 l 1xfa
 274 282 355 369 399 407 c 1
 362 428 333 448 333 509 c 0
 333 541 361 593 437 593 c 0
 524 593 541 523 541 497 c 0
114 451 m 0
 145 451 160 474 160 497 c 0xf6
 160 520 145 543 114 543 c 0
 83 543 68 520 68 497 c 0
 68 474 83 451 114 451 c 0
EndSplineSet
Validated: 1
EndChar

StartChar: uni0E2C
Encoding: 3628 3628 171
Width: 706
Flags: W
HStem: 0 21G<139 232.743 508.198 605> 400 50<78.7547 138.872> 455 56<384.804 535.147> 543 50<78.8252 153.996> 588 56<383.534 520.94>
VStem: 22 50<456.507 536.573> 139 69<116 406> 161 47<456.067 535.968> 302 64<530.966 568.842> 536 69<104 468>
DStem2: 208 116 224 0 0.400531 0.916283<0 264.636> 395 435 370 334 0.40283 -0.915275<82.372 359.755>
LayerCount: 2
Fore
SplineSet
546 539 m 0xecc0
 546 549 505 588 456 588 c 0
 407 588 366 558 366 550 c 0
 366 547 400 511 455 511 c 0
 500 511 546 521 546 539 c 0xecc0
22 493 m 0
 22 557 64 593 116 593 c 0
 187 593 208 544 208 491 c 2xf5c0
 208 116 l 1
 345 435 l 1
 395 435 l 1
 536 104 l 1
 536 468 l 1
 520 460 472 455 445 455 c 0
 371 455 302 509 302 545 c 0
 302 565 347 644 452 644 c 0
 552 644 582 583 597 566 c 1
 625 588 662 650 666 658 c 1
 702 616 l 1
 688 582 634 518 605 503 c 1
 605 0 l 1
 517 0 l 1
 370 334 l 1
 224 0 l 1
 139 0 l 1
 139 406 l 1xeec0
 139 406 128 400 109 400 c 0
 75 400 22 427 22 493 c 0
116 450 m 0
 146 450 161 473 161 497 c 0
 161 520 146 543 116 543 c 0
 87 543 72 520 72 497 c 0
 72 473 87 450 116 450 c 0
EndSplineSet
Validated: 1
EndChar

StartChar: uni0E2D
Encoding: 3629 3629 172
Width: 567
Flags: W
HStem: 0 61<164.509 390.309> 215 50<156.125 223.993> 359 50<149.157 224.075> 532 61<170.378 348.377>
VStem: 87 69<70.125 222> 87 55<271.067 352.573> 231 50<271.018 352.329> 394 69<64.8452 487.332>
LayerCount: 2
Fore
SplineSet
57 477 m 1xfb
 110 584 217 593 272 593 c 0
 383 593 463 525 463 420 c 2
 463 87 l 2
 463 13 409 0 380 0 c 2
 175 0 l 2
 139 0 87 17 87 93 c 2xfb
 87 305 l 2xf7
 87 353 119 409 187 409 c 0
 220 409 281 389 281 310 c 0
 281 254 240 215 190 215 c 0
 171 215 156 222 156 222 c 1
 156 115 l 2
 156 66 192 61 198 61 c 2
 354 61 l 2
 394 61 394 87 394 110 c 2
 394 417 l 2
 394 487 349 532 267 532 c 0
 184 532 129 497 109 445 c 1
 57 477 l 1xfb
187 265 m 0
 216 265 231 288 231 312 c 0
 231 336 216 359 187 359 c 0
 157 359 142 336 142 312 c 0xf7
 142 288 157 265 187 265 c 0
EndSplineSet
Validated: 1
EndChar

StartChar: uni0E2E
Encoding: 3630 3630 173
Width: 547
Flags: W
HStem: 0 61<129.772 369.414> 148 50<120.008 189.621> 291 50<113.884 188.73> 397 56<126.824 323.061> 537 56<125.066 324.987>
VStem: 25 72<478.701 511.772> 51 69<69.306 155> 51 57<203.48 285.321> 196 50<204.073 284.535> 372 69<65.9084 439.719>
LayerCount: 2
Fore
SplineSet
405 529 m 1xfcc0
 409 530 435 560 451 599 c 1
 500 566 l 1
 491 546 468 502 434 474 c 1
 436 468 441 458 441 448 c 2
 441 87 l 2
 441 5 383 0 359 0 c 2
 139 0 l 2
 89 0 51 33 51 93 c 2xfac0
 51 238 l 2xf9c0
 51 286 84 341 155 341 c 0
 209 341 246 299 246 243 c 0
 246 186 206 148 157 148 c 0
 136 148 120 155 120 155 c 1
 120 115 l 2xfac0
 120 80 146 61 163 61 c 2
 333 61 l 2
 372 61 372 86 372 110 c 2
 372 403 l 2
 372 429 371 434 368 440 c 1
 358 434 311 397 213 397 c 0
 102 397 25 457 25 494 c 0
 25 531 127 593 235 593 c 0
 354 593 379 549 405 529 c 1xfcc0
356 495 m 1
 316 523 290 537 245 537 c 0
 165 537 97 509 97 495 c 0xfcc0
 97 483 164 453 225 453 c 0
 292 453 315 468 356 495 c 1
151 198 m 0
 181 198 196 221 196 244 c 0
 196 268 181 291 151 291 c 0
 122 291 108 268 108 244 c 0xf9c0
 108 221 122 198 151 198 c 0
EndSplineSet
Validated: 1
EndChar

StartChar: uni0E2F
Encoding: 3631 3631 174
Width: 518
Flags: W
HStem: -2 53<315.17 345.49> 285 54<132.754 277.841> 401 50<107.303 186.757> 543 50<107.464 185.911>
VStem: 34 67<414.549 536.77> 193 50<457.173 536.506> 377 69<83.5759 375 463.273 581.001>
LayerCount: 2
Fore
SplineSet
290 51 m 1
 302 51 377 60 377 146 c 2
 377 375 l 1
 353 331 294 285 208 285 c 0
 86 285 34 376 34 463 c 0
 34 561 101 593 147 593 c 0
 202 593 243 555 243 501 c 0
 243 445 200 401 148 401 c 0
 134 401 119 405 106 411 c 1
 110 396 116 339 204 339 c 0
 316 339 378 468 378 576 c 0
 378 584 377 590 377 593 c 1
 380 594 384 594 387 594 c 0
 406 594 446 582 446 533 c 2
 446 144 l 2
 446 37 367 1 319 -2 c 1
 290 51 l 1
147 451 m 0
 178 451 193 474 193 497 c 0
 193 520 178 543 147 543 c 0
 116 543 101 520 101 497 c 0
 101 474 116 451 147 451 c 0
EndSplineSet
Validated: 1
EndChar

StartChar: uni0E30
Encoding: 3632 3632 175
Width: 510
Flags: W
HStem: 10 62<123.418 252.066> 169 50<122.309 203.022> 366 62<122.389 253.266> 524 50<122.309 202.232>
VStem: 65 50<79.8117 161.918 435.543 516.935> 210 50<78.6037 161.531 434.604 516.799>
LayerCount: 2
Fore
SplineSet
163 574 m 0
 199 574 260 552 260 476 c 0
 260 457 256 445 247 428 c 1
 330 448 400 514 435 572 c 1
 435 472 l 1
 427 459 331 366 204 366 c 0
 131 366 65 399 65 474 c 0
 65 533 108 574 163 574 c 0
163 219 m 0
 198 219 260 197 260 120 c 0
 260 101 256 89 247 72 c 1
 268 78 364 103 435 216 c 1
 435 116 l 1
 426 103 329 10 203 10 c 0
 130 10 65 43 65 119 c 0
 65 178 108 219 163 219 c 0
163 428 m 0
 195 428 210 452 210 476 c 0
 210 500 195 524 163 524 c 0
 131 524 115 500 115 476 c 0
 115 452 131 428 163 428 c 0
163 72 m 0
 195 72 210 96 210 120 c 0
 210 145 195 169 163 169 c 0
 131 169 115 145 115 120 c 0
 115 96 131 72 163 72 c 0
EndSplineSet
Validated: 1
EndChar

StartChar: uni0E31
Encoding: 3633 3633 176
Width: 0
Flags: W
HStem: 713 62<-213 -80.7381> 891 47<-325.628 -241.341>
VStem: -381 47<797.14 882.787> -233 47<797.07 882.49>
AnchorPoint: "AboveMark" -113 988 basemark 0
AnchorPoint: "AboveBase" -113 659 mark 0
LayerCount: 2
Fore
SplineSet
-187 775 m 0
 -41 775 61 894 78 921 c 1
 78 812 l 1
 24 763 -89 713 -209 713 c 0
 -342 713 -381 786 -381 834 c 0
 -381 884 -349 938 -281 938 c 0
 -222 938 -186 891 -186 842 c 0
 -186 795 -209 781 -213 776 c 1
 -204 776 -196 775 -187 775 c 0
-284 789 m 0
 -250 789 -233 814 -233 840 c 0
 -233 866 -250 891 -284 891 c 0
 -318 891 -334 866 -334 840 c 0
 -334 814 -318 789 -284 789 c 0
EndSplineSet
Validated: 1
EndChar

StartChar: uni0E32
Encoding: 3634 3634 177
Width: 438
Flags: W
HStem: 0 21G<290 359> 531 61<109.695 262.189>
VStem: 290 69<0 501.456>
LayerCount: 2
Fore
SplineSet
179 592 m 0
 332 592 359 507 359 418 c 2
 359 0 l 1
 290 0 l 1
 290 406 l 2
 290 495 270 531 189 531 c 0
 98 531 74 472 58 441 c 1
 6 477 l 1
 31 530 62 592 179 592 c 0
EndSplineSet
Validated: 1
EndChar

StartChar: uni0E33
Encoding: 3635 3635 178
Width: 438
Flags: W
HStem: 0 21<290 359> 531 61<109.695 262.189> 629 50<-215.212 -124.627> 791 50<-215.212 -124.627>
VStem: -276 50<690.106 779.894> -114 50<689.7 780.3> 290 69<0 501.456>
LayerCount: 2
Back
SplineSet
-182 676 m 0
 -182 676 l 0
 -323 676 -323 889 -182 889 c 0
 -41 889 -41 676 -182 676 c 0
-182 728 m 0
 -182 728 l 0
 -109 728 -109 837 -182 837 c 0
 -254 837 -254 728 -182 728 c 0
353 0 m 1
 284 0 l 1
 284 406 l 2
 284 495 264 532 182 532 c 0
 92 532 67 472 52 441 c 1
 0 477 l 1
 26 532 58 596 184 592 c 0
 330 587 353 503 353 418 c 2
 353 0 l 1
EndSplineSet
Fore
Refer: 177 3634 N 1 0 0 1 0 0 2
Refer: 201 3661 N 1 0 0 1 0 0 2
Validated: 1
MultipleSubs2: "Thai Sara Am Decomposition" uni0E4D uni0E32
Substitution2: "Thai Sara Am Lakkhang" uni0E32
EndChar

StartChar: uni0E34
Encoding: 3636 3636 179
Width: 0
Flags: W
HStem: 704 55<-481.262 -198.873> 828 55<-419.207 -246.283>
AnchorPoint: "AboveMark" -147 988 basemark 0
AnchorPoint: "AboveBase" -113 659 mark 0
LayerCount: 2
Fore
SplineSet
-112 656 m 1
 -195 690 -244 704 -338 704 c 0
 -425 704 -481 692 -561 662 c 1
 -559 789 -472 883 -335 883 c 0
 -207 883 -112 779 -112 656 c 1
-483 737 m 1
 -441 750 -395 759 -336 759 c 0
 -267 759 -215 743 -176 730 c 1
 -205 794 -262 828 -333 828 c 0
 -405 828 -452 797 -483 737 c 1
EndSplineSet
Validated: 5
EndChar

StartChar: uni0E35
Encoding: 3637 3637 180
Width: 0
Flags: W
HStem: 708 54<-467.943 -183.474> 834 53<-403.919 -233.453>
VStem: -182 69<829 956>
AnchorPoint: "AboveMark" -147 988 basemark 0
AnchorPoint: "AboveBase" -113 659 mark 0
LayerCount: 2
Fore
SplineSet
-98 661 m 1
 -184 696 -233 708 -334 708 c 0
 -415 708 -471 696 -547 667 c 1
 -547 793 -450 887 -325 887 c 0
 -213 887 -184 829 -182 829 c 1
 -182 956 l 1
 -113 956 l 1
 -113 760 l 1
 -101 722 -98 671 -98 661 c 1
-469 742 m 1
 -455 746 -410 762 -321 762 c 0
 -253 762 -203 748 -164 734 c 1
 -192 799 -248 834 -320 834 c 0
 -391 834 -440 800 -469 742 c 1
EndSplineSet
Validated: 1
EndChar

StartChar: uni0E36
Encoding: 3638 3638 181
Width: 0
Flags: W
HStem: 688 55<-479.789 -194.91> 814 59<-416.805 -285.565> 924 44<-235.292 -155.99>
VStem: -288 47<868.327 918.313> -150 46<840.103 917.577>
AnchorPoint: "AboveMark" -196 988 basemark 0
AnchorPoint: "AboveBase" -113 659 mark 0
LayerCount: 2
Fore
SplineSet
-104 879 m 0
 -104 852 -113 814 -158 796 c 1
 -153 795 -112 743 -112 642 c 1
 -192 675 -239 688 -328 688 c 0
 -420 688 -477 680 -559 648 c 1
 -559 784 -459 873 -334 873 c 0
 -306 873 -288 868 -285 868 c 1
 -286 874 -288 881 -288 890 c 0
 -288 917 -265 968 -197 968 c 0
 -139 968 -104 928 -104 879 c 0
-196 834 m 0
 -166 834 -150 856 -150 879 c 0
 -150 902 -166 924 -196 924 c 0
 -226 924 -241 902 -241 879 c 0
 -241 856 -226 834 -196 834 c 0
-481 723 m 1
 -432 737 -401 743 -330 743 c 0
 -264 743 -214 727 -176 716 c 1
 -205 779 -262 814 -333 814 c 0
 -403 814 -452 782 -481 723 c 1
EndSplineSet
Validated: 1
EndChar

StartChar: uni0E37
Encoding: 3639 3639 182
Width: 0
Flags: W
HStem: 705 55<-457.166 -173.794> 831 60<-395.329 -300.263>
VStem: -299 68<889 958> -179 67<842 958>
AnchorPoint: "AboveMark" -205 988 basemark 0
AnchorPoint: "AboveBase" -113 659 mark 0
LayerCount: 2
Fore
SplineSet
-538 677 m 2
 -538 805 -446 891 -324 891 c 0
 -314 891 -305 890 -299 889 c 1
 -299 958 l 1
 -231 958 l 1
 -231 877 l 1
 -216 870 -194 859 -179 842 c 1
 -179 958 l 1
 -112 958 l 1
 -112 757 l 2
 -112 754 -101 728 -98 710 c 0
 -94 688 -90 664 -90 658 c 1
 -171 691 -218 705 -308 705 c 0
 -401 705 -456 695 -538 664 c 1
 -538 677 l 2
-460 739 m 1
 -402 757 -361 760 -308 760 c 0
 -242 760 -193 744 -155 733 c 1
 -184 796 -241 831 -311 831 c 0
 -382 831 -431 799 -460 739 c 1
EndSplineSet
Validated: 1
EndChar

StartChar: uni0E38
Encoding: 3640 3640 183
Width: 0
Flags: W
HStem: -202 50<-236.104 -181.115> -85 50<-236.228 -172.247>
VStem: -289 50<-148.905 -88.0308> -181 69<-313 -197> -170 58<-150.038 -88.3391>
AnchorPoint: "BelowMark" -113 -35 mark 0
AnchorPoint: "BelowMark" -113 -316 basemark 0
AnchorPoint: "BelowBase" -113 -35 mark 0
LayerCount: 2
Back
SplineSet
-112 -313 m 1
 -189 -313 l 1
 -189 -198 l 1
 -189 -198 -213 -210 -245 -196 c 0
 -279 -182 -299 -162 -297 -113 c 0
 -297 -74 -267 -34 -201 -35 c 0
 -130 -37 -112 -78 -112 -127 c 2
 -112 -313 l 1
-207 -150 m 0
 -162 -150 -162 -83 -207 -83 c 0
 -253 -83 -253 -150 -207 -150 c 0
EndSplineSet
Fore
SplineSet
-203 -35 m 0xf0
 -130 -35 -112 -79 -112 -127 c 2xe8
 -112 -313 l 1
 -181 -313 l 1
 -181 -197 l 1
 -181 -197 -191 -202 -206 -202 c 0
 -229 -202 -289 -188 -289 -120 c 0
 -289 -73 -263 -35 -203 -35 c 0xf0
-204 -152 m 0
 -181 -152 -170 -135 -170 -118 c 0
 -170 -102 -181 -85 -204 -85 c 0
 -227 -85 -239 -102 -239 -118 c 0
 -239 -135 -227 -152 -204 -152 c 0
EndSplineSet
Validated: 1
Substitution2: "Thai Sara U Nikhahit Reordering" uni0E4D
Substitution2: "Thai Sara U Thanthakhat Reordering" uni0E4C.low
Substitution2: "Thai Sara U Mai Chattawa Reordering" uni0E4B.low
Substitution2: "Thai Sara U Mai Tri Reordering" uni0E4A.low
Substitution2: "Thai Sara U Mai Tho Reordering" uni0E49.low
Substitution2: "Thai Sara U Mai Ek Reordering" uni0E48.low
EndChar

StartChar: uni0E39
Encoding: 3641 3641 184
Width: 0
Flags: W
HStem: -308 47<-244 -182.004> -208 50<-366.229 -308.181> -90 50<-366.422 -304.14>
VStem: -419 50<-155.221 -92.8554> -308 64<-261 -203> -301 57<-156.038 -93.5781> -182 64<-260.25 -44>
AnchorPoint: "BelowMark" -113 -35 mark 0
AnchorPoint: "BelowMark" -113 -311 basemark 0
AnchorPoint: "BelowBase" -113 -35 mark 0
LayerCount: 2
Fore
SplineSet
-419 -125 m 0xfa
 -419 -73 -376 -40 -332 -40 c 0
 -269 -40 -244 -81 -244 -126 c 2xf6
 -244 -261 l 1
 -199 -261 l 2
 -182 -261 -182 -253 -182 -236 c 2
 -182 -44 l 1
 -118 -44 l 1
 -118 -247 l 2
 -118 -279 -123 -308 -153 -308 c 2
 -308 -308 l 1
 -308 -203 l 1
 -308 -203 -320 -208 -336 -208 c 0
 -380 -208 -419 -173 -419 -125 c 0xfa
-335 -158 m 0
 -312 -158 -301 -141 -301 -124 c 0
 -301 -107 -312 -90 -335 -90 c 0
 -357 -90 -369 -107 -369 -124 c 0
 -369 -141 -357 -158 -335 -158 c 0
EndSplineSet
Validated: 1
Substitution2: "Thai Sara UU Nikhahit Reordering" uni0E4D
Substitution2: "Thai Sara UU Thanthakhat Reordering" uni0E4C.low
Substitution2: "Thai Sara UU Mai Chattawa Reordering" uni0E4B.low
Substitution2: "Thai Sara UU Mai Tri Reordering" uni0E4A.low
Substitution2: "Thai Sara UU Mai Tho Reordering" uni0E49.low
Substitution2: "Thai Sara UU Mai Ek Reordering" uni0E48.low
EndChar

StartChar: uni0E3A
Encoding: 3642 3642 185
Width: 0
Flags: W
HStem: -196 122<-210.816 -116.637>
VStem: -224 121<-183.091 -86.9091>
AnchorPoint: "BelowMark" -113 -35 mark 0
AnchorPoint: "BelowMark" -113 -311 basemark 0
AnchorPoint: "BelowBase" -113 -35 mark 0
LayerCount: 2
Fore
SplineSet
-164 -196 m 0
 -204 -196 -224 -166 -224 -135 c 0
 -224 -104 -204 -74 -164 -74 c 0
 -124 -74 -103 -104 -103 -135 c 0
 -103 -166 -124 -196 -164 -196 c 0
EndSplineSet
Validated: 1
Substitution2: "Thai Phinthu Maitaikhu Reordering" uni0E47
Substitution2: "Thai Phinthu Nikhahit Reordering" uni0E4D
Substitution2: "Thai Phinthu Thanthakhat Reordering" uni0E4C.low
Substitution2: "Thai Phinthu Mai Chattawa Reordering" uni0E4B.low
Substitution2: "Thai Phinthu Mai Tri Reordering" uni0E4A.low
Substitution2: "Thai Phinthu Mai Tho Reordering" uni0E49.low
Substitution2: "Thai Phinthu Mai Ek Reordering" uni0E48.low
EndChar

StartChar: uni0E4D.high
Encoding: 63262 63262 186
Width: 0
GlyphClass: 4
Flags: W
HStem: 959 50<-215.212 -124.627> 1121 50<-215.212 -124.627>
VStem: -276 50<1020.11 1109.89> -114 50<1019.7 1110.3>
AnchorPoint: "AboveMark" -170 1228 basemark 0
AnchorPoint: "AboveMark" -170 988 mark 0
LayerCount: 2
Fore
SplineSet
-170 959 m 0
 -238 959 -276 1014 -276 1065 c 0
 -276 1116 -238 1171 -170 1171 c 0
 -102 1171 -64 1116 -64 1065 c 0
 -64 1014 -102 959 -170 959 c 0
-170 1009 m 0
 -132 1009 -114 1037 -114 1065 c 0
 -114 1093 -132 1121 -170 1121 c 0
 -207 1121 -226 1093 -226 1065 c 0
 -226 1037 -207 1009 -170 1009 c 0
EndSplineSet
Validated: 1
EndChar

StartChar: uni0E3F
Encoding: 3647 3647 187
Width: 629
Flags: W
HStem: 0 61<153 259 328 459.188> 328 61<153 259 328 425.764> 633 61<153 259 328 416.184>
VStem: 84 69<61 328 389 633> 259 69<-94 0 61 328 389 633 694 779> 479 70<436.5 574.736> 510 69<115.982 274.891>
LayerCount: 2
Fore
SplineSet
259 389 m 1xf8
 259 633 l 1
 153 633 l 1
 153 389 l 1
 259 389 l 1xf8
259 61 m 1
 259 328 l 1
 153 328 l 1
 153 61 l 1
 259 61 l 1
328 328 m 1
 328 61 l 1
 385 61 l 2
 481 61 510 139 510 197 c 0xfa
 510 326 394 328 328 328 c 1
328 633 m 1
 328 389 l 1
 456 389 479 459 479 506 c 0xfc
 479 550 457 627 328 633 c 1
451 368 m 1
 487 348 579 319 579 193 c 0xfa
 579 50 460 0 414 0 c 2
 328 0 l 1
 328 -94 l 1
 259 -94 l 1
 259 0 l 1
 84 0 l 1
 84 694 l 1
 259 694 l 1
 259 779 l 1
 328 779 l 1
 328 694 l 1
 376 694 l 2
 432 694 549 654 549 523 c 0
 549 460 520 400 451 368 c 1
EndSplineSet
Validated: 1
EndChar

StartChar: uni0E40
Encoding: 3648 3648 188
Width: 340
Flags: W
HStem: -2 50<157.403 237.246> 140 50<162.318 236.753> 570 20G<93 162>
VStem: 93 69<184 590> 93 57<56.2602 133.384> 244 50<55.4936 132.955>
LayerCount: 2
Fore
SplineSet
294 95 m 0xf4
 294 34 248 -2 195 -2 c 0
 121 -2 93 49 93 101 c 2xec
 93 590 l 1
 162 590 l 1
 162 184 l 1
 162 184 178 190 199 190 c 0
 252 190 294 154 294 95 c 0xf4
197 48 m 0
 228 48 244 71 244 94 c 0
 244 117 228 140 197 140 c 0
 166 140 150 117 150 94 c 0
 150 71 166 48 197 48 c 0
EndSplineSet
Validated: 1
EndChar

StartChar: uni0E41
Encoding: 3649 3649 189
Width: 600
Flags: W
HStem: -2 50<157.403 237.246 424.903 504.021> 140 50<162.318 236.753 429.08 504.406> 570 20G<93 162 360 429>
VStem: 93 69<184 590> 93 57<56.2602 133.384> 244 50<55.4936 132.955> 360 69<184 590> 360 58<56.2602 133.384> 511 50<55.1889 133.966>
LayerCount: 2
Fore
SplineSet
561 98 m 0xe680
 561 18 499 -2 462 -2 c 0
 388 -2 360 49 360 101 c 2xe580
 360 590 l 1
 429 590 l 1
 429 184 l 1
 429 184 444 190 466 190 c 0
 498 190 561 172 561 98 c 0xe680
294 95 m 0
 294 34 248 -2 195 -2 c 0
 121 -2 93 49 93 101 c 2xec80
 93 590 l 1
 162 590 l 1
 162 184 l 1xf480
 162 184 178 190 199 190 c 0
 252 190 294 154 294 95 c 0
465 48 m 0
 496 48 511 71 511 94 c 0
 511 117 496 140 465 140 c 0
 434 140 418 117 418 94 c 0xe580
 418 71 434 48 465 48 c 0
197 48 m 0
 228 48 244 71 244 94 c 0
 244 117 228 140 197 140 c 0
 166 140 150 117 150 94 c 0xec80
 150 71 166 48 197 48 c 0
EndSplineSet
Validated: 1
EndChar

StartChar: uni0E42
Encoding: 3650 3650 190
Width: 413
Flags: W
HStem: -2 50<203.403 283.246> 140 50<208.318 282.753> 935 61<187.966 338.232> 969 61<49.0606 214.933>
VStem: 139 69<184 843.803> 139 57<56.2602 133.384> 290 50<55.4936 132.955>
LayerCount: 2
Fore
SplineSet
-60 925 m 1xda
 -23 976 35 1030 114 1030 c 0xda
 183 1030 230 996 273 996 c 0
 303 996 326 1008 330 1013 c 1
 353 960 l 1
 353 960 332 935 284 935 c 0xea
 222 935 177 969 118 969 c 0
 71 969 48 946 43 943 c 1
 46 943 109 920 146 895 c 0
 185 869 208 845 208 797 c 2
 208 184 l 1xda
 208 184 224 190 245 190 c 0
 298 190 340 154 340 95 c 0
 340 34 294 -2 241 -2 c 0
 167 -2 139 49 139 101 c 2xd6
 139 787 l 2
 139 836 116 851 57 882 c 0
 6 908 -54 925 -60 925 c 1xda
243 48 m 0
 274 48 290 71 290 94 c 0
 290 117 274 140 243 140 c 0
 212 140 196 117 196 94 c 0xc6
 196 71 212 48 243 48 c 0
EndSplineSet
Validated: 1
EndChar

StartChar: uni0E43
Encoding: 3651 3651 191
Width: 400
Flags: W
HStem: -2 50<214.776 292.741> 140 50<218.023 293.601> 752 44<11.7986 62.4138> 874 44<34.5217 61.4894> 964 61<44.8674 134.853>
VStem: -37 46<797.451 872.235> 65 42<797.449 872.384> 149 69<184 948.471> 149 58<54.6164 133.384> 300 50<54.218 133.327>
LayerCount: 2
Fore
SplineSet
350 97 m 0xff40
 350 38 307 -2 250 -2 c 0
 176 -2 149 49 149 101 c 2xfec0
 149 905 l 2
 149 935 124 964 92 964 c 0
 61 964 38 946 34 917 c 1
 36 917 40 918 47 918 c 0
 95 918 107 875 107 840 c 0
 107 791 84 752 39 752 c 0
 8 752 -37 770 -37 855 c 0
 -37 943 9 1025 97 1025 c 0
 176 1025 218 975 218 912 c 2
 218 184 l 1
 218 184 233 190 255 190 c 0
 288 190 350 170 350 97 c 0xff40
37 796 m 0
 56 796 65 814 65 833 c 0
 65 853 55 874 37 874 c 0
 19 874 9 853 9 833 c 0
 9 814 18 796 37 796 c 0
253 48 m 0
 285 48 300 71 300 94 c 0
 300 117 285 140 253 140 c 0
 223 140 207 117 207 94 c 0
 207 71 223 48 253 48 c 0
EndSplineSet
Validated: 1
EndChar

StartChar: uni0E44
Encoding: 3652 3652 192
Width: 449
Flags: W
HStem: -2 50<250.503 329.263> 140 50<256.005 329.496> 969 61<-69 -32.322 159.951 186.636>
VStem: 187 69<184 967.079> 187 56<54.0688 133.964> 336 50<54.9729 132.954>
DStem2: 37 938 -21 903 0.0806884 -0.996739<-32.8689 210.198> 54 728 112 734 0.222825 0.974859<1.56214 261.99>
LayerCount: 2
Fore
SplineSet
386 96 m 0xf4
 386 18 325 -2 288 -2 c 0
 215 -2 187 49 187 101 c 2xec
 187 943 l 2
 187 956 186 969 176 969 c 0
 164 969 161 952 158 941 c 2
 112 734 l 2
 100 678 64 674 50 674 c 0
 12 674 -5 705 -8 737 c 2
 -21 903 l 2
 -25 948 -40 970 -69 970 c 1
 -69 1030 l 1
 -65 1030 -61 1031 -57 1031 c 0
 -27 1031 31 1017 37 938 c 2
 54 728 l 1
 110 973 l 2
 116 997 137 1030 181 1030 c 0
 239 1030 256 995 256 941 c 2
 256 184 l 1
 256 184 271 190 293 190 c 0
 327 190 386 171 386 96 c 0xf4
290 48 m 0
 320 48 336 71 336 94 c 0
 336 117 320 140 290 140 c 0
 258 140 243 117 243 94 c 0
 243 71 258 48 290 48 c 0
EndSplineSet
Validated: 1
EndChar

StartChar: uni0E45
Encoding: 3653 3653 193
Width: 220
Flags: W
HStem: 529 61<-72.9646 65.7451>
VStem: -150 47<477.404 498.161> 93 69<-218 501.539>
LayerCount: 2
Fore
SplineSet
162 -218 m 1
 93 -218 l 1
 93 411 l 2
 93 469 81 529 15 529 c 0
 -69 529 -89 503 -103 455 c 1
 -113 461 -150 481 -150 481 c 1
 -138 533 -115 590 12 590 c 0
 154 590 162 499 162 420 c 2
 162 -218 l 1
EndSplineSet
Validated: 1
EndChar

StartChar: uni0E46
Encoding: 3654 3654 194
Width: 565
Flags: W
HStem: -244 51<321.608 356.993> 237 50<159.934 242.327> 386 50<160.076 242.614> 529 61<355 412.731>
VStem: 74 65<358.403 493.231> 251 50<295.282 378.137> 433 69<-127.188 509.758>
LayerCount: 2
Fore
SplineSet
202 237 m 0
 113 237 74 318 74 409 c 0
 74 445 76 555 210 590 c 1
 281 541 l 1
 348 590 l 1
 399 590 502 548 502 457 c 2
 502 -58 l 2
 502 -213 337 -243 326 -244 c 1
 294 -193 l 1
 294 -193 433 -172 433 -58 c 2
 433 446 l 2
 433 512 394 529 355 529 c 1
 281 491 l 1
 214 529 l 1
 186 529 139 484 139 434 c 0
 139 427 139 420 141 412 c 1
 141 412 161 436 202 436 c 0
 273 436 301 374 301 336 c 0
 301 297 270 237 202 237 c 0
201 287 m 0
 234 287 251 312 251 336 c 0
 251 361 234 386 201 386 c 0
 168 386 152 361 152 336 c 0
 152 312 168 287 201 287 c 0
EndSplineSet
Validated: 1
EndChar

StartChar: uni0E47
Encoding: 3655 3655 195
Width: 0
Flags: W
HStem: 668 49<-226.225 -178.86> 749 59<-412.865 -317.161> 769 51<-227.547 -179.014> 862 55<-363.007 -151.765> 875 54<-432.982 -212.254>
VStem: -519 64<770.638 853.489> -178 48<718.02 768.11> -138 74<931.531 979>
AnchorPoint: "AboveMark" -324 988 basemark 0
AnchorPoint: "AboveBase" -113 659 mark 0
LayerCount: 2
Back
SplineSet
-64 975 m 1xa0
 -64 975 l 0xa0
 -64 958 -71 940 -78 924 c 0
 -113 861 -193 858 -254 864 c 0
 -281 868 -307 871 -331 874 c 0
 -380 878 -422 875 -443 843 c 0
 -458 823 -457 800 -451 777 c 1
 -449 769 l 1
 -403 832 -325 811 -274 766 c 1
 -259 845 -129 838 -130 739 c 0xc0
 -130 688 -178 659 -227 671 c 0
 -262 679 -285 702 -311 723 c 0
 -334 742 -357 756 -389 745 c 0
 -418 737 -426 705 -426 671 c 2
 -426 664 l 1
 -478 684 -512 719 -518 776 c 0
 -527 849 -486 907 -434 921 c 0
 -351 944 -285 912 -204 917 c 0
 -166 918 -138 937 -138 975 c 2
 -138 979 l 1
 -64 979 l 1
 -64 975 l 1xa0
-178 743 m 0xc0
 -178 757 -185 769 -204 769 c 0
 -221 769 -228 757 -228 743 c 0
 -228 731 -221 717 -204 717 c 0
 -185 717 -178 731 -178 743 c 0xc0
EndSplineSet
Fore
SplineSet
-64 975 m 2x95
 -64 952 -77 862 -214 862 c 0x95
 -268 862 -310 875 -361 875 c 0
 -442 875 -455 830 -455 805 c 0
 -455 793 -453 783 -449 769 c 1xad
 -428 797 -402 808 -374 808 c 0xc5
 -339 808 -302 791 -274 766 c 1
 -267 802 -237 820 -206 820 c 0xa5
 -168 820 -130 794 -130 740 c 0
 -130 696 -164 668 -205 668 c 0
 -279 668 -312 749 -367 749 c 0
 -424 749 -426 697 -426 664 c 1
 -472 682 -519 717 -519 796 c 0
 -519 891 -453 929 -370 929 c 0xce
 -314 929 -290 917 -204 917 c 0
 -166 917 -138 937 -138 975 c 2
 -138 979 l 1
 -64 979 l 1
 -64 975 l 2x95
-178 743 m 0xa6
 -178 757 -185 769 -204 769 c 0
 -221 769 -228 757 -228 743 c 0
 -228 731 -221 717 -204 717 c 0
 -185 717 -178 731 -178 743 c 0xa6
EndSplineSet
Validated: 1
Substitution2: "Thai Mark High Variant" uni0E47.high
Substitution2: "Thai Phinthu Maitaikhu Reordering" uni0E3A
EndChar

StartChar: uni0E48
Encoding: 3656 3656 196
Width: 0
Flags: W
HStem: 992 187<-179 -113>
VStem: -179 66<992 1179>
AnchorPoint: "AboveMark" -147 1228 basemark 0
AnchorPoint: "AboveMark" -147 988 mark 0
LayerCount: 2
Fore
SplineSet
-113 992 m 1
 -179 992 l 1
 -179 1179 l 1
 -113 1179 l 1
 -113 992 l 1
EndSplineSet
Validated: 1
Substitution2: "Thai Phinthu Mai Ek Reordering" uni0E3A
Substitution2: "Thai Sara UU Mai Ek Reordering" uni0E39
Substitution2: "Thai Sara U Mai Ek Reordering" uni0E38
MultipleSubs2: "Thai Tone Nikhahit Attachment" uni0E4D uni0E48
Substitution2: "Thai Tone Low Variant" uni0E48.low
EndChar

StartChar: uni0E49
Encoding: 3657 3657 197
Width: 0
Flags: W
HStem: 1051 39<-274.479 -235.379> 1166 38<-272.662 -207.796>
VStem: -324 45<1093.96 1161.33> -202 43<1093.84 1162.31>
AnchorPoint: "AboveMark" -150 1228 basemark 0
AnchorPoint: "AboveMark" -150 988 mark 0
LayerCount: 2
Fore
SplineSet
17 1104 m 1
 -40 1031 -118 980 -231 980 c 0
 -250 980 -268 982 -285 984 c 1
 -259 1000 -240 1028 -235 1052 c 1
 -239 1051 -243 1051 -247 1051 c 0
 -287 1051 -324 1082 -324 1127 c 0
 -324 1167 -296 1204 -243 1204 c 0
 -182 1204 -159 1168 -159 1124 c 0
 -159 1074 -189 1030 -192 1029 c 1
 -94 1052 -9 1142 17 1199 c 1
 17 1104 l 1
-239 1090 m 0
 -214 1090 -202 1108 -202 1126 c 0
 -202 1146 -215 1166 -238 1166 c 0
 -265 1166 -279 1146 -279 1127 c 0
 -279 1108 -266 1090 -239 1090 c 0
EndSplineSet
Validated: 1
Substitution2: "Thai Phinthu Mai Tho Reordering" uni0E3A
Substitution2: "Thai Sara UU Mai Tho Reordering" uni0E39
Substitution2: "Thai Sara U Mai Tho Reordering" uni0E38
MultipleSubs2: "Thai Tone Nikhahit Attachment" uni0E4D uni0E49
Substitution2: "Thai Tone Low Variant" uni0E49.low
EndChar

StartChar: uni0E4A
Encoding: 3658 3658 198
Width: 0
Flags: W
HStem: 978 32<-266.331 -218.23> 1065 34<-267.135 -218.342> 1146 45<-270.577 -191.277 -170.19 -92.1409>
VStem: -329 47<1084 1133.58> -216 35<1011.61 1063.15> -83 50<1024.41 1137.61> 31 47<1090.11 1149.26>
AnchorPoint: "AboveMark" -154 1228 basemark 0
AnchorPoint: "AboveMark" -154 988 mark 0
LayerCount: 2
Fore
SplineSet
-57 1021 m 1
 -16 1040 31 1092 31 1185 c 1
 78 1143 l 1
 66 1069 3 982 -109 982 c 0
 -116 982 -122 983 -129 983 c 1
 -114 991 -83 1034 -83 1083 c 0
 -83 1112 -93 1146 -132 1146 c 0
 -157 1146 -175 1127 -179 1122 c 1
 -183 1127 -209 1144 -233 1144 c 0
 -248 1144 -282 1135 -282 1084 c 1
 -270 1094 -261 1099 -238 1099 c 0
 -203 1099 -181 1070 -181 1040 c 0
 -181 1003 -208 978 -246 978 c 0
 -296 978 -329 1023 -329 1080 c 0
 -329 1122 -312 1191 -240 1191 c 0
 -215 1191 -195 1178 -181 1156 c 1
 -167 1179 -141 1191 -112 1191 c 0
 -78 1191 -33 1165 -33 1100 c 0
 -33 1056 -54 1025 -57 1021 c 1
-242 1010 m 0
 -225 1010 -216 1023 -216 1037 c 0
 -216 1051 -226 1065 -244 1065 c 0
 -260 1065 -269 1051 -269 1038 c 0
 -269 1024 -260 1010 -242 1010 c 0
EndSplineSet
Validated: 1
Substitution2: "Thai Phinthu Mai Tri Reordering" uni0E3A
Substitution2: "Thai Sara UU Mai Tri Reordering" uni0E39
Substitution2: "Thai Sara U Mai Tri Reordering" uni0E38
MultipleSubs2: "Thai Tone Nikhahit Attachment" uni0E4D uni0E4A
Substitution2: "Thai Tone Low Variant" uni0E4A.low
EndChar

StartChar: uni0E4B
Encoding: 3659 3659 199
Width: 0
Flags: W
HStem: 1052 62<-259 -175 -112 -32>
VStem: -175 63<975 1052 1114 1196>
AnchorPoint: "AboveMark" -145 1228 basemark 0
AnchorPoint: "AboveMark" -145 973 mark 0
LayerCount: 2
Fore
SplineSet
-32 1052 m 1
 -112 1052 l 1
 -112 975 l 1
 -175 975 l 1
 -175 1052 l 1
 -259 1052 l 1
 -259 1114 l 1
 -175 1114 l 1
 -175 1196 l 1
 -112 1196 l 1
 -112 1114 l 1
 -32 1114 l 1
 -32 1052 l 1
EndSplineSet
Validated: 1
Substitution2: "Thai Phinthu Mai Chattawa Reordering" uni0E3A
Substitution2: "Thai Sara UU Mai Chattawa Reordering" uni0E39
Substitution2: "Thai Sara U Mai Chattawa Reordering" uni0E38
MultipleSubs2: "Thai Tone Nikhahit Attachment" uni0E4D uni0E4B
Substitution2: "Thai Tone Low Variant" uni0E4B.low
EndChar

StartChar: uni0E4C
Encoding: 3660 3660 200
Width: 0
Flags: W
HStem: 891 39<-225.311 -155.719> 1012 36<-225.9 -157.38>
VStem: -295 63<935.308 1038.37> -150 41<934.724 1005.75> -31 66<1152.26 1196>
AnchorPoint: "AboveMark" -190 1228 basemark 0
AnchorPoint: "AboveMark" -190 889 mark 0
LayerCount: 2
Back
SplineSet
35 1196 m 1
 35 1196 l 0
 32 1183 35 1140 -15 1113 c 0
 -77 1079 -152 1101 -205 1074 c 0
 -231 1061 -233 1038 -235 1033 c 1
 -221 1044 -213 1048 -185 1048 c 0
 -144 1048 -109 1018 -109 972 c 0
 -109 923 -146 894 -189 891 c 0
 -265 889 -310 967 -291 1036 c 0
 -270 1114 -208 1136 -107 1136 c 0
 -28 1136 -35 1193 -31 1196 c 1
 35 1196 l 1
-190 930 m 0
 -136 930 -138 1012 -192 1012 c 0
 -247 1012 -245 930 -190 930 c 0
EndSplineSet
Fore
SplineSet
-109 972 m 0
 -109 918 -155 891 -192 891 c 0
 -254 891 -295 946 -295 1004 c 0
 -295 1014 -294 1025 -291 1036 c 0
 -270 1114 -208 1136 -107 1136 c 0
 -28 1136 -35 1193 -31 1196 c 1
 35 1196 l 1
 32 1183 35 1140 -15 1113 c 0
 -77 1079 -152 1101 -205 1074 c 0
 -231 1061 -233 1038 -235 1033 c 1
 -221 1044 -213 1048 -185 1048 c 0
 -144 1048 -109 1018 -109 972 c 0
-190 930 m 0
 -163 930 -150 950 -150 970 c 0
 -150 991 -165 1012 -192 1012 c 0
 -219 1012 -232 992 -232 972 c 0
 -232 951 -218 930 -190 930 c 0
EndSplineSet
Validated: 1
Substitution2: "Thai Phinthu Thanthakhat Reordering" uni0E3A
Substitution2: "Thai Sara UU Thanthakhat Reordering" uni0E39
Substitution2: "Thai Sara U Thanthakhat Reordering" uni0E38
MultipleSubs2: "Thai Tone Nikhahit Attachment" uni0E4D uni0E4C
Substitution2: "Thai Tone Low Variant" uni0E4C.low
EndChar

StartChar: uni0E4D
Encoding: 3661 3661 201
Width: 0
Flags: W
HStem: 629 50<-215.212 -124.627> 791 50<-215.212 -124.627>
VStem: -276 50<690.106 779.894> -114 50<689.7 780.3>
AnchorPoint: "AboveMark" -170 988 basemark 0
AnchorPoint: "AboveBase" -67 659 mark 0
LayerCount: 2
Fore
SplineSet
-170 629 m 0
 -238 629 -276 684 -276 735 c 0
 -276 786 -238 841 -170 841 c 0
 -102 841 -64 786 -64 735 c 0
 -64 684 -102 629 -170 629 c 0
-170 679 m 0
 -132 679 -114 707 -114 735 c 0
 -114 763 -132 791 -170 791 c 0
 -207 791 -226 763 -226 735 c 0
 -226 707 -207 679 -170 679 c 0
EndSplineSet
Validated: 1
Substitution2: "Thai Phinthu Nikhahit Reordering" uni0E3A
Substitution2: "Thai Sara UU Nikhahit Reordering" uni0E39
Substitution2: "Thai Sara U Nikhahit Reordering" uni0E38
Substitution2: "Thai Mark High Variant" uni0E4D.high
EndChar

StartChar: uni0E4E
Encoding: 3662 3662 202
Width: 0
Flags: W
HStem: 731 42<-168.864 -59.2907> 1032 33<-75.7822 35.6773>
VStem: -261 86<779.89 859.771> -181 77<939.543 1011.81>
AnchorPoint: "AboveMark" -155 1097 basemark 0
AnchorPoint: "AboveBase" -32 659 mark 0
LayerCount: 2
Fore
SplineSet
-155 731 m 0xe0
 -231 731 -261 763 -261 811 c 0xe0
 -261 853 -222 918 -110 918 c 1
 -149 923 -181 943 -181 983 c 0
 -181 1002 -154 1065 -1 1065 c 0
 24 1065 44 1061 58 1053 c 1
 20 1024 l 1
 12 1027 -11 1032 -20 1032 c 0
 -52 1032 -104 1012 -104 975 c 0xd0
 -104 939 -68 931 -32 927 c 1
 -48 892 l 1
 -125 892 -175 860 -175 815 c 0
 -175 788 -153 773 -124 773 c 0
 -98 773 -80 779 -64 794 c 1
 -32 766 l 1
 -60 743 -101 731 -155 731 c 0xe0
EndSplineSet
Validated: 1
Substitution2: "Thai Mark High Variant" uni0E4E.high
EndChar

StartChar: uni0E4F
Encoding: 3663 3663 203
Width: 599
Flags: W
HStem: -1 32<227.192 392.808> 100 32<255.124 364.876> 328 32<255.124 364.876> 429 32<227.192 392.808>
VStem: 80 33<149.262 310.738> 180 33<173.688 286.312> 407 33<173.688 286.312> 507 33<149.262 310.738>
LayerCount: 2
Fore
SplineSet
310 -1 m 0
 157 -1 80 115 80 230 c 0
 80 345 157 461 310 461 c 0
 463 461 540 345 540 230 c 0
 540 115 463 -1 310 -1 c 0
310 31 m 0
 442 31 507 130 507 230 c 0
 507 330 442 429 310 429 c 0
 178 429 113 330 113 230 c 0
 113 130 178 31 310 31 c 0
310 100 m 0
 223 100 180 165 180 230 c 0
 180 295 223 360 310 360 c 0
 397 360 440 295 440 230 c 0
 440 165 397 100 310 100 c 0
310 132 m 0
 376 132 407 181 407 230 c 0
 407 279 376 328 310 328 c 0
 244 328 213 279 213 230 c 0
 213 181 244 132 310 132 c 0
EndSplineSet
Validated: 1
EndChar

StartChar: uni0E50
Encoding: 3664 3664 204
Width: 611
Flags: W
HStem: -3 61<221.865 409.928> 360 61<221.817 409.976>
VStem: 81 69<127.494 289.367> 481 69<127.494 291.792>
LayerCount: 2
Fore
SplineSet
550 208 m 0
 550 87 466 -3 316 -3 c 0
 166 -3 81 87 81 208 c 0
 81 330 169 421 316 421 c 0
 463 421 550 330 550 208 c 0
481 208 m 0
 481 294 428 360 316 360 c 0
 204 360 150 294 150 208 c 0
 150 123 207 58 316 58 c 0
 425 58 481 123 481 208 c 0
EndSplineSet
Validated: 1
EndChar

StartChar: uni0E51
Encoding: 3665 3665 205
Width: 611
Flags: W
HStem: -3 61<201.419 318.419> 79 52<274.335 318.542> 219 52<273.96 350.578> 360 61<230.927 412.497>
VStem: 80 69<113.581 282.665> 209 59<137.185 213.163> 357 61<136.807 213.15> 501 69<64.3779 272.513>
LayerCount: 2
Fore
SplineSet
319 421 m 0
 477 421 570 323 570 178 c 0
 570 1 453 -67 428 -80 c 1
 389 -31 l 1
 446 -4 501 51 501 181 c 0
 501 296 420 360 326 360 c 0
 228 360 149 302 149 200 c 0
 149 94 217 58 262 58 c 0
 296 58 317 78 319 80 c 1
 315 79 310 79 306 79 c 0
 256 79 209 114 209 172 c 0
 209 207 230 271 312 271 c 0
 382 271 418 215 418 161 c 0
 418 92 371 -3 264 -3 c 0
 133 -3 80 92 80 198 c 0
 80 342 187 421 319 421 c 0
313 131 m 0
 342 131 357 152 357 174 c 0
 357 196 342 219 313 219 c 0
 286 219 268 202 268 176 c 0
 268 154 284 131 313 131 c 0
EndSplineSet
Validated: 1
EndChar

StartChar: uni0E52
Encoding: 3666 3666 206
Width: 611
Flags: W
HStem: 0 61<131.257 522.642> 135 50<229.271 299.288> 267 50<251.282 299.17> 360 61<261.143 356.205 444.755 520.957> 553 61<-17 49.224>
VStem: 57 69<66.3349 543.355> 164 61<189.835 262.405> 304 53<189.224 262.992> 380 49<290 335.022> 529 69<68.7864 352.677>
LayerCount: 2
Fore
SplineSet
357 226 m 0
 357 169 317 135 264 135 c 0
 208 135 164 182 164 258 c 0
 164 340 214 421 300 421 c 0
 384 421 403 369 405 366 c 1
 406 371 422 421 492 421 c 0
 564 421 598 368 598 306 c 2
 598 90 l 2
 598 20 554 0 513 0 c 2
 138 0 l 2
 64 0 57 67 57 100 c 2
 57 510 l 2
 57 546 18 553 -6 553 c 0
 -12 553 -16 553 -17 552 c 1
 -17 613 l 1
 -14 613 -11 614 -7 614 c 0
 44 614 126 593 126 513 c 2
 126 115 l 2
 126 87 131 61 172 61 c 2
 472 61 l 2
 529 61 529 89 529 118 c 2
 529 302 l 2
 529 331 520 360 484 360 c 0
 434 360 429 291 429 290 c 1
 380 290 l 1
 380 299 361 360 310 360 c 0
 262 360 255 332 251 316 c 1
 257 317 263 317 269 317 c 0
 321 317 357 279 357 226 c 0
265 185 m 0
 291 185 304 206 304 226 c 0
 304 246 291 267 265 267 c 0
 238 267 225 246 225 226 c 0
 225 206 238 185 265 185 c 0
EndSplineSet
Validated: 1
EndChar

StartChar: uni0E53
Encoding: 3667 3667 207
Width: 611
Flags: W
HStem: -3 53<120.387 196.256> 137 53<119.678 196.506> 360 61<150.618 271.398 405.942 507.033>
VStem: 40 69<63.5605 311.26> 202 53<55.4521 131.885> 309 69<0 323.339> 527 69<0 339.7>
LayerCount: 2
Fore
SplineSet
40 214 m 0
 40 296 73 421 215 421 c 0
 316 421 344 346 344 345 c 1
 346 349 364 421 458 421 c 0
 545 421 596 359 596 283 c 2
 596 0 l 1
 527 0 l 1
 527 270 l 2
 527 325 501 362 459 362 c 0
 409 362 378 314 378 267 c 2
 378 0 l 1
 309 0 l 1
 309 268 l 2
 309 305 278 360 203 360 c 0
 133 360 109 279 109 213 c 0
 109 200 112 185 114 177 c 1
 129 185 142 190 160 190 c 0
 222 190 255 143 255 89 c 0
 255 34 209 -3 160 -3 c 0
 57 -3 40 104 40 214 c 0
159 50 m 0
 188 50 202 72 202 93 c 0
 202 115 188 137 159 137 c 0
 129 137 114 115 114 93 c 0
 114 72 129 50 159 50 c 0
EndSplineSet
Validated: 1
EndChar

StartChar: uni0E54
Encoding: 3668 3668 208
Width: 611
Flags: W
HStem: -3 61<172.335 359.119> 28 42<315.884 362> 70 102<311.605 361.525> 256 52<288.35 363.269> 360 61<205.623 541.121>
VStem: 48 69<115.045 281.73> 226 58<177.869 251.626> 369 55<176.458 250.737> 636 66<541.596 621>
LayerCount: 2
Fore
SplineSet
232 -3 m 0x9f80
 108 -3 48 106 48 198 c 0
 48 314 132 421 308 421 c 0
 350 421 392 417 430 417 c 0
 490 417 543 427 579 478 c 0
 618 532 632 586 636 645 c 1
 702 621 l 1
 700 563 659 446 596 399 c 0
 549 364 497 357 442 357 c 0
 405 357 368 360 331 360 c 0
 180 360 117 295 117 197 c 0
 117 111 172 58 239 58 c 0x9f80
 269 58 283 70 362 70 c 1
 352 70 226 115 226 207 c 0
 226 255 259 308 325 308 c 0
 389 308 424 260 424 210 c 0
 424 169 401 146 374 133 c 1
 376 133 392 110 434 101 c 0
 478 92 504 94 544 81 c 0
 581 69 590 61 615 48 c 1
 579 -6 l 1
 572 -4 519 28 445 28 c 0x5f80
 378 28 302 -3 232 -3 c 0x9f80
327 172 m 0x3f80
 355 172 369 192 369 213 c 0
 369 234 354 256 326 256 c 0
 301 256 284 240 284 216 c 0
 284 194 299 172 327 172 c 0x3f80
EndSplineSet
Validated: 1
EndChar

StartChar: uni0E55
Encoding: 3669 3669 209
Width: 611
Flags: W
HStem: -3 61<166.622 353.654> 28 42<310.657 356> 70 102<305.847 355.532> 256 52<282.807 355.815> 349 61<302.939 537.626> 360 61<200.722 453.199> 441 61<407.613 508.57> 556 61<408.233 515.846>
VStem: 42 69<115.434 275.559> 222 56<177.837 251.161> 338 69<505.697 552.353> 362 56<176.648 250.085> 548 69<423.582 474.253> 586 65<606.708 666.585>
LayerCount: 2
Fore
SplineSet
550 584 m 1x1be8
 553 589 586 626 586 688 c 1
 651 664 l 1x1be4
 643 585 595 530 595 530 c 1
 595 530 617 498 617 457 c 0
 617 438 614 417 599 397 c 0
 571 358 525 349 472 349 c 0x1bc8
 420 349 362 360 308 360 c 0
 148 360 111 257 111 198 c 0
 111 111 167 58 235 58 c 0x97c8
 265 58 280 70 356 70 c 1
 345 70 222 114 222 208 c 0
 222 256 254 308 320 308 c 0
 383 308 418 261 418 211 c 0
 418 188 411 154 368 133 c 1
 369 133 388 110 428 101 c 0
 472 92 500 94 540 81 c 0
 576 69 584 61 609 48 c 1
 573 -6 l 1
 566 -4 513 28 440 28 c 0x53d8
 373 28 297 -3 226 -3 c 0
 101 -3 42 108 42 197 c 0
 42 279 89 421 293 421 c 0x97d8
 343 421 393 410 439 410 c 0
 518 410 548 428 548 453 c 0
 548 459 545 471 543 475 c 1
 541 472 502 441 448 441 c 0
 387 441 338 476 338 527 c 0
 338 573 379 617 452 617 c 0
 510 617 550 586 550 584 c 1x1be8
517 533 m 1
 509 543 481 556 457 556 c 0
 415 556 407 540 407 529 c 0
 407 511 426 502 449 502 c 0
 495 502 513 528 517 533 c 1
319 172 m 0x33d0
 348 172 362 192 362 213 c 0
 362 234 347 256 319 256 c 0
 294 256 278 240 278 216 c 0
 278 194 292 172 319 172 c 0x33d0
EndSplineSet
Validated: 1
EndChar

StartChar: uni0E56
Encoding: 3670 3670 210
Width: 611
Flags: W
HStem: 0 61<320.994 420.872> 182 53<221.411 298.244> 360 61<255.022 422.612>
VStem: 162 53<101.504 175.796> 167 20<262 280.432> 304 53<101.272 176.409> 491 69<131.058 293.001>
LayerCount: 2
Fore
SplineSet
354 421 m 0xee
 519 421 560 288 560 207 c 0
 560 83 473 0 348 0 c 0
 258 0 162 46 162 133 c 0xf6
 162 189 201 235 260 235 c 0
 319 235 357 192 357 139 c 0
 357 89 331 68 319 62 c 1
 327 61 334 61 342 61 c 0
 432 61 491 127 491 213 c 0
 491 297 430 360 345 360 c 0
 302 360 222 346 187 262 c 1
 167 262 l 1
 167 282 l 2
 167 489 77 591 58 615 c 1
 118 651 l 1
 152 609 172 575 190 523 c 0
 207 472 218 437 221 385 c 1
 263 412 310 421 354 421 c 0xee
304 139 m 0
 304 161 289 182 259 182 c 0
 230 182 215 160 215 138 c 0
 215 112 235 95 259 95 c 0
 289 95 304 117 304 139 c 0
EndSplineSet
Validated: 1
EndChar

StartChar: uni0E57
Encoding: 3671 3671 211
Width: 611
Flags: W
HStem: -3 53<112.534 184.296> 135 53<111.05 184.37> 360 61<129.043 227.231 340.896 426.333> 582 20G<635 713>
VStem: 11 69<161.453 302.168> 190 53<54.8533 130.465> 258 56<251 326.166> 444 69<137.574 344.396> 576 68<220.536 527.775>
LayerCount: 2
Fore
SplineSet
576 373 m 2
 576 545 629 583 641 602 c 1
 713 602 l 1
 710 595 650 543 644 452 c 0
 633 291 653 178 572 83 c 0
 515 17 448 -2 360 -2 c 1
 381 26 444 150 444 266 c 0
 444 316 432 360 384 360 c 0
 316 360 314 256 314 251 c 1
 258 251 l 1
 258 262 253 360 175 360 c 0
 119 360 80 282 80 206 c 0
 80 187 81 171 84 160 c 1
 87 165 100 188 153 188 c 0
 202 188 243 143 243 92 c 0
 243 45 209 -3 147 -3 c 0
 38 -3 11 129 11 199 c 0
 11 303 65 421 179 421 c 0
 227 421 262 395 284 355 c 1
 308 399 346 421 395 421 c 0
 472 421 513 344 513 258 c 0
 513 148 464 76 458 67 c 1
 477 84 576 113 576 334 c 2
 576 373 l 2
148 50 m 0
 181 50 190 77 190 92 c 0
 190 113 176 135 149 135 c 0
 114 135 106 108 106 93 c 0
 106 72 120 50 148 50 c 0
EndSplineSet
Validated: 1
EndChar

StartChar: uni0E58
Encoding: 3672 3672 212
Width: 611
Flags: W
HStem: -3 61<411.35 499.354> 83 53<449.963 500.197> 129 70<229.981 279.847> 219 53<449.5 524.149> 347 61<290.883 544.198> 360 61<195.75 461.509>
VStem: 60 69<128.701 291.777> 169 59<110 128.125> 387 58<140.458 213.928> 529 61<141.739 213.941> 573 69<534.917 610> 580 69<442.077 609.928>
LayerCount: 2
Fore
SplineSet
457 408 m 0x9bc0
 539 408 580 430 580 533 c 0x9b90
 580 574 573 609 573 610 c 1
 642 610 l 1x9ba0
 642 609 649 573 649 529 c 0
 649 381 576 347 471 347 c 0x9b90
 412 347 346 360 281 360 c 0
 216 360 129 327 129 205 c 0
 129 131 169 112 169 110 c 1
 169 120 176 199 236 199 c 0xb790
 313 199 387 58 469 58 c 0
 496 58 501 73 501 84 c 1
 499 84 495 83 489 83 c 0xd390
 428 83 387 121 387 176 c 0
 387 224 419 272 486 272 c 0
 562 272 590 212 590 150 c 0
 590 75 554 -3 473 -3 c 0
 365 -3 279 129 247 129 c 0
 239 129 228 122 228 90 c 0
 228 53 234 30 251 -3 c 1
 138 6 60 97 60 208 c 0
 60 286 105 421 295 421 c 0xb7c0
 353 421 410 408 457 408 c 0x9bc0
487 136 m 0xd3c0
 515 136 529 157 529 178 c 0
 529 198 515 219 487 219 c 0
 459 219 445 198 445 178 c 0
 445 157 459 136 487 136 c 0xd3c0
EndSplineSet
Validated: 1
EndChar

StartChar: uni0E59
Encoding: 3673 3673 213
Width: 611
Flags: W
HStem: -3 61<178.946 278.401> 84 53<237.746 284.658> 216 53<238.493 296.864> 307 68<455.491 516.117> 360 61<183.788 292.562>
VStem: 67 69<107.616 302.792> 181 53<139.484 212.938> 301 55<138.982 212.853> 506 72<485.321 618> 521 69<375.088 617.67>
LayerCount: 2
Fore
SplineSet
521 447 m 0xf740
 521 547 506 609 506 618 c 1
 578 618 l 1xf780
 578 615 590 532 590 483 c 0
 590 372 574 307 512 307 c 0xf740
 467 307 442 346 426 346 c 0
 417 346 412 336 412 325 c 0
 412 301 437 254 471 199 c 2
 573 31 l 1
 517 0 l 1
 517 3 409 176 409 176 c 2
 354 266 308 360 236 360 c 0
 165 360 136 271 136 202 c 0
 136 133 164 58 234 58 c 0
 272 58 284 87 285 90 c 1
 285 90 274 84 259 84 c 0
 213 84 181 129 181 176 c 0
 181 209 200 269 267 269 c 0
 338 269 356 207 356 157 c 0
 356 81 312 -3 228 -3 c 0
 115 -3 67 110 67 214 c 0
 67 334 133 421 232 421 c 0
 298 421 340 377 356 352 c 1
 356 382 367 421 402 421 c 0xef40
 436 421 467 375 497 375 c 0
 512 375 521 384 521 447 c 0xf740
234 175 m 0
 234 156 245 137 269 137 c 0
 290 137 301 156 301 175 c 0
 301 195 289 216 267 216 c 0
 247 216 234 196 234 175 c 0
EndSplineSet
Validated: 1
EndChar

StartChar: uni0E5A
Encoding: 3674 3674 214
Width: 625
Flags: W
HStem: -2 54<286.778 316.355 445.717 473.101> 271 61<134.308 263.396> 403 50<107.593 188.941> 537 61<424.561 499.738> 551 50<107.174 188.282>
VStem: 31 69<415.276 543.346> 196 50<459.662 543.976> 340 70<566 597.351> 351 69<84.7868 369> 505 69<84.867 531.766>
LayerCount: 2
Fore
SplineSet
196 502 m 0xee40
 196 522 186 551 147 551 c 0
 119 551 100 531 100 502 c 0
 100 475 119 453 147 453 c 0
 178 453 196 473 196 502 c 0xee40
373 600 m 0
 393 600 401 592 410 566 c 1xef40
 429 578 449 598 480 598 c 0
 566 598 574 541 574 498 c 2
 574 143 l 2
 574 11 449 -3 449 -3 c 1
 420 51 l 1
 461 56 505 93 505 115 c 2
 505 494 l 2
 505 507 500 537 463 537 c 0
 445 537 427 524 420 509 c 1
 420 150 l 2
 420 23 316 0 290 -2 c 1
 261 52 l 1
 280 52 351 66 351 152 c 2
 351 369 l 1xf6c0
 309 285 263 271 208 271 c 0
 90 271 31 360 31 483 c 0
 31 544 88 601 149 601 c 0
 215 601 246 552 246 504 c 0
 246 447 206 403 150 403 c 0
 133 403 120 408 104 415 c 1
 113 365 137 332 205 332 c 0
 248 332 280 357 313 423 c 0
 337 470 339 506 340 572 c 1xef40
 343 593 359 600 373 600 c 0
EndSplineSet
Validated: 1
EndChar

StartChar: uni0E5B
Encoding: 3675 3675 215
Width: 1105
Flags: W
HStem: 48 53<166.175 311.2> 181 52<238 284.389> 239 46<861.664 1090> 333 48<185.514 217.603> 494 53<154.158 277.897>
VStem: 29 52<198.622 401.1> 136 48<269.136 332.79> 219 49<268.387 332.878> 320 52<275.121 448.805>
DStem2: 541 273 474 348 0.227726 -0.973725<-88.287 0>
LayerCount: 2
Fore
SplineSet
1090 244 m 1
 1049 244 905 239 884 239 c 0
 835 239 821 278 808 293 c 1
 756 129 l 1
 708 293 l 1
 651 90 l 1
 596 299 l 1
 558 100 l 1
 532 100 l 1
 474 348 l 1
 432 191 391 48 235 48 c 0
 100 48 29 179 29 300 c 0
 29 432 102 547 212 547 c 0
 319 547 372 461 372 363 c 0
 372 285 336 181 241 181 c 0
 162 181 136 268 136 300 c 0
 136 343 167 381 202 381 c 0
 226 381 268 357 268 300 c 0
 268 276 258 248 238 233 c 1
 292 233 320 302 320 365 c 0
 320 434 288 494 212 494 c 0
 137 494 81 394 81 299 c 0
 81 176 161 101 235 101 c 0
 367 101 383 228 463 506 c 1
 487 506 l 1
 541 273 l 1
 579 463 l 1
 605 463 l 1
 653 274 l 1
 705 461 l 1
 757 290 l 1
 796 417 l 1
 814 380 863 285 889 285 c 2
 1090 285 l 1
 1090 244 l 1
202 268 m 0
 211 268 219 278 219 300 c 0
 219 322 211 333 202 333 c 0
 193 333 184 321 184 299 c 0
 184 277 193 268 202 268 c 0
EndSplineSet
Validated: 1
EndChar

StartChar: DEL
Encoding: 63259 63259 219
Width: 0
VWidth: 2048
Flags: W
HStem: 0 21G<-460 0>
VStem: -460 460<0 766>
LayerCount: 2
Fore
SplineSet
-460 766 m 1
 0 766 l 1
 0 0 l 1
 -460 0 l 1
 -460 766 l 1
EndSplineSet
Validated: 1
EndChar

StartChar: exclamdown
Encoding: 161 161 220
Width: 332
VWidth: 2048
Flags: W
HStem: -198 21G<112 222> 418 100<116 218>
VStem: 112 110<-198 60 418 518>
LayerCount: 2
Fore
SplineSet
218 518 m 1
 218 418 l 1
 116 418 l 1
 116 518 l 1
 218 518 l 1
195 340 m 1
 222 -38 l 1
 222 -198 l 1
 112 -198 l 1
 112 -38 l 1
 138 340 l 1
 195 340 l 1
EndSplineSet
Validated: 1
EndChar

StartChar: cent
Encoding: 162 162 221
Width: 554
VWidth: 2048
Flags: W
HStem: -199 21G<124 184.01> -14 72<256.468 359.224> -6 69<256 284.577> 458 72<205.816 311> 696 20G<380.18 440>
VStem: 52 89<137.04 386.378> 417 89<120.834 181.708>
DStem2: 124 -184 178 -199 0.279508 0.960143<0.691303 202.601 282 663.051 736.488 937.091>
LayerCount: 2
Fore
SplineSet
52 256 m 0xbe
 52 419 134 530 282 530 c 0
 297 530 313 529 331 527 c 1
 386 716 l 1
 440 700 l 1
 385 510 l 1
 446 487 481 438 495 366 c 1
 411 353 l 1
 402 389 386 417 363 437 c 1
 256 63 l 1xbe
 265 60 276 58 285 58 c 0
 360 58 405 103 417 190 c 1
 506 181 l 1
 481 49 386 -14 287 -14 c 0xde
 267 -14 251 -11 236 -6 c 1
 178 -199 l 1
 124 -184 l 1
 179 11 l 1
 95 54 52 136 52 256 c 0xbe
311 458 m 1
 288 458 l 2
 186 458 141 397 141 261 c 0
 141 175 162 116 202 87 c 1
 311 458 l 1
EndSplineSet
Validated: 1
EndChar

StartChar: sterling
Encoding: 163 163 222
Width: 554
VWidth: 2048
Flags: W
HStem: -12 72<313.712 489.551> 34 72<131.049 300.777> 323 72<21 97 208 348> 530 21G<416 510> 656 72<219.981 367.098>
VStem: 71 95<413.288 605.366> 125 95<191.687 322.179> 423 87<541.954 596.518>
LayerCount: 2
Fore
SplineSet
291 656 m 0xbd
 223 656 166 608 166 536 c 0xbd
 166 503 175 455 193 395 c 1
 348 395 l 1
 348 323 l 1
 208 323 l 1
 215 311 220 294 220 281 c 0
 220 218 189 157 130 96 c 1
 158 103 181 106 201 106 c 0x7b
 280 106 344 60 406 60 c 0
 431 60 461 69 500 86 c 1
 529 18 l 1
 480 -2 440 -12 411 -12 c 0xbb
 338 -12 272 34 195 34 c 0x7b
 143 34 94 19 48 -12 c 1
 14 73 l 1
 89 115 125 178 125 262 c 0xbb
 125 279 123 300 118 323 c 1
 21 323 l 1
 21 395 l 1
 97 395 l 1
 80 449 71 492 71 524 c 0
 71 652 168 728 293 728 c 0
 418 728 490 667 510 543 c 1
 423 530 l 1
 409 615 366 656 291 656 c 0xbd
EndSplineSet
Validated: 1
EndChar

StartChar: currency
Encoding: 164 164 223
Width: 554
VWidth: 2048
Flags: W
HStem: 147 80<203.242 347.501> 481 80<202.909 346.791> 575 20G<72.678 111.42 440 479.322>
VStem: 69 80<281.352 428.252> 403 80<282.005 425.437>
DStem2: 92 595 35 536 0.709607 -0.704598<1.12368 101.979 497.913 598.923> 104 239 159 184 0.709607 0.704598<-95.4663 5.23828 401.714 502.333>
LayerCount: 2
Fore
SplineSet
104 469 m 1
 35 536 l 1
 92 595 l 1
 159 526 l 1
 195 550 235 561 276 561 c 0
 319 561 357 550 391 526 c 1
 460 595 l 1
 517 536 l 1
 448 469 l 1
 472 434 483 395 483 354 c 0
 483 313 472 274 448 239 c 1
 517 173 l 1
 460 115 l 1
 391 184 l 1
 357 159 319 147 276 147 c 0
 233 147 195 159 159 184 c 1
 92 115 l 1
 35 173 l 1
 104 239 l 1
 81 274 69 313 69 354 c 0
 69 395 81 434 104 469 c 1
276 481 m 0
 207 481 149 432 149 354 c 0
 149 285 200 227 276 227 c 0
 353 227 403 288 403 354 c 0
 403 429 344 481 276 481 c 0
EndSplineSet
Validated: 1
EndChar

StartChar: yen
Encoding: 165 165 224
Width: 554
VWidth: 2048
Flags: W
HStem: 0 21G<232 321> 158 72<31 232 321 523> 297 72<31 196 356 523> 696 20G<-2 108.19 438.231 553>
VStem: 232 89<0 158 230 297>
DStem2: 97 716 -2 716 0.4956 -0.868551<0 349.648> 316 469 356 369 0.493708 0.869628<-67.2145 280.461>
LayerCount: 2
Fore
SplineSet
232 0 m 1
 232 158 l 1
 31 158 l 1
 31 230 l 1
 232 230 l 1
 232 297 l 1
 31 297 l 1
 31 369 l 1
 196 369 l 1
 -2 716 l 1
 97 716 l 1
 238 464 l 2
 250 441 262 417 274 389 c 1
 284 411 298 436 316 469 c 2
 449 716 l 1
 553 716 l 1
 356 369 l 1
 523 369 l 1
 523 297 l 1
 321 297 l 1
 321 230 l 1
 523 230 l 1
 523 158 l 1
 321 158 l 1
 321 0 l 1
 232 0 l 1
EndSplineSet
Validated: 1
EndChar

StartChar: brokenbar
Encoding: 166 166 225
Width: 259
VWidth: 2048
Flags: W
HStem: -210 21G<92 169> 708 20G<92 169>
VStem: 92 77<-210 176 343 728>
LayerCount: 2
Fore
SplineSet
169 728 m 1
 169 343 l 1
 92 343 l 1
 92 728 l 1
 169 728 l 1
169 176 m 1
 169 -210 l 1
 92 -210 l 1
 92 176 l 1
 169 176 l 1
EndSplineSet
Validated: 1
EndChar

StartChar: section
Encoding: 167 167 226
Width: 554
VWidth: 2048
Flags: W
HStem: -209 72<210.45 353.229> 656 72<202.217 337.284>
VStem: 40 80<272.033 378.705> 69 89<-80.1735 -32.9775> 87 85<530.197 626.891> 379 90<558.222 607.464> 389 89<-104.42 -2.71397> 428 82<156.848 260.346>
LayerCount: 2
Fore
SplineSet
198 120 m 0xd2
 126 164 40 219 40 314 c 0xe2
 40 385 77 431 150 452 c 1
 107 492 87 532 87 575 c 0
 87 665 166 728 265 728 c 0
 386 728 454 671 469 559 c 1
 379 549 l 1xcc
 366 621 331 656 273 656 c 0
 211 656 172 621 172 578 c 0
 172 517 286 461 340 425 c 0
 395 389 435 364 454 346 c 0
 492 310 510 270 510 227 c 0xc9
 510 166 474 118 400 87 c 1
 452 48 478 2 478 -51 c 0
 478 -146 396 -209 284 -209 c 0
 159 -209 89 -152 69 -34 c 1
 158 -21 l 1
 173 -98 215 -137 284 -137 c 0
 340 -137 389 -102 389 -52 c 0
 389 8 287 65 198 120 c 0xd2
356 120 m 1
 403 144 428 175 428 210 c 0xe1
 428 250 382 297 291 351 c 1
 251 376 218 399 192 418 c 1
 144 392 120 360 120 323 c 0
 120 285 159 241 242 192 c 0
 294 161 333 136 356 120 c 1
EndSplineSet
Validated: 1
EndChar

StartChar: dieresis
Encoding: 168 168 227
Width: 332
VWidth: 2048
Flags: W
HStem: 621 99<31 123 211 303>
VStem: 31 92<621 720> 211 92<621 720>
LayerCount: 2
Fore
SplineSet
31 621 m 1
 31 720 l 1
 123 720 l 1
 123 621 l 1
 31 621 l 1
211 621 m 1
 211 720 l 1
 303 720 l 1
 303 621 l 1
 211 621 l 1
EndSplineSet
Validated: 1
EndChar

StartChar: copyright
Encoding: 169 169 228
Width: 735
VWidth: 2048
Flags: W
HStem: -9 60<256.049 483.607> 149 55<293.484 440.416> 512 55<300.993 441.648> 668 60<260.318 482.103>
VStem: 2 62<243.754 475.842> 178 65<258.106 449.878> 489 60<254.411 284.1> 677 62<246.17 472.914>
LayerCount: 2
Fore
SplineSet
371 728 m 0
 578 728 739 572 739 359 c 0
 739 149 575 -9 371 -9 c 0
 155 -9 2 159 2 359 c 0
 2 580 168 728 371 728 c 0
371 668 m 0
 203 668 64 540 64 359 c 0
 64 187 194 51 371 51 c 0
 548 51 677 187 677 359 c 0
 677 533 538 668 371 668 c 0
372 512 m 0
 290 512 243 450 243 357 c 0
 243 256 285 204 368 204 c 0
 431 204 472 238 489 300 c 1
 549 282 l 1
 524 193 466 149 371 149 c 0
 282 149 178 197 178 359 c 0
 178 486 251 567 376 567 c 0
 461 567 517 529 541 451 c 1
 483 437 l 1
 461 487 425 512 372 512 c 0
EndSplineSet
Validated: 1
EndChar

StartChar: ordfeminine
Encoding: 170 170 229
Width: 369
VWidth: 2048
Flags: W
HStem: 365 58<102.019 224.718> 671 57<120.542 244.797>
VStem: 23 72<431.999 504.913> 35 68<625.25 652.892> 261 70<457.585 540 590.847 652.811> 268 63<374.715 417>
LayerCount: 2
Fore
SplineSet
268 417 m 1xc4
 228 382 187 365 143 365 c 0
 63 365 23 400 23 472 c 0xe4
 23 518 46 549 94 566 c 0
 122 576 221 583 261 596 c 1
 261 647 236 671 184 671 c 0
 136 671 109 651 103 610 c 1
 35 627 l 1
 48 694 98 728 185 728 c 0
 282 728 331 688 331 610 c 2
 331 463 l 2xd8
 331 420 337 389 351 374 c 1
 279 374 l 1
 271 388 268 402 268 417 c 1xc4
261 540 m 1xe8
 204 528 95 524 95 472 c 0
 95 438 116 423 159 423 c 0
 227 423 261 461 261 540 c 1xe8
EndSplineSet
Validated: 1
EndChar

StartChar: guillemotleft
Encoding: 171 171 230
Width: 554
VWidth: 2048
Flags: W
LayerCount: 2
Fore
SplineSet
166 258 m 1
 293 35 l 1
 222 35 l 1
 64 258 l 1
 222 480 l 1
 293 480 l 1
 166 258 l 1
356 258 m 1
 484 35 l 1
 411 35 l 1
 256 258 l 1
 411 480 l 1
 484 480 l 1
 356 258 l 1
EndSplineSet
Validated: 1
EndChar

StartChar: logicalnot
Encoding: 172 172 231
Width: 583
VWidth: 2048
Flags: W
HStem: 422 81<55 446>
VStem: 446 83<207 422>
LayerCount: 2
Fore
SplineSet
529 207 m 1
 446 207 l 1
 446 422 l 1
 55 422 l 1
 55 503 l 1
 529 503 l 1
 529 207 l 1
EndSplineSet
Validated: 1
EndChar

StartChar: minus
Encoding: 173 173 232
AltUni2: 002212.ffffffff.0
Width: 332
VWidth: 2048
Flags: W
HStem: 215 88<32 302>
VStem: 32 270<215 303>
LayerCount: 2
Fore
SplineSet
32 215 m 1
 32 303 l 1
 302 303 l 1
 302 215 l 1
 32 215 l 1
EndSplineSet
Validated: 1
EndChar

StartChar: registered
Encoding: 174 174 233
Width: 735
VWidth: 2048
Flags: W
HStem: -9 60<256.049 483.607> 323 56<273 370.85> 498 54<273 430.384> 668 60<260.318 482.103>
VStem: 2 62<243.754 475.842> 208 65<156 323 379 498> 448 65<396.258 479.903> 677 62<246.17 472.914>
LayerCount: 2
Fore
SplineSet
371 728 m 0
 578 728 739 572 739 359 c 0
 739 149 575 -9 371 -9 c 0
 155 -9 2 159 2 359 c 0
 2 580 168 728 371 728 c 0
371 668 m 0
 203 668 64 540 64 359 c 0
 64 187 194 51 371 51 c 0
 548 51 677 187 677 359 c 0
 677 533 538 668 371 668 c 0
513 446 m 0
 513 356 431 336 402 333 c 1
 426 325 457 293 494 233 c 2
 543 156 l 1
 463 156 l 1
 428 219 l 2
 398 273 373 323 310 323 c 2
 273 323 l 1
 273 156 l 1
 208 156 l 1
 208 552 l 1
 345 552 l 2
 458 552 513 517 513 446 c 0
273 379 m 1
 351 379 l 2
 415 379 448 399 448 440 c 0
 448 478 412 498 345 498 c 2
 273 498 l 1
 273 379 l 1
EndSplineSet
Validated: 1
EndChar

StartChar: macron
Encoding: 175 175 234
AltUni2: 0002c9.ffffffff.0
Width: 551
VWidth: 2048
Flags: W
HStem: 765 63<-15 567>
LayerCount: 2
Fore
SplineSet
-15 765 m 1
 -15 828 l 1
 567 828 l 1
 567 765 l 1
 -15 765 l 1
EndSplineSet
Validated: 1
EndChar

StartChar: degree
Encoding: 176 176 235
Width: 400
VWidth: 2048
Flags: W
HStem: 457 52<143.7 251.874> 676 52<142.236 251.222>
VStem: 63 53<536.91 648.699> 281 53<539.286 647.569>
LayerCount: 2
Fore
SplineSet
198 457 m 0
 121 457 63 520 63 593 c 0
 63 665 124 728 198 728 c 0
 272 728 334 665 334 593 c 0
 334 512 268 457 198 457 c 0
198 676 m 0
 150 676 116 638 116 593 c 0
 116 545 153 509 198 509 c 0
 243 509 281 550 281 593 c 0
 281 636 243 676 198 676 c 0
EndSplineSet
Validated: 1
EndChar

StartChar: plusminus
Encoding: 177 177 236
Width: 548
VWidth: 2048
Flags: W
HStem: 0 83<38 510> 323 83<38 233 316 510> 581 20G<233 316>
VStem: 233 83<127 323 406 601>
LayerCount: 2
Fore
SplineSet
233 127 m 1
 233 323 l 1
 38 323 l 1
 38 406 l 1
 233 406 l 1
 233 601 l 1
 316 601 l 1
 316 406 l 1
 510 406 l 1
 510 323 l 1
 316 323 l 1
 316 127 l 1
 233 127 l 1
510 0 m 1
 38 0 l 1
 38 83 l 1
 510 83 l 1
 510 0 l 1
EndSplineSet
Validated: 1
EndChar

StartChar: twosuperior
Encoding: 178 178 237
Width: 332
VWidth: 2048
Flags: W
HStem: 357 61<128 317> 665 61<115.326 230.504>
VStem: 240 69<572.469 654.044>
LayerCount: 2
Fore
SplineSet
309 625 m 0
 309 536 213 490 128 418 c 1
 317 418 l 1
 317 357 l 1
 12 357 l 1
 12 455 240 546 240 613 c 0
 240 648 216 665 171 665 c 0
 133 665 109 648 96 611 c 1
 23 617 l 1
 41 688 90 726 171 726 c 0
 268 726 309 691 309 625 c 0
EndSplineSet
Validated: 1
EndChar

StartChar: threesuperior
Encoding: 179 179 238
Width: 332
VWidth: 2048
Flags: W
HStem: 349 61<105.096 227.328> 525 50<146 216.663> 664 61<107.787 220.483>
VStem: 17 70<428.749 456.7> 226 69<587.039 656.24> 243 69<426.34 514.407>
LayerCount: 2
Fore
SplineSet
312 463 m 0xf4
 312 387 238 349 167 349 c 0
 80 349 31 387 17 456 c 1
 87 463 l 1
 98 427 124 410 162 410 c 0
 213 410 243 430 243 474 c 0xf4
 243 512 215 525 162 525 c 1
 135 523 l 1
 146 575 l 1
 196 575 226 590 226 624 c 0
 226 653 202 664 164 664 c 0
 129 664 106 652 95 618 c 1
 25 630 l 1
 46 691 94 725 164 725 c 0
 254 725 295 691 295 632 c 0xf8
 295 593 272 568 227 554 c 1
 284 540 312 512 312 463 c 0xf4
EndSplineSet
Validated: 1
EndChar

StartChar: acute
Encoding: 180 180 239
Width: 332
VWidth: 2048
Flags: W
HStem: 582 138<173 181>
VStem: 109 179
LayerCount: 2
Fore
SplineSet
109 582 m 1
 173 720 l 1
 288 720 l 1
 181 582 l 1
 109 582 l 1
EndSplineSet
Validated: 1
EndChar

StartChar: micro
Encoding: 181 181 240
AltUni2: 0003bc.ffffffff.0
Width: 574
VWidth: 2048
Flags: W
HStem: -199 21G<78 167> -12 72<217.147 354.472> 0 21G<408 497> 498 20G<78 167 408 497>
VStem: 78 89<-199 52 120.55 518> 408 89<0 61 123.952 518>
LayerCount: 2
Back
SplineSet
497 518 m 1
 497 0 l 1
 418 0 l 1
 418 61 l 1
 389 12 346 -12 288 -12 c 0
 239 -12 198 9 166 52 c 1
 166 -199 l 1
 78 -199 l 1
 78 518 l 1
 166 518 l 1
 166 299 l 2
 166 227 170 176 178 149 c 0
 195 95 230 67 285 67 c 0
 340 67 379 94 395 147 c 0
 406 176 411 227 411 297 c 2
 411 518 l 1
 497 518 l 1
EndSplineSet
Fore
SplineSet
285 60 m 0xdc
 395 60 408 162 408 297 c 2
 408 518 l 1
 497 518 l 1
 497 0 l 1
 408 0 l 1xbc
 408 61 l 1
 379 12 346 -12 288 -12 c 0
 239 -12 199 9 167 52 c 1
 167 -199 l 1
 78 -199 l 1
 78 518 l 1
 167 518 l 1
 167 299 l 2
 167 152 181 60 285 60 c 0xdc
EndSplineSet
Validated: 1
EndChar

StartChar: paragraph
Encoding: 182 182 241
Width: 536
VWidth: 2048
Flags: W
HStem: -199 21G<198 287 385 474> 644 72<287 385 474 541>
VStem: 0 287<418.482 608.127> 198 89<-199 311> 385 89<-199 644>
LayerCount: 2
Fore
SplineSet
0 510 m 0xe8
 0 644 88 716 231 716 c 2
 541 716 l 1
 541 644 l 1
 474 644 l 1
 474 -199 l 1
 385 -199 l 1
 385 644 l 1
 287 644 l 1
 287 -199 l 1
 198 -199 l 1
 198 311 l 1xd8
 84 311 0 398 0 510 c 0xe8
EndSplineSet
Validated: 1
EndChar

StartChar: periodcentered
Encoding: 183 183 242
AltUni2: 002219.ffffffff.0
Width: 277
VWidth: 2048
Flags: W
HStem: 302 101<90 192>
VStem: 90 102<302 403>
LayerCount: 2
Fore
SplineSet
90 302 m 1
 90 403 l 1
 192 403 l 1
 192 302 l 1
 90 302 l 1
EndSplineSet
Validated: 1
EndChar

StartChar: cedilla
Encoding: 184 184 243
Width: 332
VWidth: 2048
Flags: W
HStem: -205 61<58 177.938> -75 86<130 179.271>
VStem: 182 82<-135.872 -82.8224>
LayerCount: 2
Fore
SplineSet
264 -113 m 0
 264 -176 201 -205 123 -205 c 0
 97 -205 74 -204 52 -199 c 1
 58 -143 l 1
 84 -144 102 -144 113 -144 c 0
 159 -144 182 -131 182 -107 c 0
 182 -86 156 -75 106 -75 c 1
 130 11 l 1
 196 11 l 1
 181 -41 l 1
 236 -48 264 -71 264 -113 c 0
EndSplineSet
Validated: 1
EndChar

StartChar: onesuperior
Encoding: 185 185 244
Width: 332
VWidth: 2048
Flags: W
HStem: 573 62<56 103.923> 705 20G<164.5 233>
VStem: 164 69<357 628>
LayerCount: 2
Fore
SplineSet
164 357 m 1
 164 628 l 1
 133 604 98 586 56 573 c 1
 56 635 l 1
 105 651 147 681 182 725 c 1
 233 725 l 1
 233 357 l 1
 164 357 l 1
EndSplineSet
Validated: 1
EndChar

StartChar: ordmasculine
Encoding: 186 186 245
Width: 364
VWidth: 2048
Flags: W
HStem: 362 61<123.235 239.825> 667 61<124.583 239.825>
VStem: 21 69<457.854 630.64> 274 69<458.253 631.699>
LayerCount: 2
Fore
SplineSet
21 543 m 0
 21 651 80 728 182 728 c 0
 285 728 343 654 343 544 c 0
 343 436 285 362 182 362 c 0
 83 362 21 436 21 543 c 0
182 667 m 0
 124 667 90 624 90 544 c 0
 90 466 124 423 182 423 c 0
 241 423 274 466 274 547 c 0
 274 624 241 667 182 667 c 0
EndSplineSet
Validated: 1
EndChar

StartChar: guillemotright
Encoding: 187 187 246
Width: 554
VWidth: 2048
Flags: W
LayerCount: 2
Fore
SplineSet
386 258 m 1
 259 480 l 1
 331 480 l 1
 487 258 l 1
 331 35 l 1
 259 35 l 1
 386 258 l 1
198 258 m 1
 67 480 l 1
 143 480 l 1
 296 258 l 1
 143 35 l 1
 67 35 l 1
 198 258 l 1
EndSplineSet
Validated: 1
EndChar

StartChar: onequarter
Encoding: 188 188 247
Width: 833
VWidth: 2048
Flags: W
HStem: 52 61<586 699 768 820> 573 62<55 103.284> 708 20G<164.5 233 647.741 737>
VStem: 164 69<357 628> 699 69<-15 52 113 241>
DStem2: 123 -28 199 -28 0.580525 0.814243<44.1199 928.47> 510 121 586 113 0.656179 0.754606<43.8327 214.57>
LayerCount: 2
Fore
SplineSet
123 -28 m 1
 662 728 l 1
 737 728 l 1
 199 -28 l 1
 123 -28 l 1
164 357 m 1
 164 628 l 1
 133 604 97 586 55 573 c 1
 55 635 l 1
 104 651 147 681 182 725 c 1
 233 725 l 1
 233 357 l 1
 164 357 l 1
699 -15 m 1
 699 52 l 1
 510 52 l 1
 510 121 l 1
 710 351 l 1
 768 351 l 1
 768 113 l 1
 820 113 l 1
 820 52 l 1
 768 52 l 1
 768 -15 l 1
 699 -15 l 1
699 113 m 1
 699 241 l 1
 586 113 l 1
 699 113 l 1
EndSplineSet
Validated: 1
EndChar

StartChar: onehalf
Encoding: 189 189 248
Width: 833
VWidth: 2048
Flags: W
HStem: -15 61<628 817> 293 61<615.326 730.504> 573 62<55 103.284> 708 20G<164.5 233 633.82 727>
VStem: 164 69<357 628> 740 69<200.469 282.044>
DStem2: 112 -28 189 -28 0.57981 0.814752<44.6454 926.73>
LayerCount: 2
Back
SplineSet
112 -28 m 1
 648 728 l 1
 727 728 l 1
 189 -28 l 1
 112 -28 l 1
164 357 m 1
 164 628 l 1
 133 604 97 586 55 573 c 1
 55 635 l 1
 104 651 147 681 182 725 c 1
 233 725 l 1
 233 357 l 1
 164 357 l 1
809 253 m 0
 809 164 713 116 628 44 c 1
 817 44 l 1
 817 -15 l 1
 512 -15 l 1
 512 83 740 174 740 241 c 0
 740 276 716 293 671 293 c 0
 633 293 609 276 596 239 c 1
 523 245 l 1
 541 316 590 354 671 354 c 0
 768 354 809 319 809 253 c 0
EndSplineSet
Fore
SplineSet
112 -28 m 1
 648 728 l 1
 727 728 l 1
 189 -28 l 1
 112 -28 l 1
164 357 m 1
 164 628 l 1
 133 604 97 586 55 573 c 1
 55 635 l 1
 104 651 147 681 182 725 c 1
 233 725 l 1
 233 357 l 1
 164 357 l 1
809 253 m 0
 809 164 713 118 628 46 c 1
 817 46 l 1
 817 -15 l 1
 512 -15 l 1
 512 83 740 174 740 241 c 0
 740 276 716 293 671 293 c 0
 633 293 609 276 596 239 c 1
 523 245 l 1
 541 316 590 354 671 354 c 0
 768 354 809 319 809 253 c 0
EndSplineSet
Validated: 1
EndChar

StartChar: threequarters
Encoding: 190 190 249
Width: 833
VWidth: 2048
Flags: W
HStem: 52 61<586 699 768 820> 349 61<105.096 227.328> 525 50<146 216.663> 664 61<107.787 220.483>
VStem: 17 70<428.749 456.7> 226 69<587.039 656.24> 243 69<426.34 514.407> 699 69<-15 52 113 241>
DStem2: 123 -28 199 -28 0.57981 0.814752<44.0656 927.89> 510 121 586 113 0.652418 0.757859<43.5209 214.25>
LayerCount: 2
Fore
SplineSet
123 -28 m 1xf9
 661 728 l 1
 737 728 l 1
 199 -28 l 1
 123 -28 l 1xf9
312 463 m 0xfb
 312 387 238 349 167 349 c 0
 80 349 31 387 17 456 c 1
 87 463 l 1
 98 427 124 410 162 410 c 0
 213 410 243 430 243 474 c 0xfb
 243 512 215 525 162 525 c 1
 135 523 l 1
 146 575 l 1
 196 575 226 590 226 624 c 0
 226 653 202 664 164 664 c 0
 129 664 106 652 95 618 c 1
 25 630 l 1
 46 691 94 725 164 725 c 0
 254 725 295 691 295 632 c 0xfd
 295 593 272 568 227 554 c 1
 284 540 312 512 312 463 c 0xfb
699 -15 m 1
 699 52 l 1
 510 52 l 1
 510 121 l 1
 708 351 l 1
 768 351 l 1
 768 113 l 1
 820 113 l 1
 820 52 l 1
 768 52 l 1
 768 -15 l 1
 699 -15 l 1
699 113 m 1
 699 241 l 1
 586 113 l 1
 699 113 l 1
EndSplineSet
Validated: 1
EndChar

StartChar: questiondown
Encoding: 191 191 250
Width: 556
VWidth: 2048
Flags: W
HStem: -210 72<193.16 349.91> 418 100<224 324>
VStem: 44 89<-79.5234 48.912> 224 100<222.557 342 418 518> 414 91<-62.6338 -2.15385>
LayerCount: 2
Back
SplineSet
357 518 m 1xf4
 357 418 l 1
 258 418 l 1
 258 518 l 5
 357 518 l 1xf4
167 -8 m 0
 167 -85 233 -136 307 -136 c 0
 386 -136 434 -89 449 8 c 1
 540 -3 l 1
 520 -141 443 -210 308 -210 c 0
 183 -210 77 -136 77 -14 c 0
 77 106 213 175 253 244 c 0
 264 264 268 297 268 343 c 1
 353 343 l 1
 353 317 l 2xec
 353 119 167 110 167 -8 c 0
EndSplineSet
Fore
SplineSet
133 -9 m 0
 133 -87 196 -138 272 -138 c 0
 351 -138 399 -91 414 8 c 1
 505 -3 l 1
 488 -141 411 -210 273 -210 c 0
 147 -210 44 -142 44 -15 c 0
 44 82 154 149 196 210 c 0
 217 241 229 282 230 342 c 1
 319 342 l 1
 319 301 l 2
 319 242 289 189 270 169 c 0
 237 133 133 60 133 -9 c 0
324 518 m 1
 324 418 l 1
 224 418 l 1
 224 518 l 1
 324 518 l 1
EndSplineSet
Validated: 1
EndChar

StartChar: AE
Encoding: 198 198 257
Width: 999
VWidth: 2048
Flags: W
HStem: 0 84<573 946> 206 84<241 478> 327 84<573 907> 632 84<406 478 573 932>
VStem: 478 95<84 206 290 327 411 632>
DStem2: 0 0 103 0 0.43408 0.900874<44.7103 272.83 365.867 745.589>
LayerCount: 2
Fore
SplineSet
0 0 m 1
 345 716 l 1
 932 716 l 1
 932 632 l 1
 573 632 l 1
 573 411 l 1
 907 411 l 1
 907 327 l 1
 573 327 l 1
 573 84 l 1
 946 84 l 1
 946 0 l 1
 478 0 l 1
 478 206 l 1
 201 206 l 1
 103 0 l 1
 0 0 l 1
241 290 m 1
 478 290 l 1
 478 632 l 1
 406 632 l 1
 241 290 l 1
EndSplineSet
Validated: 1
EndChar

StartChar: Ccedilla
Encoding: 199 199 258
Width: 721
VWidth: 2048
Flags: W
HStem: -205 61<276 395.938> -10 82<275.562 342 408 477.995> 646 84<279.712 483.296>
VStem: 52 95<222.651 499.89> 342 57<-35.2778 -17.6667> 400 82<-135.872 -82.8224>
LayerCount: 2
Back
SplineSet
482 -113 m 4
 482 -176 419 -205 341 -205 c 4
 315 -205 292 -204 270 -199 c 5
 276 -143 l 5
 302 -144 320 -144 331 -144 c 4
 377 -144 400 -131 400 -107 c 4
 400 -86 374 -75 324 -75 c 5
 348 11 l 5
 414 11 l 5xdc
 399 -41 l 5
 454 -48 482 -71 482 -113 c 4
147 363 m 4xbc
 147 191 219 69 379 69 c 4
 492 69 563 130 589 251 c 5
 684 227 l 5
 642 67 543 -12 386 -12 c 4
 170 -12 52 131 52 363 c 4
 52 590 176 728 388 728 c 4
 536 728 630 659 671 520 c 5
 578 498 l 5
 546 598 481 647 386 647 c 4
 226 647 147 536 147 363 c 4xbc
EndSplineSet
Fore
SplineSet
482 -113 m 0
 482 -176 419 -205 341 -205 c 0
 315 -205 292 -204 270 -199 c 1
 276 -143 l 1
 302 -144 320 -144 331 -144 c 0
 377 -144 400 -131 400 -107 c 0
 400 -86 374 -75 324 -75 c 1
 342 -10 l 1
 154 8 52 148 52 364 c 0
 52 591 176 730 388 730 c 0
 536 730 630 660 671 521 c 1
 578 499 l 1
 546 599 481 646 386 646 c 0
 226 646 147 537 147 364 c 0
 147 192 219 72 379 72 c 0
 492 72 563 130 589 251 c 1
 684 227 l 1
 644 74 553 -4 408 -11 c 1
 399 -41 l 1
 454 -48 482 -71 482 -113 c 0
EndSplineSet
Validated: 1
EndChar

StartChar: Eth
Encoding: 208 208 267
Width: 721
VWidth: 2048
Flags: W
HStem: 0 84<172 447.941> 325 66<-2 77 172 369> 632 84<172 452.253>
VStem: 77 95<84 325 391 632> 575 95<220.251 502.028>
CounterMasks: 1 e0
LayerCount: 2
Fore
SplineSet
77 0 m 1
 77 325 l 1
 -2 325 l 1
 -2 391 l 1
 77 391 l 1
 77 716 l 1
 334 716 l 2
 425 716 670 709 670 362 c 0
 670 121 558 0 336 0 c 2
 77 0 l 1
575 363 m 0
 575 612 435 632 322 632 c 2
 172 632 l 1
 172 391 l 1
 369 391 l 1
 369 325 l 1
 172 325 l 1
 172 84 l 1
 325 84 l 2
 448 84 575 126 575 363 c 0
EndSplineSet
Validated: 1
EndChar

StartChar: multiply
Encoding: 215 215 274
Width: 583
VWidth: 2048
Flags: W
DStem2: 78 199 138 141 0.708068 0.706144<1.52774 217.902 302.755 519.129> 138 567 80 507 0.707107 -0.707107<1.41422 216.375 301.227 517.602>
LayerCount: 2
Fore
SplineSet
78 199 m 1
 233 354 l 1
 80 507 l 1
 138 567 l 1
 291 414 l 1
 446 566 l 1
 504 507 l 1
 351 354 l 1
 504 201 l 1
 446 141 l 1
 291 294 l 1
 138 141 l 1
 78 199 l 1
EndSplineSet
Validated: 1
EndChar

StartChar: Oslash
Encoding: 216 216 275
Width: 777
VWidth: 2048
Flags: W
HStem: -12 84<283.787 490.389> 644 84<280.552 491.798>
VStem: 46 95<234.314 487.573> 636 95<232.569 481.991>
DStem2: 40 12 89 -29 0.666705 0.745321<2.11038 127.261 221.572 757.824 853.879 979.443>
LayerCount: 2
Back
SplineSet
610 650 m 1
 693 742 l 1
 740 702 l 1
 655 605 l 1
 705 532 731 451 731 357 c 0
 731 250 702 162 642 95 c 0
 581 23 497 -12 391 -12 c 0
 314 -12 241 12 170 63 c 1
 89 -29 l 1
 40 12 l 1
 127 109 l 1
 74 189 46 270 46 356 c 0
 46 464 77 552 136 621 c 0
 199 693 285 728 391 728 c 0
 472 728 544 702 610 650 c 1
552 584 m 1
 501 627 448 647 391 647 c 0
 308 647 247 619 202 561 c 0
 164 510 144 441 144 357 c 0
 144 291 159 231 189 176 c 1
 552 584 l 1
592 535 m 1
 228 127 l 1
 277 89 330 69 388 69 c 0
 468 69 529 98 573 155 c 0
 613 207 635 274 635 356 c 0
 635 422 619 481 592 535 c 1
EndSplineSet
Fore
SplineSet
46 356 m 0
 46 576 178 728 391 728 c 0
 472 728 544 702 610 650 c 1
 693 742 l 1
 740 702 l 1
 655 605 l 1
 705 532 731 451 731 357 c 0
 731 138 601 -12 391 -12 c 0
 314 -12 241 12 170 63 c 1
 89 -29 l 1
 40 12 l 1
 127 109 l 1
 74 189 46 270 46 356 c 0
391 644 m 0
 193 644 141 483 141 357 c 0
 141 291 159 231 189 176 c 1
 552 584 l 1
 501 627 448 644 391 644 c 0
388 72 m 0
 549 72 636 198 636 356 c 0
 636 422 619 481 592 535 c 1
 228 127 l 1
 277 89 330 72 388 72 c 0
EndSplineSet
Validated: 1
EndChar

StartChar: Thorn
Encoding: 222 222 281
Width: 666
VWidth: 2048
Flags: W
HStem: 0 21G<77 172> 146 84<172 466.216> 486 84<172 471.393> 696 20G<77 172>
VStem: 77 95<0 146 230 486 570 716> 529 95<287.484 434.071>
LayerCount: 2
Fore
SplineSet
348 570 m 2
 509 570 624 529 624 363 c 0
 624 218 533 146 356 146 c 2
 172 146 l 1
 172 0 l 1
 77 0 l 1
 77 716 l 1
 172 716 l 1
 172 570 l 1
 348 570 l 2
529 360 m 0
 529 437 489 486 356 486 c 2
 172 486 l 1
 172 230 l 1
 357 230 l 2
 469 230 529 273 529 360 c 0
EndSplineSet
Validated: 1
EndChar

StartChar: germandbls
Encoding: 223 223 282
Width: 610
VWidth: 2048
Flags: W
HStem: -12 72<344.061 460.616> 0 21G<75 164> 656 72<208.512 349.724>
VStem: 75 89<0 603.644> 300 89<347.995 444.79> 377 89<512.412 629.693> 490 89<89.9367 192.8>
LayerCount: 2
Fore
SplineSet
282 656 m 0xb6
 186 656 164 591 164 484 c 2
 164 0 l 1
 75 0 l 1
 75 487 l 2
 75 648 144 728 284 728 c 0
 382 728 466 674 466 589 c 0x76
 466 516 389 436 389 389 c 0
 389 316 579 286 579 153 c 0
 579 47 495 -12 402 -12 c 0
 320 -12 262 28 224 106 c 1
 300 141 l 1
 326 87 360 60 400 60 c 0
 457 60 490 102 490 146 c 0
 490 230 300 268 300 376 c 0xba
 300 437 377 521 377 579 c 0
 377 625 336 656 282 656 c 0xb6
EndSplineSet
Validated: 1
EndChar

StartChar: ae
Encoding: 230 230 289
Width: 889
VWidth: 2048
Flags: W
HStem: -12 72<146.477 316.301 537.747 698.761> 238 72<474 759> 261 65<286.797 386> 458 72<180.526 356.473 540.253 695.899>
VStem: 32 89<85.2899 188.018> 48 85<367.094 410.67> 386 88<129.824 238 321.05 390.491> 756 92<119.467 159.717 310 390.894>
LayerCount: 2
Fore
SplineSet
210 -12 m 0xd7
 105 -12 32 47 32 136 c 0
 32 228 109 284 262 303 c 0
 310 309 351 317 386 326 c 1xbb
 386 346 l 2
 386 430 355 458 271 458 c 0
 189 458 143 425 133 357 c 1
 48 368 l 1
 69 477 144 530 273 530 c 0
 365 530 425 507 452 460 c 1
 494 507 549 530 618 530 c 0
 781 530 849 396 849 275 c 1
 848 238 l 1
 474 238 l 1
 474 120 523 60 622 60 c 0
 693 60 737 97 756 170 c 1
 848 159 l 1
 811 44 734 -12 618 -12 c 0
 538 -12 474 20 425 86 c 1
 360 20 290 -12 210 -12 c 0xd7
474 310 m 1xd3
 759 310 l 1
 750 408 704 458 618 458 c 0
 537 458 474 401 474 310 c 1xd3
388 261 m 1xbb
 247 228 121 222 121 139 c 0
 121 86 159 60 227 60 c 0
 301 60 361 96 377 146 c 0
 384 167 388 204 388 261 c 1xbb
EndSplineSet
Validated: 1
EndChar

StartChar: ccedilla
Encoding: 231 231 290
Width: 499
VWidth: 2048
Flags: W
HStem: -205 61<164 283.938> -11 72<197.356 231 296 348.872> 458 72<197.919 350.052>
VStem: 38 89<140.017 379.542> 231 56<-33.3158 -17.6667> 288 82<-135.872 -82.8224> 397 86<364.942 408.371> 405 85<122.418 179.906>
LayerCount: 2
Back
SplineSet
370 -113 m 0
 370 -176 307 -205 229 -205 c 0
 203 -205 180 -204 158 -199 c 1
 164 -143 l 1
 190 -144 208 -144 219 -144 c 0
 265 -144 288 -131 288 -107 c 0
 288 -86 262 -75 212 -75 c 1
 236 11 l 1
 302 11 l 1
 287 -41 l 1
 342 -48 370 -71 370 -113 c 0
38 258 m 0xe8
 38 476 171 530 276 530 c 0
 392 530 461 477 483 366 c 1
 397 353 l 1xf0
 382 423 342 458 279 458 c 0
 179 458 127 392 127 259 c 0
 127 127 178 61 274 61 c 0
 349 61 392 104 405 190 c 1
 490 179 l 1
 472 66 397 -12 276 -12 c 0
 122 -12 38 97 38 258 c 0xe8
EndSplineSet
Fore
SplineSet
38 258 m 0xfd
 38 476 171 530 276 530 c 0
 392 530 461 477 483 366 c 1
 397 353 l 1xfe
 382 423 342 458 279 458 c 0
 179 458 127 392 127 259 c 0
 127 127 178 61 274 61 c 0
 349 61 392 104 405 190 c 1
 490 179 l 1
 473 72 406 -3 296 -11 c 1
 287 -41 l 1
 342 -48 370 -71 370 -113 c 0
 370 -176 307 -205 229 -205 c 0
 203 -205 180 -204 158 -199 c 1
 164 -143 l 1
 190 -144 208 -144 219 -144 c 0
 265 -144 288 -131 288 -107 c 0
 288 -86 262 -75 212 -75 c 1
 231 -9 l 1
 106 11 38 114 38 258 c 0xfd
EndSplineSet
Validated: 1
EndChar

StartChar: eth
Encoding: 240 240 299
Width: 554
VWidth: 2048
Flags: W
HStem: -12 72<200.088 348.791> 458 72<201.195 342.151> 696 20G<150 269 379.143 431.388>
VStem: 35 89<144.159 370.582> 428 89<152.923 364.917>
DStem2: 135 582 156 532 0.906023 0.423229<0 127.953 222.054 316.741>
LayerCount: 2
Back
SplineSet
35 253 m 0
 35 354 79 518 256 518 c 4
 290 518 325 509 360 490 c 5
 340 529 317 564 290 595 c 1
 156 532 l 1
 135 582 l 1
 251 636 l 1
 221 665 187 691 150 716 c 1
 256 716 l 1
 282 697 302 681 317 667 c 1
 422 716 l 1
 445 667 l 1
 360 625 l 1
 464 506 517 382 517 254 c 0
 517 95 423 -12 276 -12 c 0
 122 -12 35 89 35 253 c 0
274 60 m 0
 374 60 428 145 428 258 c 0
 428 365 371 451 273 451 c 0
 171 451 124 362 124 250 c 0
 124 94 215 60 274 60 c 0
EndSplineSet
Fore
SplineSet
35 256 m 0
 35 357 79 530 256 530 c 0
 290 530 325 521 353 502 c 1
 333 541 317 564 290 595 c 1
 156 532 l 1
 135 582 l 1
 251 636 l 1
 221 665 187 691 150 716 c 1
 256 716 l 1
 282 697 302 681 317 667 c 1
 422 716 l 1
 445 667 l 1
 360 625 l 1
 464 506 517 385 517 257 c 0
 517 98 423 -12 276 -12 c 0
 122 -12 35 92 35 256 c 0
274 60 m 0
 374 60 428 148 428 261 c 0
 428 368 371 458 273 458 c 0
 171 458 124 365 124 253 c 0
 124 97 215 60 274 60 c 0
EndSplineSet
Validated: 1
EndChar

StartChar: divide
Encoding: 247 247 306
Width: 548
VWidth: 2048
Flags: W
HStem: 156 100<224 323> 313 81<38 510> 451 99<224 323>
VStem: 224 99<156 256 451 550>
LayerCount: 2
Fore
SplineSet
224 451 m 1
 224 550 l 1
 323 550 l 1
 323 451 l 1
 224 451 l 1
510 313 m 1
 38 313 l 1
 38 394 l 1
 510 394 l 1
 510 313 l 1
224 156 m 1
 224 256 l 1
 323 256 l 1
 323 156 l 1
 224 156 l 1
EndSplineSet
Validated: 1
EndChar

StartChar: oslash
Encoding: 248 248 307
Width: 610
VWidth: 2048
Flags: W
HStem: -12 72<234.217 383.965> 458 72<232.97 381.84>
VStem: 64 89<150.173 366.779> 463 89<149.872 370.175>
DStem2: 126 64 170 28 0.608882 0.793261<-84.5659 0.586161 90.6033 438.262 530.799 613.247>
LayerCount: 2
Fore
SplineSet
64 253 m 0
 64 418 150 530 307 530 c 0
 356 530 403 517 451 487 c 1
 500 550 l 1
 546 517 l 1
 495 449 l 1
 532 400 552 337 552 259 c 0
 552 92 464 -12 308 -12 c 0
 256 -12 210 2 170 28 c 1
 120 -38 l 1
 74 -3 l 1
 126 64 l 1
 86 110 64 172 64 253 c 0
402 423 m 1
 372 446 340 458 310 458 c 0
 204 458 153 363 153 259 c 0
 153 210 164 170 181 136 c 1
 402 423 l 1
438 377 m 1
 219 92 l 1
 245 71 274 60 305 60 c 0
 412 60 463 148 463 259 c 0
 463 307 454 346 438 377 c 1
EndSplineSet
Validated: 1
EndChar

StartChar: thorn
Encoding: 254 254 313
Width: 556
VWidth: 2048
Flags: W
HStem: -199 21G<66 155> -12 72<215.555 357.988> 458 72<222.018 358.931> 696 20G<66 155>
VStem: 66 89<-199 54 133.441 375.341 464 716> 428 89<143.178 374.869>
LayerCount: 2
Fore
SplineSet
517 264 m 0
 517 110 433 -12 290 -12 c 0
 239 -12 193 11 155 54 c 1
 155 -199 l 1
 66 -199 l 1
 66 716 l 1
 155 716 l 1
 155 464 l 1
 193 509 241 530 296 530 c 0
 442 530 517 410 517 264 c 0
288 458 m 0
 197 458 155 365 155 254 c 0
 155 145 190 60 285 60 c 0
 381 60 428 145 428 262 c 0
 428 373 381 458 288 458 c 0
EndSplineSet
Validated: 1
EndChar

StartChar: dotlessi
Encoding: 305 305 315
Width: 222
VWidth: 2048
Flags: W
HStem: 0 21G<66 155> 498 20G<66 155>
VStem: 66 89<0 518>
LayerCount: 2
Fore
SplineSet
66 0 m 1
 66 518 l 1
 155 518 l 1
 155 0 l 1
 66 0 l 1
EndSplineSet
Validated: 1
EndChar

StartChar: OE
Encoding: 338 338 316
Width: 999
VWidth: 2048
Flags: W
HStem: -12 84<267.072 436.905> 0 84<636 969> 329 84<636 929> 632 84<636 953> 644 84<261.339 436.781>
VStem: 63 95<209.281 515.393> 547 89<84 103 214.236 329 413 505.084 619 632>
LayerCount: 2
Fore
SplineSet
63 359 m 0xa6
 63 576 154 728 353 728 c 0xae
 438 728 503 691 547 619 c 1
 547 716 l 1
 953 716 l 1
 953 632 l 1
 636 632 l 1
 636 413 l 1
 929 413 l 1
 929 329 l 1
 636 329 l 1
 636 84 l 1
 969 84 l 1
 969 0 l 1
 547 0 l 1x76
 547 103 l 1
 504 26 438 -12 353 -12 c 0
 157 -12 63 141 63 359 c 0xa6
547 363 m 0
 547 484 505 644 351 644 c 0
 224 644 158 552 158 351 c 0
 158 191 220 72 351 72 c 0
 505 72 547 234 547 363 c 0
EndSplineSet
Validated: 1
EndChar

StartChar: oe
Encoding: 339 339 317
Width: 944
VWidth: 2048
Flags: W
HStem: -12 72<204.702 354.78 600.935 753.766> 236 72<527 814> 458 72<208.852 358.624 596.774 745.706>
VStem: 40 89<147.904 367.654> 435 89<153.11 236 308 368.154> 812 88<121.26 157.034> 814 93<308 376.285>
LayerCount: 2
Fore
SplineSet
524 236 m 1xfa
 524 136 583 60 679 60 c 0
 746 60 791 97 812 169 c 1
 900 156 l 1xfc
 871 44 796 -12 677 -12 c 0
 590 -12 523 20 478 86 c 1
 429 20 365 -12 285 -12 c 0
 131 -12 40 91 40 253 c 0
 40 422 125 530 285 530 c 0
 371 530 435 498 478 431 c 1
 524 498 587 530 668 530 c 0
 829 530 907 413 907 236 c 1
 524 236 l 1xfa
282 458 m 0
 173 458 129 353 129 261 c 0
 129 145 179 60 282 60 c 0
 380 60 435 151 435 261 c 0
 435 372 381 458 282 458 c 0
814 308 m 1xfa
 814 402 748 458 673 458 c 0
 590 458 527 392 527 308 c 1
 814 308 l 1xfa
EndSplineSet
Validated: 1
EndChar

StartChar: florin
Encoding: 402 402 321
Width: 554
VWidth: 2048
Flags: W
HStem: -210 77<37.6922 154.874> 451 67<176 262 365 452> 647 83<391.751 515.21>
DStem2: 176 -58 259 -83 0.173699 0.984799<-71.4581 516.201 600.073 728.305>
LayerCount: 2
Fore
SplineSet
23 -198 m 1
 40 -123 l 1
 77 -129 101 -133 113 -133 c 0
 147 -133 167 -109 176 -58 c 2
 262 451 l 1
 164 451 l 1
 176 518 l 1
 274 518 l 1
 287 584 l 2
 304 668 329 730 425 730 c 0
 452 730 486 723 530 710 c 1
 512 636 l 1
 481 644 455 647 438 647 c 0
 385 647 381 607 374 569 c 2
 365 518 l 1
 464 518 l 1
 452 451 l 1
 353 451 l 1
 259 -83 l 2
 244 -169 202 -210 132 -210 c 0
 98 -210 61 -205 23 -198 c 1
EndSplineSet
Validated: 1
EndChar

StartChar: circumflex
Encoding: 710 710 322
Width: 332
VWidth: 2048
Flags: W
HStem: 582 138
VStem: 12 308
LayerCount: 2
Fore
SplineSet
169 667 m 1
 113 582 l 1
 12 582 l 1
 118 720 l 1
 212 720 l 1
 320 582 l 1
 222 582 l 1
 169 667 l 1
EndSplineSet
Validated: 1
EndChar

StartChar: caron
Encoding: 711 711 323
Width: 332
VWidth: 2048
Flags: W
HStem: 582 138
VStem: 20 308
LayerCount: 2
Fore
SplineSet
175 638 m 1
 228 720 l 1
 328 720 l 1
 219 582 l 1
 126 582 l 1
 20 720 l 1
 121 720 l 1
 175 638 l 1
EndSplineSet
Validated: 1
EndChar

StartChar: ring
Encoding: 730 730 324
Width: 332
VWidth: 2048
Flags: W
HStem: 564 35<126.686 207.314> 705 35<126.686 207.314>
VStem: 79 35<611.686 692.314> 220 35<611.686 692.314>
LayerCount: 2
Fore
SplineSet
255 652 m 0
 255 600 219 564 167 564 c 0
 115 564 79 600 79 652 c 0
 79 704 115 740 167 740 c 0
 219 740 255 704 255 652 c 0
167 599 m 0
 199 599 220 620 220 652 c 0
 220 684 199 705 167 705 c 0
 135 705 114 684 114 652 c 0
 114 620 135 599 167 599 c 0
EndSplineSet
Validated: 1
EndChar

StartChar: tilde
Encoding: 732 732 325
Width: 332
VWidth: 2048
Flags: W
HStem: 599 67<169.159 261.843> 641 67<71.219 162.792>
VStem: 3 64<596 636.621> 267 63<670.833 708>
LayerCount: 2
Fore
SplineSet
235 599 m 0xb0
 183 599 133 641 106 641 c 0
 81 641 67 627 67 596 c 1
 3 596 l 1
 3 670 37 708 103 708 c 0x70
 147 708 197 666 231 666 c 0xb0
 251 666 264 681 267 708 c 1
 330 708 l 1x70
 330 635 297 599 235 599 c 0xb0
EndSplineSet
Validated: 1
EndChar

StartChar: quotesinglbase
Encoding: 8218 8218 326
Width: 222
VWidth: 2048
Flags: W
HStem: 0 101<61 106>
VStem: 61 94<2.99707 101> 106 49<-74.0889 0>
LayerCount: 2
Fore
SplineSet
61 0 m 1xc0
 61 101 l 1
 155 101 l 1
 155 21 l 2xc0
 155 -58 127 -109 74 -132 c 1
 52 -98 l 1
 89 -83 106 -51 106 0 c 1xa0
 61 0 l 1xc0
EndSplineSet
Validated: 1
EndChar

StartChar: quotedblbase
Encoding: 8222 8222 327
Width: 332
VWidth: 2048
Flags: W
HStem: 0 101<43 89 193 239>
VStem: 43 93<2.99707 101> 89 47<-73.8477 0> 193 95<3.19625 101> 239 49<-75.1486 0>
LayerCount: 2
Fore
SplineSet
43 0 m 1xc0
 43 101 l 1
 136 101 l 1
 136 21 l 2xc0
 136 -58 110 -109 57 -132 c 1
 34 -98 l 1
 71 -83 89 -51 89 0 c 1xa0
 43 0 l 1xc0
193 0 m 1x90
 193 101 l 1
 288 101 l 1
 288 21 l 2x90
 288 -57 261 -109 207 -132 c 1
 187 -98 l 1
 222 -83 239 -51 239 0 c 1x88
 193 0 l 1x90
EndSplineSet
Validated: 1
EndChar

StartChar: dagger
Encoding: 8224 8224 328
Width: 554
VWidth: 2048
Flags: W
HStem: 429 72<35 230 319 515>
VStem: 230 89<-169 429 501 700>
LayerCount: 2
Back
SplineSet
230 -169 m 1
 230 423 l 5
 35 423 l 5
 35 501 l 1
 230 501 l 1
 230 700 l 1
 319 700 l 1
 319 501 l 1
 515 501 l 1
 515 423 l 5
 319 423 l 5
 319 -169 l 1
 230 -169 l 1
EndSplineSet
Fore
SplineSet
230 -169 m 1
 230 429 l 1
 35 429 l 1
 35 501 l 1
 230 501 l 1
 230 700 l 1
 319 700 l 1
 319 501 l 1
 515 501 l 1
 515 429 l 1
 319 429 l 1
 319 -169 l 1
 230 -169 l 1
EndSplineSet
Validated: 1
EndChar

StartChar: daggerdbl
Encoding: 8225 8225 329
Width: 554
VWidth: 2048
Flags: W
HStem: 18 72<35 231 320 517> 451 72<35 231 320 517>
VStem: 231 89<-169 18 90 451 523 707>
LayerCount: 2
Back
SplineSet
231 -169 m 1
 231 12 l 1
 35 12 l 1
 35 90 l 1
 231 90 l 1
 231 445 l 5
 35 445 l 5
 35 523 l 1
 231 523 l 1
 231 707 l 1
 320 707 l 1
 320 523 l 1
 517 523 l 1
 517 445 l 5
 320 445 l 5
 320 90 l 1
 517 90 l 1
 517 12 l 1
 320 12 l 1
 320 -169 l 1
 231 -169 l 1
EndSplineSet
Fore
SplineSet
231 -169 m 1
 231 18 l 1
 35 18 l 1
 35 90 l 1
 231 90 l 1
 231 451 l 1
 35 451 l 1
 35 523 l 1
 231 523 l 1
 231 707 l 1
 320 707 l 1
 320 523 l 1
 517 523 l 1
 517 451 l 1
 320 451 l 1
 320 90 l 1
 517 90 l 1
 517 18 l 1
 320 18 l 1
 320 -169 l 1
 231 -169 l 1
EndSplineSet
Validated: 1
EndChar

StartChar: perthousand
Encoding: 8240 8240 330
Width: 999
VWidth: 2048
Flags: W
HStem: -26 61<469.188 556.979 799.287 887.298> 288 61<469.961 556.271 799.853 886.375> 346 61<116.895 203.049> 661 61<116.385 202.556>
VStem: 18 73<432.031 635.419> 226 73<429.369 636.935> 372 73<59.2853 262.581> 580 73<59.8945 263.313> 701 73<62.1708 262.581> 910 73<57.0564 263.313>
DStem2: 156 -26 221 -26 0.362208 0.932097<23.5435 808.928>
LayerCount: 2
Fore
SplineSet
156 -26 m 1x9fc0
 449 728 l 1
 513 728 l 1
 221 -26 l 1
 156 -26 l 1x9fc0
18 536 m 0
 18 661 64 722 158 722 c 0
 251 722 299 661 299 540 c 0
 299 411 251 346 159 346 c 0xbfc0
 64 346 18 409 18 536 c 0
91 532 m 0
 91 448 114 407 162 407 c 0
 205 407 226 448 226 532 c 0
 226 618 205 661 160 661 c 0
 114 661 91 618 91 532 c 0
372 164 m 0
 372 288 418 349 512 349 c 0xdfc0
 607 349 653 288 653 166 c 0
 653 38 607 -26 513 -26 c 0
 420 -26 372 37 372 164 c 0
445 159 m 0
 445 77 468 35 514 35 c 0
 558 35 580 77 580 161 c 0
 580 247 557 288 512 288 c 0
 467 288 445 245 445 159 c 0
701 164 m 0
 701 288 748 349 842 349 c 0
 937 349 983 288 983 166 c 0
 983 38 937 -26 843 -26 c 0
 750 -26 701 37 701 164 c 0
774 159 m 0
 774 77 799 35 845 35 c 0
 889 35 910 77 910 161 c 0
 910 247 887 288 843 288 c 0
 797 288 774 245 774 159 c 0
EndSplineSet
Validated: 1
EndChar

StartChar: guilsinglleft
Encoding: 8249 8249 331
Width: 332
VWidth: 2048
Flags: W
VStem: 44 227
LayerCount: 2
Fore
SplineSet
143 258 m 1
 271 35 l 1
 199 35 l 1
 44 258 l 1
 199 480 l 1
 271 480 l 1
 143 258 l 1
EndSplineSet
Validated: 1
EndChar

StartChar: guilsinglright
Encoding: 8250 8250 332
Width: 332
VWidth: 2048
Flags: W
VStem: 63 221
LayerCount: 2
Fore
SplineSet
192 259 m 1
 63 480 l 1
 135 480 l 1
 284 262 l 1
 135 35 l 1
 63 35 l 1
 192 259 l 1
EndSplineSet
Validated: 1
EndChar

StartChar: trademark
Encoding: 8482 8482 333
Width: 999
VWidth: 2048
Flags: W
HStem: 658 58<110 239 305 435>
VStem: 239 66<319 658> 475 66<319 658> 811 66<319 651>
DStem2: 576 716 541 658 0.298435 -0.95443<44.9117 332.696> 677 399 708 319 0.296309 0.955092<0 280.389>
LayerCount: 2
Fore
SplineSet
239 319 m 1
 239 658 l 1
 110 658 l 1
 110 716 l 1
 435 716 l 1
 435 658 l 1
 305 658 l 1
 305 319 l 1
 239 319 l 1
475 319 m 1
 475 716 l 1
 576 716 l 1
 677 399 l 1
 776 716 l 1
 877 716 l 1
 877 319 l 1
 811 319 l 1
 811 651 l 1
 708 319 l 1
 647 319 l 1
 541 658 l 1
 541 319 l 1
 475 319 l 1
EndSplineSet
Validated: 1
EndChar

StartChar: uniF71D
Encoding: 63261 63261 335
Width: 340
VWidth: 2048
Flags: W
HStem: -138 135<18 87 248 322> -87 84<87 248>
VStem: 18 69<-138 -87> 248 74<-138 -87>
LayerCount: 2
Fore
SplineSet
18 -138 m 1xb0
 18 -3 l 1
 322 -3 l 1
 322 -138 l 1
 248 -138 l 1xb0
 248 -87 l 1
 87 -87 l 1x70
 87 -138 l 1
 18 -138 l 1xb0
EndSplineSet
Validated: 1
EndChar

StartChar: uni0E10.descless
Encoding: 63232 63232 337
Width: 530
Flags: W
HStem: -3 61<283.791 354.471> 157 50<135.326 207.786> 299 50<135.706 215.531> 504 61<305.578 473.113> 519 60<427.314 468> 532 61<163.18 364.724>
VStem: 77 52<213.073 292.227> 208 69<64.9433 164> 222 55<213.036 291.528> 359 69<62.0687 375.095>
LayerCount: 2
Fore
SplineSet
245 593 m 0xe740
 304 593 363 565 414 565 c 0xf340
 442 565 466 579 468 579 c 1
 486 519 l 1xeb40
 484 519 454 504 426 504 c 0xf340
 357 504 317 532 247 532 c 0
 177 532 150 501 150 501 c 1
 150 501 284 493 371 433 c 0
 405 409 428 372 428 324 c 2
 428 95 l 2
 428 37 380 -3 314 -3 c 0
 254 -3 208 35 208 89 c 2
 208 164 l 1xe740
 208 164 193 157 171 157 c 0
 121 157 77 194 77 253 c 0
 77 314 123 349 176 349 c 0
 250 349 277 299 277 247 c 2xe6c0
 277 107 l 2
 277 84 288 58 320 58 c 0
 354 58 359 86 359 109 c 2
 359 317 l 2
 359 375 308 411 236 430 c 0
 150 453 80 459 40 459 c 1
 72 520 121 593 245 593 c 0xe740
176 207 m 0
 207 207 222 230 222 253 c 0xe2c0
 222 276 207 299 176 299 c 0
 144 299 129 276 129 253 c 0
 129 230 144 207 176 207 c 0
EndSplineSet
Validated: 1
EndChar

